<?xml version="1.0" encoding="UTF-8" standalone="no"?>
<!-- Created with Inkscape (http://www.inkscape.org/) -->

<svg
   xmlns:dc="http://purl.org/dc/elements/1.1/"
   xmlns:cc="http://creativecommons.org/ns#"
   xmlns:rdf="http://www.w3.org/1999/02/22-rdf-syntax-ns#"
   xmlns:svg="http://www.w3.org/2000/svg"
   xmlns="http://www.w3.org/2000/svg"
   xmlns:sodipodi="http://sodipodi.sourceforge.net/DTD/sodipodi-0.dtd"
   xmlns:inkscape="http://www.inkscape.org/namespaces/inkscape"
   width="144.49779mm"
   height="137.27148mm"
   viewBox="0 0 512.00004 486.39502"
   id="svg2"
   version="1.1"
   inkscape:version="0.91 r13725"
   sodipodi:docname="digitalvoucher.svg">
  <defs
     id="defs4" />
  <sodipodi:namedview
     id="base"
     pagecolor="#ffffff"
     bordercolor="#666666"
     borderopacity="1.0"
     inkscape:pageopacity="1"
     inkscape:pageshadow="2"
     inkscape:zoom="0.1767767"
     inkscape:cx="396.53567"
     inkscape:cy="249.69929"
     inkscape:document-units="px"
     inkscape:current-layer="layer1"
     showgrid="false"
     showguides="false"
     inkscape:guide-bbox="true"
     inkscape:window-width="1920"
     inkscape:window-height="1017"
     inkscape:window-x="1358"
     inkscape:window-y="-8"
     inkscape:window-maximized="1"
     fit-margin-top="0"
     fit-margin-left="0"
     fit-margin-right="0"
     fit-margin-bottom="0">
    <sodipodi:guide
       position="-5996.1971,-827.8542"
       orientation="0,1"
       id="guide4149" />
    <sodipodi:guide
       position="-5975.489,-882.9075"
       orientation="0,1"
       id="guide4151" />
    <sodipodi:guide
       position="-5847.7047,-937.4558"
       orientation="0,1"
       id="guide4153" />
    <sodipodi:guide
       position="-5715.3748,-994.0243"
       orientation="0,1"
       id="guide4155" />
    <sodipodi:guide
       position="-5948.72,-937.4558"
       orientation="1,0"
       id="guide4157" />
    <sodipodi:guide
       position="-5767.9028,-937.4558"
       orientation="1,0"
       id="guide4159" />
    <sodipodi:guide
       position="-6017.8901,-969.4341"
       orientation="1,0"
       id="guide4325" />
  </sodipodi:namedview>
  <metadata
     id="metadata7">
    <rdf:RDF>
      <cc:Work
         rdf:about="">
        <dc:format>image/svg+xml</dc:format>
        <dc:type
           rdf:resource="http://purl.org/dc/dcmitype/StillImage" />
        <dc:title></dc:title>
      </cc:Work>
    </rdf:RDF>
  </metadata>
  <g
     inkscape:label="Layer 1"
     inkscape:groupmode="layer"
     id="layer1"
     transform="translate(-6045.6949,1299.8188)">
    <g
       id="g5662"
       transform="matrix(0,-8.5333338,8.5333338,0,6045.6949,-800.62727)">
      <g
         id="g5620">
        <circle
           id="circle5622"
           r="2"
           cy="53"
           cx="41.5"
           style="fill:#ffffff" />
        <path
           id="path5624"
           d="M 54.095,0 28.905,0 C 26.476,0 24.5,1.977 24.5,4.405 l 0,9.534 c -5.254,2.019 -9,7.104 -9,13.061 0,3.258 1.128,6.253 3.002,8.634 L 1.816,51.271 C 1.413,51.649 1.392,52.282 1.77,52.684 1.967,52.894 2.233,53 2.5,53 2.745,53 2.991,52.91 3.184,52.729 L 19.847,37.114 c 1.33,1.27 2.907,2.276 4.653,2.947 l 0,15.534 c 0,2.429 1.976,4.405 4.405,4.405 l 25.189,0 c 2.429,0 4.405,-1.977 4.405,-4.405 l 0,-51.19 C 58.5,1.977 56.524,0 54.095,0 Z m -9.595,3 1,0 c 0.552,0 1,0.447 1,1 0,0.553 -0.448,1 -1,1 l -1,0 c -0.552,0 -1,-0.447 -1,-1 0,-0.553 0.448,-1 1,-1 z m -7,0 4,0 c 0.552,0 1,0.447 1,1 0,0.553 -0.448,1 -1,1 l -4,0 c -0.552,0 -1,-0.447 -1,-1 0,-0.553 0.448,-1 1,-1 z m -20,24 c 0,-6.617 5.383,-12 12,-12 6.617,0 12,5.383 12,12 0,6.617 -5.383,12 -12,12 -6.617,0 -12,-5.383 -12,-12 z m 24,30 c -2.206,0 -4,-1.794 -4,-4 0,-2.206 1.794,-4 4,-4 2.206,0 4,1.794 4,4 0,2.206 -1.794,4 -4,4 z m 15,-11 -30,0 0,-5.332 c 0.968,0.212 1.97,0.332 3,0.332 7.72,0 14,-6.28 14,-14 0,-7.72 -6.28,-14 -14,-14 -1.03,0 -2.032,0.12 -3,0.332 l 0,-5.332 30,0 0,38 z"
           inkscape:connector-curvature="0"
           style="fill:#ffffff" />
      </g>
      <g
         id="g5626" />
      <g
         id="g5628" />
      <g
         id="g5630" />
      <g
         id="g5632" />
      <g
         id="g5634" />
      <g
         id="g5636" />
      <g
         id="g5638" />
      <g
         id="g5640" />
      <g
         id="g5642" />
      <g
         id="g5644" />
      <g
         id="g5646" />
      <g
         id="g5648" />
      <g
         id="g5650" />
      <g
         id="g5652" />
      <g
         id="g5654" />
    </g>
  </g>
</svg>
