<?xml version="1.0" encoding="UTF-8" standalone="no"?>
<!-- Created with Inkscape (http://www.inkscape.org/) -->

<svg
   xmlns:dc="http://purl.org/dc/elements/1.1/"
   xmlns:cc="http://creativecommons.org/ns#"
   xmlns:rdf="http://www.w3.org/1999/02/22-rdf-syntax-ns#"
   xmlns:svg="http://www.w3.org/2000/svg"
   xmlns="http://www.w3.org/2000/svg"
   xmlns:sodipodi="http://sodipodi.sourceforge.net/DTD/sodipodi-0.dtd"
   xmlns:inkscape="http://www.inkscape.org/namespaces/inkscape"
   width="1794.1095"
   height="494.79858"
   viewBox="0 0 1794.1097 494.7986"
   id="svg2"
   version="1.1"
   inkscape:version="0.91 r13725"
   sodipodi:docname="flag_backup.svg">
  <defs
     id="defs4">
    <inkscape:path-effect
       effect="envelope"
       id="path-effect5388"
       is_visible="true"
       yy="true"
       xx="true"
       bendpath1="m 50.000004,400.34161 c 190.045576,-32.89374 357.647126,48.461 536.469416,0"
       bendpath2="m 586.46942,400.34161 0,322.26542"
       bendpath3="m 50.000004,722.60703 c 174.328996,-85.72942 362.389526,50.22393 536.469416,0"
       bendpath4="m 50.000004,400.34161 c 11.254703,73.6577 15.536345,168.23458 0,322.26542"
       bendpath1-nodetypes="cc"
       bendpath3-nodetypes="cc"
       bendpath4-nodetypes="cc" />
    <inkscape:path-effect
       effect="envelope"
       id="path-effect5314"
       is_visible="true"
       yy="true"
       xx="true"
       bendpath1="m 50.000004,402.36191 700.000056,0"
       bendpath2="m 750.00006,402.36191 0,500.00003"
       bendpath3="m 50.000004,902.36194 700.000056,0"
       bendpath4="m 50.000004,402.36191 0,500.00003" />
    <inkscape:path-effect
       effect="envelope"
       id="path-effect5217"
       is_visible="true"
       yy="true"
       xx="true"
       bendpath1="m 50.000004,402.36191 700.000056,0"
       bendpath2="m 750.00006,402.36191 0,500.00003"
       bendpath3="m 50.000004,902.36194 700.000056,0"
       bendpath4="m 50.000004,402.36191 0,500.00003" />
  </defs>
  <sodipodi:namedview
     id="base"
     pagecolor="#ffffff"
     bordercolor="#666666"
     borderopacity="1.0"
     inkscape:pageopacity="0.0"
     inkscape:pageshadow="2"
     inkscape:zoom="0.49497475"
     inkscape:cx="1048.606"
     inkscape:cy="272.46518"
     inkscape:document-units="px"
     inkscape:current-layer="g5364"
     showgrid="false"
     showguides="false"
     units="px"
     inkscape:window-width="1920"
     inkscape:window-height="1017"
     inkscape:window-x="1358"
     inkscape:window-y="-8"
     inkscape:window-maximized="1"
     inkscape:guide-bbox="true"
     fit-margin-left="1000"
     fit-margin-top="0"
     fit-margin-right="0"
     fit-margin-bottom="0">
    <sodipodi:guide
       position="1397.1927,397.43244"
       orientation="0,1"
       id="guide4150" />
    <sodipodi:guide
       position="1397.1927,648.84061"
       orientation="1,0"
       id="guide5078" />
  </sodipodi:namedview>
  <metadata
     id="metadata7">
    <rdf:RDF>
      <cc:Work
         rdf:about="">
        <dc:format>image/svg+xml</dc:format>
        <dc:type
           rdf:resource="http://purl.org/dc/dcmitype/StillImage" />
        <dc:title></dc:title>
      </cc:Work>
    </rdf:RDF>
  </metadata>
  <g
     inkscape:label="Layer 1"
     inkscape:groupmode="layer"
     id="layer1"
     transform="translate(997.19254,-554.97535)">
    <g
       id="g5364"
       inkscape:path-effect="#path-effect5388"
       transform="matrix(1.4575344,0,0,1.4575344,-63.201289,-9.0673012)">
      <path
         sodipodi:nodetypes="ccscc"
         id="rect4468"
         d="m 49.551784,400.05293 c 23.14886,-3.78363 45.585549,-6.47844 69.027816,-7.87497 22.31156,-1.32947 44.2553,-1.39927 66.64435,-0.37118 1.15698,0.0531 2.31379,0.10913 3.47051,0.16797 0,0 3e-5,0 3e-5,0 21.3333,1.08498 42.23466,3.08005 63.48688,5.48838 21.81051,2.47173 45.96952,5.63228 67.7105,8.14481 0.84421,0.0976 1.68835,0.19461 2.5325,0.29111 22.00372,2.51501 43.35932,4.57071 65.39996,5.71243 0,0 3e-5,0 3e-5,0 22.21018,1.1506 43.60098,1.29153 65.85485,0.34278 0.46505,-0.0198 0.93011,-0.0401 1.39518,-0.0609 22.54819,-1.00813 43.52971,-3.0586 65.96381,-5.53188 20.95224,-2.3099 44.14801,-5.1315 64.95035,-6.34396 0,0 0.074,-0.0929 -0.12407,0.38496 -15.44048,37.17377 -37.31348,70.24397 -63.1482,100.9852 -9.76758,11.60864 -20.26656,22.98602 -31.25461,33.78868 -10.36202,10.15099 -21.22501,19.86635 -32.55193,28.98784 0,0 -3e-5,3e-5 -3e-5,3e-5 -0.45527,0.36617 -0.91126,0.73131 -1.36797,1.09543 -20.7517,16.60142 -42.29379,30.70094 -65.3407,42.64983 -21.88685,11.34044 -43.86245,20.0692 -66.62065,27.41289 -0.8685,0.28183 -1.73718,0.56135 -2.60607,0.83864 0,0 -4e-5,10e-6 -4e-5,10e-6 -23.43344,7.47117 -47.20603,13.3744 -70.1361,18.93437 -24.09019,5.82688 -43.96465,10.61621 -65.86577,16.81021 -1.19525,0.33888 -2.38512,0.67863 -3.57032,1.01951 -26.03593,7.47712 -47.62235,15.09319 -67.37142,22.76109 -13.05577,5.07375 -45.256613,18.42991 -48.798075,19.85706 -11.381043,4.58638 -17.714781,6.80356 -17.714781,6.80356 1.015711,-0.46694 1.016949,-6.76528 1.477003,-17.51993 0.532297,-12.44351 1.403273,-24.32535 3.520802,-44.30483 1.892889,-17.85993 4.558442,-39.91115 6.083953,-61.69531 1.61514,-23.06405 1.90872,-44.40179 0.601918,-67.35802 -1.839846,-32.32303 -7.739488,-69.35869 -9.950924,-91.15989 -1.269926,-12.51943 -1.72634,-21.67987 -1.823691,-29.17674 -0.09164,-7.0568 0.124909,-11.07914 0.124909,-11.07914 z"
         style="opacity:1;fill:#ff6699;fill-opacity:1;stroke:#ffffff;stroke-width:8.23308277;stroke-linecap:butt;stroke-linejoin:round;stroke-miterlimit:4;stroke-dasharray:none;stroke-dashoffset:0;stroke-opacity:1"
         inkscape:connector-curvature="0"
         inkscape:original-d="m 474.21138,358.01596 536.38202,0 c 0,0 0.074,-0.0885 -0.1223,0.37755 -106.13874,251.48174 -536.25972,321.88777 -536.25972,321.88777 7.46292,-1.99968 0,-322.26532 0,-322.26532 z" />
      <g
         transform="matrix(0.66999859,-0.16640174,0.16672092,0.67128372,322.83666,119.89308)"
         id="g5240">
        <g
           id="g5072"
           transform="translate(2.857143,37.142859)">
          <path
             sodipodi:nodetypes="ccccccccccccccc"
             inkscape:connector-curvature="0"
             id="path4188"
             d="m -35.804222,461.71904 c 0,0 0.879956,-5.49249 2.742259,-11.09629 1.869926,-5.62674 4.702044,-11.30272 8.837999,-12.15386 1.107407,-0.22789 2.292463,-0.27949 3.521424,-0.17812 7.933663,0.65201 17.8159106,7.66257 20.31200099,15.42022 2.86451241,8.90266 -11.80719199,23.69446 -11.80719199,23.69446 0,0 20.93554,6.07167 23.53354,15.29048 2.615699,9.28166 -3.9910769,22.61439 -12.5415778,24.95494 -8.4676837,2.31791 -23.3267242,-15.63766 -23.3267242,-15.63766 -3.24915,0.8282 -6.500223,1.65302 -9.754099,2.47504 -34.223945,8.63709 -68.486608,16.8644 -103.255988,25.17811 0,0 -1e-5,10e-6 -1e-5,10e-6 -1.34553,0.32397 -2.69166,0.64803 -4.03839,0.9722 0,0 -2e-5,0 -2e-5,0 -5.28696,1.27164 -10.57939,2.5444 -15.88714,3.82194 -30.92533,7.37686 -61.68162,14.76766 -93.2625,22.66463 0,0 -2e-5,0 -2e-5,0 -34.65612,8.64407 -69.04362,17.69427 -104.4292,27.71076 0,0 -2e-5,0 -2e-5,0 -1.91412,0.54409 -3.829,1.08996 -5.74482,1.63767 -9.8139,2.79748 -19.62671,5.65848 -29.464,8.58968 0,0 -1.39651,5.45367 -3.91926,11.13977 -2.53199,5.70692 -6.16863,11.59731 -10.71676,12.91273 -9.09881,2.63153 -21.70634,-3.79406 -23.75457,-12.29953 -2.0423,-8.48095 14.77482,-24.60414 14.77482,-24.60414 0,0 -21.30936,-3.76091 -23.22069,-12.58463 -1.92011,-8.86493 5.80719,-22.67482 14.59048,-25.77648 8.771,-3.09709 23.24439,12.99455 23.24439,12.99455 17.15435,-5.69694 34.13143,-11.17905 51.29423,-16.49859 1.89815,-0.58997 3.79551,-1.17783 5.69249,-1.76367 0,0 1e-5,-10e-6 1e-5,-10e-6 35.23717,-10.83982 69.06056,-20.43609 103.63397,-29.40643 0,0 2e-5,-1e-5 2e-5,-1e-5 0.38708,-0.10067 0.7741,-0.20125 1.16108,-0.30172 36.58325,-9.57553 71.48375,-17.94473 107.01091,-26.06583 0,0 1e-5,-10e-6 1e-5,-10e-6 1.33081,-0.30445 2.66086,-0.60822 3.99028,-0.91135 0,0 2e-5,0 2e-5,0 31.872148,-7.21533 59.4408,-13.19116 90.783048,-20.17886 z"
             style="fill:#ffffff;fill-opacity:1;fill-rule:evenodd;stroke:#ff6699;stroke-width:7.09891939;stroke-linecap:butt;stroke-linejoin:miter;stroke-miterlimit:4;stroke-dasharray:none;stroke-opacity:1"
             inkscape:original-d="m 572.02767,544.6013 c 0,0 4.81926,-23.11278 13.53537,-25.67003 8.71611,-2.55722 21.10848,5.27687 23.44396,14.82059 2.33549,9.54373 -13.53537,25.67001 -13.53537,25.67001 0,0 21.10846,5.27687 23.44394,14.82057 2.33545,9.54365 -4.81921,23.11258 -13.53525,25.66978 -8.7161,2.55725 -23.44396,-14.82057 -23.44396,-14.82057 L 217.6526,691.96949 c 0,0 -4.81911,23.11242 -13.53526,25.66975 -8.71616,2.55728 -21.10851,-5.27679 -23.44396,-14.82058 -2.33543,-9.54379 13.53526,-25.66976 13.53526,-25.66976 0,0 -21.1084,-5.277 -23.44395,-14.82055 -2.33547,-9.54382 4.81934,-23.11288 13.53547,-25.67021 8.71603,-2.55706 23.44395,14.82059 23.44395,14.82059 z" />
          <path
             sodipodi:nodetypes="ccccccccccccccc"
             inkscape:connector-curvature="0"
             id="path4188-1"
             d="m -32.821772,611.35204 c 0,0 4.356746,24.12956 12.863277,26.88672 8.541897,2.76862 20.88872949,-5.33531 23.355283,-15.23572 2.4455281,-9.8159 -12.9383495,-26.5878 -12.9383495,-26.5878 0,0 13.904836,-3.5191 20.2933475,-10.20729 0,0 1e-6,0 1e-6,0 1.42121,-1.49346 2.466921,-3.13844 2.899057,-4.92566 2.372725,-9.81315 -4.6276692,-23.63701 -13.20907653,-26.3716 -8.53360147,-2.71938 -23.06998247,14.78703 -23.06998247,14.78703 -8.285175,-2.7526 -16.547727,-5.56726 -24.848359,-8.45385 -30.253229,-10.53954 -59.272516,-21.5097 -89.697946,-33.12256 0,0 -1e-5,0 -1e-5,0 -1.16308,-0.44153 -2.32634,-0.88321 -3.49003,-1.3251 0,0 -1e-5,-10e-6 -1e-5,-10e-6 -31.40927,-11.94604 -62.02126,-23.56681 -94.01167,-34.78365 -29.94029,-10.52052 -59.03623,-19.77763 -89.35429,-28.20562 0,0 -10e-6,0 -10e-6,0 -1.62929,-0.45191 -3.2585,-0.90071 -4.88799,-1.34652 -19.70742,-5.39576 -38.91477,-10.09874 -58.37159,-14.50242 0,0 -5.31713,-23.70085 -14.16429,-25.59619 -6.17341,-1.32251 -13.89484,2.93801 -18.62814,9.09587 -1.99156,2.58989 -3.4571,5.51667 -4.06429,8.50548 -0.44484,2.18967 -0.0495,4.61649 0.84007,7.07287 0,0 0,0 0,0 3.19895,8.85433 12.88529,18.2157 12.88529,18.2157 0,0 -2.34544,0.81653 -5.53745,2.28321 -4.32636,1.98044 -10.15476,5.12846 -13.92009,9.03358 0,0 0,10e-6 0,10e-6 -1.75085,1.81535 -3.05185,3.79141 -3.54211,5.88211 -0.65156,2.77872 -0.58516,5.81203 0.0336,8.7711 1.58375,7.59481 6.7977,14.72455 12.99151,16.08709 8.67174,1.90744 23.50151,-16.80967 23.50151,-16.80967 19.31378,4.37872 38.30948,8.9638 57.9557,14.2519 1.62547,0.43718 3.25081,0.87721 4.87647,1.32027 30.30521,8.27815 59.2872,17.31776 89.27138,27.71532 0,0 2e-5,0 2e-5,0 32.03922,11.08608 62.52562,22.57144 93.96119,34.5072 0,0 1e-5,10e-6 1e-5,10e-6 1.16253,0.44069 2.32471,0.88131 3.48658,1.3218 30.37136,11.57757 59.389409,22.59623 89.564947,33.18276 8.336472,2.91949 16.635401,5.76808 24.956401,8.55363 z"
             style="fill:#ffffff;fill-opacity:1;fill-rule:evenodd;stroke:#ff6699;stroke-width:7.09891939;stroke-linecap:butt;stroke-linejoin:miter;stroke-miterlimit:4;stroke-dasharray:none;stroke-opacity:1"
             inkscape:original-d="m 573.32006,692.05205 c 0,0 4.81926,23.11277 13.53538,25.67002 8.7161,2.55723 21.10848,-5.27687 23.44394,-14.82058 2.3355,-9.54374 -13.53536,-25.67003 -13.53536,-25.67003 0,0 21.10846,-5.27686 23.44394,-14.82055 2.33546,-9.54367 -4.81921,-23.1126 -13.53524,-25.6698 -8.71612,-2.55724 -23.44397,14.82057 -23.44397,14.82057 L 218.94497,544.68384 c 0,0 -4.8191,-23.11242 -13.53526,-25.66974 -8.71615,-2.55729 -21.1085,5.2768 -23.44396,14.82057 -2.33543,9.54381 13.53526,25.66976 13.53526,25.66976 0,0 -21.1084,5.277 -23.44395,14.82056 -2.33546,9.54381 4.81934,23.11289 13.53547,25.6702 8.71602,2.55707 23.44395,-14.82059 23.44395,-14.82059 z" />
        </g>
        <path
           style="opacity:1;fill:#ffffff;fill-opacity:1;stroke:#ff6699;stroke-width:8.00000095;stroke-linecap:butt;stroke-linejoin:miter;stroke-miterlimit:4;stroke-dasharray:none;stroke-dashoffset:0;stroke-opacity:1"
           d="m -340.66864,534.47421 c 2.15201,-0.0719 4.30409,-0.13813 6.45709,-0.19855 1.74483,-0.05 3.48946,-0.0969 5.23433,-0.14079 17.42163,-0.42142 34.61489,-0.49535 51.9853,-0.23281 14.68477,0.20704 29.19995,0.64937 43.7538,1.29204 0,0 1e-5,0 1e-5,0 34.23447,1.48796 67.10129,3.84449 100.66942,6.3072 0,0 2e-5,0 2e-5,0 1.21646,0.0888 2.51834,0.18383 3.7348,0.27261 1e-5,0 2e-5,0 2e-5,0 19.53764,1.46206 38.664028,2.88047 58.112411,4.12424 0,0 7.75637,32.97206 -0.435331,53.00177 -1.780496,4.34493 -4.30788,8.0448 -7.809994,10.58593 -19.751516,14.33167 -45.131256,23.16906 -73.076576,26.80837 -1.31406,0.17339 -2.63323,0.33531 -3.95725,0.48586 -32.56476,3.69436 -68.28523,0.47544 -101.10932,-7.73115 -28.06842,-7.03813 -54.73572,-17.76614 -74.61342,-32.09176 -4.76516,-3.43419 -7.73081,-8.71458 -9.50374,-14.83933 0,0 0,0 0,0 -1.08738,-3.76375 -1.72342,-7.84402 -2.04728,-11.98873 -1.3507,-17.19274 2.60571,-35.6549 2.60571,-35.6549 z"
           id="rect4158-6"
           inkscape:connector-curvature="0"
           sodipodi:nodetypes="ccssc"
           inkscape:original-d="m 264.71577,631.79309 269.85381,-0.16 c 0,0 11.05793,47.31061 -8.55629,61.91442 -63.57712,47.33648 -188.31855,47.41044 -251.95175,0.14938 -19.63152,-14.58054 -9.34577,-61.9038 -9.34577,-61.9038 z" />
        <path
           style="opacity:1;fill:#ffffff;fill-opacity:1;stroke:#ff6699;stroke-width:8.00000095;stroke-linecap:butt;stroke-linejoin:miter;stroke-miterlimit:4;stroke-dasharray:none;stroke-dashoffset:0;stroke-opacity:1"
           d="m -341.94903,497.53263 c 5.49436,-0.23473 10.98592,-0.43032 16.48784,-0.58476 1.74176,-0.0499 3.48327,-0.0965 5.2249,-0.13965 0,0 10e-6,0 10e-6,0 32.41272,-0.77207 63.49915,-0.21497 95.45762,1.43057 0,1e-5 1e-5,1e-5 1e-5,1e-5 34.07701,1.73121 66.83135,4.41146 100.21348,7.23804 0,0 10e-6,0 10e-6,0 1.23916,0.10447 2.47815,0.209 3.7166,0.31351 0,0 2e-5,0 2e-5,0 16.44598,1.41698 32.638909,2.81174 49.022244,4.10009 0,0 3.068787,9.65565 3.653163,20.75427 0.583399,11.08005 -1.322131,23.68355 -10.959813,29.12702 -15.477081,8.74161 -34.652674,14.82227 -55.923714,18.31165 -0.80871,0.13112 -1.62027,0.25849 -2.4346,0.38213 -1.30957,0.20108 -2.62632,0.39253 -3.94992,0.57442 -31.95449,4.38327 -67.89819,3.15738 -101.95016,-2.30738 -33.33442,-5.37345 -65.66059,-14.7437 -88.83402,-28.08968 -0.0971,-0.0559 -0.19341,-0.11244 -0.28903,-0.16961 -1.65061,-0.98653 -3.08685,-2.16196 -4.33399,-3.48984 0,0 0,0 0,0 -6.41443,-6.82287 -7.84841,-17.70726 -7.63247,-27.39347 0.24943,-10.80808 2.53182,-20.05732 2.53182,-20.05732 z"
           id="rect4158"
           inkscape:connector-curvature="0"
           sodipodi:nodetypes="ccssc"
           inkscape:original-d="m 263.68244,596.18783 270.72912,-0.16051 c 0,0 11.08813,37.92841 -8.59145,49.63889 -63.78897,37.95805 -188.93502,38.03226 -252.76898,0.14986 -19.69346,-11.68713 -9.36869,-49.62824 -9.36869,-49.62824 z" />
        <path
           inkscape:connector-curvature="0"
           style="opacity:1;fill:#ffffff;fill-opacity:1;stroke:#ff6699;stroke-width:8.00000095;stroke-linecap:butt;stroke-linejoin:miter;stroke-miterlimit:4;stroke-dasharray:none;stroke-dashoffset:0;stroke-opacity:1"
           d="m -73.931011,500.91845 c 0.51305,12.0022 -18.597263,22.10908 -51.772779,27.02028 -1.28743,0.19276 -2.5931,0.37733 -3.91649,0.55363 -22.03648,2.93033 -48.20036,3.46887 -75.5021,1.90858 -8.86266,-0.5065 -17.75107,-1.22978 -26.48655,-2.14536 0,0 -1e-5,0 -1e-5,0 -37.79331,-3.98787 -71.78866,-11.13508 -91.09965,-20.59401 -1.64723,-0.80628 -3.19035,-1.62945 -4.62664,-2.46921 -8.89757,-5.19995 -13.55864,-10.93667 -13.66764,-17.0059 -0.14324,-7.97598 7.6981,-16.31006 22.57299,-23.32156 1.81318,-0.85659 3.72516,-1.69089 5.7318,-2.49958 24.38607,-9.79538 59.50861,-14.66358 98.31343,-12.49335 0,0 1e-5,0 1e-5,0 2.43954,0.13492 4.88041,0.29578 7.32083,0.48196 33.40335,2.54831 65.76766,9.80684 90.07083,18.73668 1.18714,0.43563 2.35446,0.87504 3.50119,1.31789 24.838448,9.63417 39.12941,20.41847 39.560779,30.50995 z"
           id="path4156"
           inkscape:original-d="M 532.61421,587.14257 A 38.57143,133.92857 89.96603 0 1 398.70853,625.7934 38.57143,133.92857 89.96603 0 1 264.75711,587.30138 38.57143,133.92857 89.96603 0 1 398.66279,548.65055 38.57143,133.92857 89.96603 0 1 532.61421,587.14257 Z" />
        <path
           inkscape:connector-curvature="0"
           style="opacity:1;fill:#ffffff;fill-opacity:1;stroke:#ff6699;stroke-width:8.00000095;stroke-linecap:butt;stroke-linejoin:miter;stroke-miterlimit:4;stroke-dasharray:none;stroke-dashoffset:0;stroke-opacity:1"
           d="m -294.0879,421.41169 c 1.27556,0.0109 2.55066,0.0244 3.8254,0.0403 3.85726,0.0483 7.07301,3.25661 7.21126,7.17649 0.58461,16.57495 1.09044,32.39509 1.48049,49.28565 0.0921,3.99956 -2.95076,7.19419 -6.817,7.18356 -1.27729,-0.004 -2.55474,-0.005 -3.83251,-0.005 -3.86761,0.002 -7.04587,-3.19965 -7.1358,-7.20277 -0.38025,-16.92553 -0.87884,-32.74278 -1.45582,-49.4136 -0.13625,-3.9442 2.86349,-7.09798 6.72398,-7.06514 z"
           id="rect4161"
           inkscape:original-d="m 312.82988,524.21421 3.77974,-0.002 c 3.8132,-0.002 6.88485,3.06575 6.88711,6.87895 l 0.0281,47.35116 c 0.002,3.8132 -3.06575,6.88485 -6.87895,6.88711 l -3.77974,0.002 c -3.8132,0.002 -6.88485,-3.06574 -6.88711,-6.87894 l -0.0281,-47.35117 c -0.002,-3.81319 3.06575,-6.88484 6.87895,-6.88711 z" />
        <path
           inkscape:connector-curvature="0"
           style="opacity:1;fill:#ffffff;fill-opacity:1;stroke:#ff6699;stroke-width:8.00000095;stroke-linecap:butt;stroke-linejoin:miter;stroke-miterlimit:4;stroke-dasharray:none;stroke-dashoffset:0;stroke-opacity:1"
           d="m -239.49584,410.2825 c 1.2561,0.0871 2.51134,0.17641 3.76585,0.26786 3.79446,0.27661 6.97931,3.55365 7.1432,7.34224 0.69218,16.00101 1.31125,31.53376 1.82507,48.15932 0.12161,3.94335 -2.85815,6.96364 -6.6814,6.77291 -1.26295,-0.0631 -2.52646,-0.12436 -3.79065,-0.18379 -3.82686,-0.1799 -6.99837,-3.50384 -7.1154,-7.46842 -0.49478,-16.76055 -1.08433,-32.25989 -1.73748,-48.46098 -0.15424,-3.83245 2.79081,-6.69244 6.5908,-6.42914 z"
           id="rect4161-7"
           inkscape:original-d="m 367.61285,511.0541 3.77974,-0.002 c 3.8132,-0.002 6.88485,3.06576 6.88711,6.87896 l 0.0281,47.35116 c 0.002,3.8132 -3.06575,6.88485 -6.87895,6.88711 l -3.77974,0.002 c -3.8132,0.002 -6.88485,-3.06575 -6.88711,-6.87895 l -0.0281,-47.35116 c -0.002,-3.8132 3.06574,-6.88486 6.87894,-6.88712 z" />
        <path
           inkscape:connector-curvature="0"
           style="opacity:1;fill:#ffffff;fill-opacity:1;stroke:#ff6699;stroke-width:8.00000095;stroke-linecap:butt;stroke-linejoin:miter;stroke-miterlimit:4;stroke-dasharray:none;stroke-dashoffset:0;stroke-opacity:1"
           d="m -186.12313,412.12779 c 1.23299,0.13998 2.46523,0.28126 3.69682,0.4238 3.72379,0.43098 6.89557,3.71026 7.10519,7.36267 0.87876,15.31164 1.64749,30.66294 2.27954,46.81106 0.15076,3.85831 -2.76716,6.73249 -6.54139,6.4225 -1.24652,-0.10246 -2.49352,-0.20395 -3.74111,-0.30441 -3.77734,-0.3042 -6.92583,-3.6827 -7.0678,-7.57679 -0.59428,-16.30044 -1.31145,-31.71729 -2.12188,-47.24022 -0.19339,-3.70916 2.66201,-6.32167 6.39064,-5.89861 z"
           id="rect4161-7-8"
           inkscape:original-d="m 421.81001,507.80951 3.77974,-0.002 c 3.8132,-0.002 6.88485,3.06575 6.88711,6.87895 l 0.0281,47.35117 c 0.002,3.8132 -3.06575,6.88485 -6.87894,6.88711 l -3.77974,0.002 c -3.8132,0.002 -6.88486,-3.06575 -6.88712,-6.87895 l -0.0281,-47.35117 c -0.002,-3.8132 3.06576,-6.88485 6.87896,-6.88711 z" />
        <path
           inkscape:connector-curvature="0"
           style="opacity:1;fill:#ffffff;fill-opacity:1;stroke:#ff6699;stroke-width:8.00000095;stroke-linecap:butt;stroke-linejoin:miter;stroke-miterlimit:4;stroke-dasharray:none;stroke-dashoffset:0;stroke-opacity:1"
           d="m -127.24071,432.3583 c 1.21899,0.15392 2.43747,0.30814 3.65552,0.46261 3.68268,0.46702 6.86514,3.70681 7.11783,7.28826 0.46214,6.55001 0.8886,13.18731 1.2787,19.93392 0.28423,4.90567 0.54834,9.85178 0.79246,14.84533 0.18195,3.72675 0.35252,7.47368 0.51184,11.24323 0.12417,2.94229 -1.5718,5.29006 -4.0758,6.04669 -0.73445,0.22303 -1.5382,0.3091 -2.38553,0.23269 -0.47152,-0.0426 -0.94309,-0.0851 -1.4147,-0.12762 -0.76256,-0.0691 -1.52527,-0.13807 -2.28814,-0.20703 -3.73775,-0.33792 -6.85713,-3.71208 -7.00783,-7.55428 -0.62633,-15.9692 -1.43277,-31.35733 -2.41368,-46.47876 -0.23587,-3.64005 2.54346,-6.15024 6.22932,-5.68504 z"
           id="rect4161-7-2"
           inkscape:original-d="m 481.50136,521.6501 3.77974,-0.002 c 3.8132,-0.002 6.88485,3.06575 6.88711,6.87895 l 0.0281,47.35116 c 0.002,3.8132 -3.06575,6.88486 -6.87896,6.88712 l -3.77974,0.002 c -3.8132,0.002 -6.88485,-3.06576 -6.88711,-6.87896 l -0.0281,-47.35116 c -0.002,-3.8132 3.06575,-6.88485 6.87895,-6.88711 z" />
        <path
           inkscape:connector-curvature="0"
           style="opacity:1;fill:#ffffff;fill-opacity:1;stroke:#ff6699;stroke-width:8.00000095;stroke-linecap:butt;stroke-linejoin:miter;stroke-miterlimit:4;stroke-dasharray:none;stroke-dashoffset:0;stroke-opacity:1"
           d="m -155.68797,451.18382 c 1.23435,0.12792 2.46811,0.25656 3.70139,0.38586 3.72993,0.39109 6.89306,3.72792 7.07932,7.49286 0.77631,15.69141 1.37183,31.54151 1.79145,47.8498 0.10054,3.91743 -2.85487,6.84914 -6.62109,6.55448 -1.24406,-0.0974 -2.48854,-0.19444 -3.73353,-0.29102 -3.76909,-0.29241 -6.87089,-3.70367 -6.96505,-7.64796 -0.39171,-16.40853 -0.95072,-32.34361 -1.67697,-48.19082 -0.17442,-3.81142 2.69096,-6.53989 6.42448,-6.1532 z"
           id="rect4161-7-2-9"
           inkscape:original-d="m 450.92628,544.75996 3.77974,-0.002 c 3.8132,-0.002 6.88486,3.06576 6.88712,6.87896 l 0.0281,47.35116 c 0.002,3.8132 -3.06576,6.88486 -6.87896,6.88712 l -3.77974,0.002 c -3.8132,0.002 -6.88486,-3.06576 -6.88712,-6.87896 l -0.0281,-47.35116 c -0.002,-3.8132 3.06576,-6.88486 6.87896,-6.88712 z" />
        <path
           inkscape:connector-curvature="0"
           style="opacity:1;fill:#ffffff;fill-opacity:1;stroke:#ff6699;stroke-width:8.00000095;stroke-linecap:butt;stroke-linejoin:miter;stroke-miterlimit:4;stroke-dasharray:none;stroke-dashoffset:0;stroke-opacity:1"
           d="m -210.82909,450.25482 c 1.25214,0.0925 2.50366,0.18647 3.75467,0.28187 3.78435,0.28864 6.95404,3.64774 7.09964,7.52825 0.60821,16.20952 1.07039,32.33086 1.37993,48.94239 0.0739,3.98117 -2.93745,7.00439 -6.7479,6.78015 -1.25876,-0.0742 -2.51794,-0.14723 -3.77764,-0.21918 -3.81335,-0.21781 -6.93226,-3.59941 -7.00135,-7.5945 -0.24953,-14.43242 -0.61076,-28.53201 -1.07867,-42.72496 -0.0709,-2.15271 -0.14412,-4.29987 -0.21946,-6.44361 -0.085,-2.42278 1.01071,-4.46652 2.75651,-5.6022 1.0731,-0.69863 2.39174,-1.05468 3.83427,-0.94821 z"
           id="rect4161-7-2-9-6"
           inkscape:original-d="m 394.86524,548.83379 3.77975,-0.002 c 3.8132,-0.002 6.88485,3.06575 6.88711,6.87896 l 0.0281,47.35116 c 0.002,3.8132 -3.06575,6.88486 -6.87895,6.88712 l -3.77975,0.002 c -3.8132,0.002 -6.88484,-3.06576 -6.88711,-6.87896 l -0.0281,-47.35116 c -0.002,-3.81321 3.06575,-6.88486 6.87895,-6.88712 z" />
        <path
           inkscape:connector-curvature="0"
           style="opacity:1;fill:#ffffff;fill-opacity:1;stroke:#ff6699;stroke-width:8.00000095;stroke-linecap:butt;stroke-linejoin:miter;stroke-miterlimit:4;stroke-dasharray:none;stroke-dashoffset:0;stroke-opacity:1"
           d="m -265.012,445.30502 c 1.27014,0.0381 2.53969,0.0784 3.80877,0.12082 3.8399,0.12855 7.03664,3.42022 7.16444,7.3647 0.53556,16.53035 0.94712,32.69913 1.21613,49.46679 0.064,4.00525 -2.9903,7.13409 -6.84415,7.03618 -1.2732,-0.0324 -2.54677,-0.063 -3.82087,-0.0918 -3.85665,-0.0871 -7.00422,-3.36319 -7.06523,-7.36948 -0.25568,-16.7906 -0.65381,-32.95751 -1.17327,-49.57061 -0.12374,-3.96606 2.87057,-7.07153 6.71419,-6.95661 z"
           id="rect4161-7-2-9-6-8"
           inkscape:original-d="m 340.82087,546.84551 3.77974,-0.002 c 3.81321,-0.002 6.88486,3.06575 6.88712,6.87895 l 0.0281,47.35117 c 0.002,3.8132 -3.06575,6.88486 -6.87895,6.88712 l -3.77974,0.002 c -3.8132,0.002 -6.88485,-3.06576 -6.88711,-6.87896 l -0.0281,-47.35117 c -0.002,-3.8132 3.06575,-6.88485 6.87895,-6.88711 z" />
        <path
           inkscape:connector-curvature="0"
           style="opacity:1;fill:#ffffff;fill-opacity:1;stroke:#ff6699;stroke-width:8.00000095;stroke-linecap:butt;stroke-linejoin:miter;stroke-miterlimit:4;stroke-dasharray:none;stroke-dashoffset:0;stroke-opacity:1"
           d="m -282.53025,407.3716 c 0.32558,9.02293 -3.68229,16.37347 -8.98068,16.3182 -4.78695,-0.0499 -9.06346,-6.1928 -10.00635,-14.36848 -0.0859,-0.74679 -0.14209,-1.49904 -0.16823,-2.25137 -0.18317,-5.27276 1.1185,-10.17131 3.49719,-13.19565 0,0 0,0 0,0 1.57144,-1.9957 3.50921,-3.03984 5.53128,-2.99417 5.27857,0.11925 9.80141,7.4741 10.12679,16.49147 z"
           id="path4310"
           inkscape:original-d="m 324.7588,510.23845 a 16.162441,9.4701805 89.96603 0 1 -9.46059,16.16805 16.162441,9.4701805 89.96603 0 1 -9.47976,-16.15682 16.162441,9.4701805 89.96603 0 1 9.46059,-16.16805 16.162441,9.4701805 89.96603 0 1 9.47976,16.15682 z" />
        <path
           inkscape:connector-curvature="0"
           style="opacity:1;fill:#ffffff;fill-opacity:1;stroke:#ff6699;stroke-width:8.00000095;stroke-linecap:butt;stroke-linejoin:miter;stroke-miterlimit:4;stroke-dasharray:none;stroke-dashoffset:0;stroke-opacity:1"
           d="m -254.15888,436.35373 c 0.3322,9.13972 -3.6863,16.48283 -8.96369,16.32635 -5.27353,-0.15637 -9.79011,-7.76574 -10.11081,-16.97531 -0.32087,-9.21487 3.68099,-16.43839 8.94089,-16.22896 5.25467,0.20921 9.8016,7.74347 10.13361,16.87792 z"
           id="path4310-1"
           inkscape:original-d="m 351.92298,537.74908 a 16.162443,9.4701815 89.96603 0 1 -9.4606,16.16805 16.162443,9.4701815 89.96603 0 1 -9.47976,-16.15682 16.162443,9.4701815 89.96603 0 1 9.4606,-16.16805 16.162443,9.4701815 89.96603 0 1 9.47976,16.15682 z" />
        <path
           inkscape:connector-curvature="0"
           style="opacity:1;fill:#ffffff;fill-opacity:1;stroke:#ff6699;stroke-width:8.00000095;stroke-linecap:butt;stroke-linejoin:miter;stroke-miterlimit:4;stroke-dasharray:none;stroke-dashoffset:0;stroke-opacity:1"
           d="m -228.36044,408.30338 c 0.38829,8.76303 -3.51238,15.73401 -8.74208,15.39705 -5.22409,-0.3366 -9.75891,-7.8787 -10.11949,-16.76454 -0.36083,-8.89199 3.59312,-15.59436 8.78035,-15.16775 5.18021,0.42603 9.6932,7.77827 10.08122,16.53524 z"
           id="path4310-1-1"
           inkscape:original-d="m 378.9271,508.186 a 16.162445,9.4701824 89.96603 0 1 -9.4606,16.16807 16.162445,9.4701824 89.96603 0 1 -9.47976,-16.15684 16.162445,9.4701824 89.96603 0 1 9.46059,-16.16805 16.162445,9.4701824 89.96603 0 1 9.47977,16.15682 z" />
        <path
           inkscape:connector-curvature="0"
           style="opacity:1;fill:#ffffff;fill-opacity:1;stroke:#ff6699;stroke-width:8.00000095;stroke-linecap:butt;stroke-linejoin:miter;stroke-miterlimit:4;stroke-dasharray:none;stroke-dashoffset:0;stroke-opacity:1"
           d="m -199.94777,441.70434 c 0.38726,8.95198 -3.53632,16.01988 -8.74298,15.64377 -2.26835,-0.16385 -4.51091,-1.75387 -6.3216,-4.48035 0,0 -1e-5,0 -1e-5,0 -2.17816,-3.28169 -3.53521,-7.90815 -3.7256,-12.65193 -0.36364,-9.06103 3.52894,-15.90708 8.6987,-15.45259 0.28217,0.0248 0.56516,0.0715 0.8481,0.13991 4.8534,1.17081 8.8807,8.4173 9.24339,16.80119 z"
           id="path4310-1-1-1"
           inkscape:original-d="m 406.21974,539.48465 a 16.162447,9.4701834 89.96603 0 1 -9.4606,16.16806 16.162447,9.4701834 89.96603 0 1 -9.47977,-16.15683 16.162447,9.4701834 89.96603 0 1 9.46061,-16.16806 16.162447,9.4701834 89.96603 0 1 9.47976,16.15683 z" />
        <path
           inkscape:connector-curvature="0"
           style="opacity:1;fill:#ffffff;fill-opacity:1;stroke:#ff6699;stroke-width:8.00000095;stroke-linecap:butt;stroke-linejoin:miter;stroke-miterlimit:4;stroke-dasharray:none;stroke-dashoffset:0;stroke-opacity:1"
           d="m -175.12583,410.89114 c 0.50785,8.4183 -3.24012,15.00839 -8.38493,14.4649 -5.1404,-0.54301 -9.66314,-8.04504 -10.12566,-16.6197 -0.46284,-8.58056 3.30757,-14.77621 8.38211,-14.12248 5.06901,0.65301 9.62097,7.86474 10.12848,16.27728 z"
           id="path4310-1-1-1-7"
           inkscape:original-d="m 433.22095,505.12336 a 16.162449,9.4701843 89.96603 0 1 -9.46061,16.16806 16.162449,9.4701843 89.96603 0 1 -9.47976,-16.15683 16.162449,9.4701843 89.96603 0 1 9.4606,-16.16806 16.162449,9.4701843 89.96603 0 1 9.47977,16.15683 z" />
        <path
           inkscape:connector-curvature="0"
           style="opacity:1;fill:#ffffff;fill-opacity:1;stroke:#ff6699;stroke-width:8.00000095;stroke-linecap:butt;stroke-linejoin:miter;stroke-miterlimit:4;stroke-dasharray:none;stroke-dashoffset:0;stroke-opacity:1"
           d="m -144.11573,447.25254 c 0.4855,8.67897 -3.31806,15.47555 -8.45749,14.96944 -5.1377,-0.50595 -9.61503,-8.14937 -10.06657,-16.95967 -0.45182,-8.81574 3.28961,-15.2828 8.37616,-14.6832 5.08405,0.59931 9.66268,7.99959 10.1479,16.67343 z"
           id="path4310-1-1-1-7-6"
           inkscape:original-d="m 463.04081,539.45096 a 16.162451,9.4701853 89.96603 0 1 -9.46061,16.16806 16.162451,9.4701853 89.96603 0 1 -9.47976,-16.15683 16.162451,9.4701853 89.96603 0 1 9.4606,-16.16806 16.162451,9.4701853 89.96603 0 1 9.47977,16.15683 z" />
        <path
           inkscape:connector-curvature="0"
           style="opacity:1;fill:#ffffff;fill-opacity:1;stroke:#ff6699;stroke-width:8.00000095;stroke-linecap:butt;stroke-linejoin:miter;stroke-miterlimit:4;stroke-dasharray:none;stroke-dashoffset:0;stroke-opacity:1"
           d="m -116.66107,428.94021 c 0.6418,8.20974 -2.98733,14.61538 -8.07259,14.01142 -5.08331,-0.60372 -9.6231,-8.02062 -10.21681,-16.39332 -0.59409,-8.3782 2.97837,-14.32106 7.9869,-13.60372 5.00585,0.71695 9.66111,7.78106 10.3025,15.98562 z"
           id="path4310-1-1-1-7-6-8"
           inkscape:original-d="m 492.82671,516.45227 a 16.162453,9.4701862 89.96603 0 1 -9.46061,16.16808 16.162453,9.4701862 89.96603 0 1 -9.47976,-16.15685 16.162453,9.4701862 89.96603 0 1 9.4606,-16.16806 16.162453,9.4701862 89.96603 0 1 9.47977,16.15683 z" />
      </g>
      <text
         xml:space="preserve"
         style="font-style:normal;font-weight:normal;font-size:27.44361115px;line-height:82.99999833%;font-family:sans-serif;letter-spacing:2.3532896px;word-spacing:0px;fill:#ff6699;fill-opacity:1;stroke:#ffffff;stroke-width:5.48872185;stroke-linecap:butt;stroke-linejoin:miter;stroke-miterlimit:4;stroke-dasharray:none;stroke-opacity:1"
         x="4.3355956"
         y="548.73077"
         id="text4878"
         sodipodi:linespacing="82.999998%"><tspan
           sodipodi:role="line"
           id="tspan4880"
           x="47.902767"
           y="548.73077"
           style="font-style:normal;font-variant:normal;font-weight:normal;font-stretch:normal;font-size:198.96617126px;line-height:82.99999833%;font-family:Bangers;-inkscape-font-specification:'Bangers, Normal';text-align:end;letter-spacing:2.3532896px;writing-mode:lr-tb;text-anchor:end;fill:#ff6699;fill-opacity:1;stroke:#ffffff;stroke-width:5.48872185;stroke-miterlimit:4;stroke-dasharray:none;stroke-opacity:1"
           dx="0">BIRTHDAY </tspan><tspan
           sodipodi:role="line"
           x="47.902733"
           y="713.87268"
           id="tspan4882"
           style="font-style:normal;font-variant:normal;font-weight:normal;font-stretch:normal;font-size:198.96617126px;line-height:82.99999833%;font-family:Bangers;-inkscape-font-specification:'Bangers, Normal';text-align:end;letter-spacing:2.3532896px;writing-mode:lr-tb;text-anchor:end;fill:#ff6699;fill-opacity:1;stroke:#ffffff;stroke-width:5.48872185;stroke-miterlimit:4;stroke-dasharray:none;stroke-opacity:1">BOUNTY </tspan></text>
    </g>
  </g>
</svg>
