<?xml version="1.0" encoding="UTF-8" standalone="no"?>
<!-- Created with Inkscape (http://www.inkscape.org/) -->

<svg
   xmlns:dc="http://purl.org/dc/elements/1.1/"
   xmlns:cc="http://creativecommons.org/ns#"
   xmlns:rdf="http://www.w3.org/1999/02/22-rdf-syntax-ns#"
   xmlns:svg="http://www.w3.org/2000/svg"
   xmlns="http://www.w3.org/2000/svg"
   xmlns:sodipodi="http://sodipodi.sourceforge.net/DTD/sodipodi-0.dtd"
   xmlns:inkscape="http://www.inkscape.org/namespaces/inkscape"
   width="67.73333mm"
   height="50.799999mm"
   viewBox="0 0 239.99999 180"
   id="svg2"
   version="1.1"
   inkscape:version="0.91 r13725"
   sodipodi:docname="flag.svg">
  <defs
     id="defs4" />
  <sodipodi:namedview
     id="base"
     pagecolor="#ffffff"
     bordercolor="#666666"
     borderopacity="1.0"
     inkscape:pageopacity="0"
     inkscape:pageshadow="2"
     inkscape:zoom="0.98994949"
     inkscape:cx="-74.670572"
     inkscape:cy="17.101822"
     inkscape:document-units="px"
     inkscape:current-layer="layer1"
     showgrid="false"
     fit-margin-top="0"
     fit-margin-left="0"
     fit-margin-right="0"
     fit-margin-bottom="0"
     inkscape:window-width="1920"
     inkscape:window-height="1017"
     inkscape:window-x="1358"
     inkscape:window-y="-8"
     inkscape:window-maximized="1" />
  <metadata
     id="metadata7">
    <rdf:RDF>
      <cc:Work
         rdf:about="">
        <dc:format>image/svg+xml</dc:format>
        <dc:type
           rdf:resource="http://purl.org/dc/dcmitype/StillImage" />
        <dc:title />
      </cc:Work>
    </rdf:RDF>
  </metadata>
  <g
     inkscape:label="Layer 1"
     inkscape:groupmode="layer"
     id="layer1"
     transform="translate(-195.9426,-105.28934)">
    <path
       style="opacity:1;fill:#ff6699;fill-opacity:1;stroke:none;stroke-width:10;stroke-linecap:butt;stroke-linejoin:miter;stroke-miterlimit:4;stroke-dasharray:none;stroke-dashoffset:0;stroke-opacity:1"
       d="m 195.9426,116.19139 c 0,0 32.87856,-9.60456 49.83902,-10.60057 42.85875,-2.51688 85.31317,11.5432 128.24568,11.86029 20.70084,0.15289 61.9153,-4.80471 61.9153,-4.80471 0,0 -27.97435,77.65961 -58.73266,102.34277 -32.11058,25.76835 -80.11311,21.04516 -118.09238,37.12981 -21.37807,9.05385 -61.1986,33.17036 -61.1986,33.17036 z"
       id="rect4136"
       inkscape:connector-curvature="0"
       sodipodi:nodetypes="caacaacc"
       inkscape:export-xdpi="90"
       inkscape:export-ydpi="90" />
    <g
       transform="matrix(0.92230404,0,0,0.91550341,-465.01828,-309.38496)"
       id="layer1-0"
       inkscape:label="Layer 1"
       inkscape:export-xdpi="90"
       inkscape:export-ydpi="90">
      <g
         transform="matrix(0.37113998,-0.09944666,0.09944666,0.37113998,616.83845,344.77784)"
         id="g5072">
        <path
           style="fill:#ffffff;fill-opacity:1;fill-rule:evenodd;stroke:#ff6699;stroke-width:7.09891939;stroke-linecap:butt;stroke-linejoin:miter;stroke-miterlimit:4;stroke-dasharray:none;stroke-opacity:1"
           d="m 572.02767,544.6013 c 0,0 4.81926,-23.11278 13.53537,-25.67003 8.71611,-2.55722 21.10848,5.27687 23.44396,14.82059 2.33549,9.54373 -13.53537,25.67001 -13.53537,25.67001 0,0 21.10846,5.27687 23.44394,14.82057 2.33545,9.54365 -4.81921,23.11258 -13.53525,25.66978 -8.7161,2.55725 -23.44396,-14.82057 -23.44396,-14.82057 L 217.6526,691.96949 c 0,0 -4.81911,23.11242 -13.53526,25.66975 -8.71616,2.55728 -21.10851,-5.27679 -23.44396,-14.82058 -2.33543,-9.54379 13.53526,-25.66976 13.53526,-25.66976 0,0 -21.1084,-5.277 -23.44395,-14.82055 -2.33547,-9.54382 4.81934,-23.11288 13.53547,-25.67021 8.71603,-2.55706 23.44395,14.82059 23.44395,14.82059 z"
           id="path4188"
           inkscape:connector-curvature="0"
           sodipodi:nodetypes="ccccccccccccccc" />
        <path
           style="fill:#ffffff;fill-opacity:1;fill-rule:evenodd;stroke:#ff6699;stroke-width:7.09891939;stroke-linecap:butt;stroke-linejoin:miter;stroke-miterlimit:4;stroke-dasharray:none;stroke-opacity:1"
           d="m 573.32006,692.05205 c 0,0 4.81926,23.11277 13.53538,25.67002 8.7161,2.55723 21.10848,-5.27687 23.44394,-14.82058 2.3355,-9.54374 -13.53536,-25.67003 -13.53536,-25.67003 0,0 21.10846,-5.27686 23.44394,-14.82055 2.33546,-9.54367 -4.81921,-23.1126 -13.53524,-25.6698 -8.71612,-2.55724 -23.44397,14.82057 -23.44397,14.82057 L 218.94497,544.68384 c 0,0 -4.8191,-23.11242 -13.53526,-25.66974 -8.71615,-2.55729 -21.1085,5.2768 -23.44396,14.82057 -2.33543,9.54381 13.53526,25.66976 13.53526,25.66976 0,0 -21.1084,5.277 -23.44395,14.82056 -2.33546,9.54381 4.81934,23.11289 13.53547,25.6702 8.71602,2.55707 23.44395,-14.82059 23.44395,-14.82059 z"
           id="path4188-1"
           inkscape:connector-curvature="0"
           sodipodi:nodetypes="ccccccccccccccc" />
      </g>
      <path
         sodipodi:nodetypes="ccssc"
         inkscape:connector-curvature="0"
         id="rect4158-6"
         d="m 773.16064,539.43535 100.13763,-26.89547 c 0,0 8.80891,16.45919 2.98159,23.82982 -18.88855,23.891 -65.17774,36.32356 -93.49452,25.11121 -8.73602,-3.45914 -9.6247,-22.04557 -9.6247,-22.04557 z"
         style="opacity:1;fill:#ffffff;fill-opacity:1;stroke:#ff6699;stroke-width:3.07385945;stroke-linecap:butt;stroke-linejoin:miter;stroke-miterlimit:4;stroke-dasharray:none;stroke-dashoffset:0;stroke-opacity:1" />
      <path
         sodipodi:nodetypes="ccssc"
         inkscape:connector-curvature="0"
         id="rect4158"
         d="m 769.23631,526.32358 100.46244,-26.98271 c 0,0 7.88709,12.97408 1.74777,19.27738 -19.89983,20.43135 -66.33915,32.90425 -93.79776,25.19266 -8.47129,-2.37911 -8.41246,-17.48734 -8.41246,-17.48734 z"
         style="opacity:1;fill:#ffffff;fill-opacity:1;stroke:#ff6699;stroke-width:3.07385945;stroke-linecap:butt;stroke-linejoin:miter;stroke-miterlimit:4;stroke-dasharray:none;stroke-dashoffset:0;stroke-opacity:1" />
      <ellipse
         transform="matrix(0.9657722,-0.25939169,0.25939169,0.9657722,0,0)"
         rx="51.459698"
         ry="14.820392"
         cy="704.42798"
         cx="658.25775"
         id="path4156"
         style="opacity:1;fill:#ffffff;fill-opacity:1;stroke:#ff6699;stroke-width:3.07385945;stroke-linecap:butt;stroke-linejoin:miter;stroke-miterlimit:4;stroke-dasharray:none;stroke-dashoffset:0;stroke-opacity:1" />
      <rect
         transform="matrix(0.9657722,-0.25939169,0.25939169,0.9657722,0,0)"
         ry="2.6446843"
         y="680.19879"
         x="622.63885"
         height="23.483221"
         width="6.7416663"
         id="rect4161"
         style="opacity:1;fill:#ffffff;fill-opacity:1;stroke:#ff6699;stroke-width:3.07385945;stroke-linecap:butt;stroke-linejoin:miter;stroke-miterlimit:4;stroke-dasharray:none;stroke-dashoffset:0;stroke-opacity:1" />
      <rect
         transform="matrix(0.9657722,-0.25939169,0.25939169,0.9657722,0,0)"
         ry="2.6446846"
         y="675.15472"
         x="643.69122"
         height="23.483221"
         width="6.7416668"
         id="rect4161-7"
         style="opacity:1;fill:#ffffff;fill-opacity:1;stroke:#ff6699;stroke-width:3.07385945;stroke-linecap:butt;stroke-linejoin:miter;stroke-miterlimit:4;stroke-dasharray:none;stroke-dashoffset:0;stroke-opacity:1" />
      <rect
         transform="matrix(0.9657722,-0.25939169,0.25939169,0.9657722,0,0)"
         ry="2.6446848"
         y="673.92041"
         x="664.51624"
         height="23.483223"
         width="6.7416677"
         id="rect4161-7-8"
         style="opacity:1;fill:#ffffff;fill-opacity:1;stroke:#ff6699;stroke-width:3.07385945;stroke-linecap:butt;stroke-linejoin:miter;stroke-miterlimit:4;stroke-dasharray:none;stroke-dashoffset:0;stroke-opacity:1" />
      <rect
         transform="matrix(0.9657722,-0.25939169,0.25939169,0.9657722,0,0)"
         ry="2.6446848"
         y="679.25201"
         x="687.44849"
         height="23.483223"
         width="6.7416677"
         id="rect4161-7-2"
         style="opacity:1;fill:#ffffff;fill-opacity:1;stroke:#ff6699;stroke-width:3.07385945;stroke-linecap:butt;stroke-linejoin:miter;stroke-miterlimit:4;stroke-dasharray:none;stroke-dashoffset:0;stroke-opacity:1" />
      <rect
         transform="matrix(0.9657722,-0.25939169,0.25939169,0.9657722,0,0)"
         ry="2.644685"
         y="688.12463"
         x="675.69525"
         height="23.483225"
         width="6.7416682"
         id="rect4161-7-2-9"
         style="opacity:1;fill:#ffffff;fill-opacity:1;stroke:#ff6699;stroke-width:3.07385945;stroke-linecap:butt;stroke-linejoin:miter;stroke-miterlimit:4;stroke-dasharray:none;stroke-dashoffset:0;stroke-opacity:1" />
      <rect
         transform="matrix(0.9657722,-0.25939169,0.25939169,0.9657722,0,0)"
         ry="2.644685"
         y="689.67712"
         x="654.15387"
         height="23.483227"
         width="6.7416692"
         id="rect4161-7-2-9-6"
         style="opacity:1;fill:#ffffff;fill-opacity:1;stroke:#ff6699;stroke-width:3.07385945;stroke-linecap:butt;stroke-linejoin:miter;stroke-miterlimit:4;stroke-dasharray:none;stroke-dashoffset:0;stroke-opacity:1" />
      <rect
         transform="matrix(0.9657722,-0.25939169,0.25939169,0.9657722,0,0)"
         ry="2.6446853"
         y="688.90082"
         x="633.38873"
         height="23.483227"
         width="6.7416697"
         id="rect4161-7-2-9-6-8"
         style="opacity:1;fill:#ffffff;fill-opacity:1;stroke:#ff6699;stroke-width:3.07385945;stroke-linecap:butt;stroke-linejoin:miter;stroke-miterlimit:4;stroke-dasharray:none;stroke-dashoffset:0;stroke-opacity:1" />
      <ellipse
         transform="matrix(0.9657722,-0.25939169,0.25939169,0.9657722,0,0)"
         ry="6.2101331"
         rx="3.6387501"
         cy="674.83154"
         cx="626.23145"
         id="path4310"
         style="opacity:1;fill:#ffffff;fill-opacity:1;stroke:#ff6699;stroke-width:3.07385945;stroke-linecap:butt;stroke-linejoin:miter;stroke-miterlimit:4;stroke-dasharray:none;stroke-dashoffset:0;stroke-opacity:1" />
      <ellipse
         transform="matrix(0.9657722,-0.25939169,0.25939169,0.9657722,0,0)"
         ry="6.210134"
         rx="3.6387506"
         cy="685.4082"
         cx="636.66254"
         id="path4310-1"
         style="opacity:1;fill:#ffffff;fill-opacity:1;stroke:#ff6699;stroke-width:3.07385945;stroke-linecap:butt;stroke-linejoin:miter;stroke-miterlimit:4;stroke-dasharray:none;stroke-dashoffset:0;stroke-opacity:1" />
      <ellipse
         transform="matrix(0.9657722,-0.25939169,0.25939169,0.9657722,0,0)"
         ry="6.2101345"
         rx="3.638751"
         cy="674.0553"
         cx="647.0451"
         id="path4310-1-1"
         style="opacity:1;fill:#ffffff;fill-opacity:1;stroke:#ff6699;stroke-width:3.07385945;stroke-linecap:butt;stroke-linejoin:miter;stroke-miterlimit:4;stroke-dasharray:none;stroke-dashoffset:0;stroke-opacity:1" />
      <ellipse
         transform="matrix(0.9657722,-0.25939169,0.25939169,0.9657722,0,0)"
         ry="6.2101355"
         rx="3.6387513"
         cy="686.08746"
         cx="657.52466"
         id="path4310-1-1-1"
         style="opacity:1;fill:#ffffff;fill-opacity:1;stroke:#ff6699;stroke-width:3.07385945;stroke-linecap:butt;stroke-linejoin:miter;stroke-miterlimit:4;stroke-dasharray:none;stroke-dashoffset:0;stroke-opacity:1" />
      <ellipse
         transform="matrix(0.9657722,-0.25939169,0.25939169,0.9657722,0,0)"
         ry="6.2101359"
         rx="3.6387517"
         cy="672.89093"
         cx="667.90729"
         id="path4310-1-1-1-7"
         style="opacity:1;fill:#ffffff;fill-opacity:1;stroke:#ff6699;stroke-width:3.07385945;stroke-linecap:butt;stroke-linejoin:miter;stroke-miterlimit:4;stroke-dasharray:none;stroke-dashoffset:0;stroke-opacity:1" />
      <ellipse
         transform="matrix(0.9657722,-0.25939169,0.25939169,0.9657722,0,0)"
         ry="6.2101369"
         rx="3.638752"
         cy="686.08746"
         cx="679.35718"
         id="path4310-1-1-1-7-6"
         style="opacity:1;fill:#ffffff;fill-opacity:1;stroke:#ff6699;stroke-width:3.07385945;stroke-linecap:butt;stroke-linejoin:miter;stroke-miterlimit:4;stroke-dasharray:none;stroke-dashoffset:0;stroke-opacity:1" />
      <ellipse
         transform="matrix(0.9657722,-0.25939169,0.25939169,0.9657722,0,0)"
         ry="6.2101374"
         rx="3.638752"
         cy="677.25745"
         cx="690.80713"
         id="path4310-1-1-1-7-6-8"
         style="opacity:1;fill:#ffffff;fill-opacity:1;stroke:#ff6699;stroke-width:3.07385945;stroke-linecap:butt;stroke-linejoin:miter;stroke-miterlimit:4;stroke-dasharray:none;stroke-dashoffset:0;stroke-opacity:1" />
    </g>
  </g>
</svg>
