<?xml version="1.0" encoding="UTF-8" standalone="no"?>
<!-- Created with Inkscape (http://www.inkscape.org/) -->

<svg
   xmlns:dc="http://purl.org/dc/elements/1.1/"
   xmlns:cc="http://creativecommons.org/ns#"
   xmlns:rdf="http://www.w3.org/1999/02/22-rdf-syntax-ns#"
   xmlns:svg="http://www.w3.org/2000/svg"
   xmlns="http://www.w3.org/2000/svg"
   xmlns:sodipodi="http://sodipodi.sourceforge.net/DTD/sodipodi-0.dtd"
   xmlns:inkscape="http://www.inkscape.org/namespaces/inkscape"
   width="800"
   height="500"
   viewBox="0 0 800.00006 500.00002"
   id="svg2"
   version="1.1"
   inkscape:version="0.91 r13725"
   sodipodi:docname="flag.svg">
  <defs
     id="defs4">
    <inkscape:path-effect
       effect="envelope"
       id="path-effect5388"
       is_visible="true"
       yy="true"
       xx="true"
       bendpath1="m 50.000004,400.34161 c 190.045576,-32.89374 357.647126,48.461 536.469416,0"
       bendpath2="m 586.46942,400.34161 0,322.26542"
       bendpath3="m 50.000004,722.60703 c 174.328996,-85.72942 362.389526,50.22393 536.469416,0"
       bendpath4="m 50.000004,400.34161 c 11.254703,73.6577 15.536345,168.23458 0,322.26542"
       bendpath1-nodetypes="cc"
       bendpath3-nodetypes="cc"
       bendpath4-nodetypes="cc" />
    <inkscape:path-effect
       effect="envelope"
       id="path-effect5314"
       is_visible="true"
       yy="true"
       xx="true"
       bendpath1="m 50.000004,402.36191 700.000056,0"
       bendpath2="m 750.00006,402.36191 0,500.00003"
       bendpath3="m 50.000004,902.36194 700.000056,0"
       bendpath4="m 50.000004,402.36191 0,500.00003" />
    <inkscape:path-effect
       effect="envelope"
       id="path-effect5217"
       is_visible="true"
       yy="true"
       xx="true"
       bendpath1="m 50.000004,402.36191 700.000056,0"
       bendpath2="m 750.00006,402.36191 0,500.00003"
       bendpath3="m 50.000004,902.36194 700.000056,0"
       bendpath4="m 50.000004,402.36191 0,500.00003" />
  </defs>
  <sodipodi:namedview
     id="base"
     pagecolor="#ffffff"
     bordercolor="#666666"
     borderopacity="1.0"
     inkscape:pageopacity="0.0"
     inkscape:pageshadow="2"
     inkscape:zoom="0.7"
     inkscape:cx="203.18966"
     inkscape:cy="121.41797"
     inkscape:document-units="px"
     inkscape:current-layer="g5364"
     showgrid="false"
     showguides="true"
     units="px"
     inkscape:window-width="1920"
     inkscape:window-height="1017"
     inkscape:window-x="1358"
     inkscape:window-y="-8"
     inkscape:window-maximized="1"
     inkscape:guide-bbox="true"
     fit-margin-left="1000">
    <sodipodi:guide
       position="400.00003,400.02042"
       orientation="0,1"
       id="guide4150" />
    <sodipodi:guide
       position="400.00003,651.4286"
       orientation="1,0"
       id="guide5078" />
  </sodipodi:namedview>
  <metadata
     id="metadata7">
    <rdf:RDF>
      <cc:Work
         rdf:about="">
        <dc:format>image/svg+xml</dc:format>
        <dc:type
           rdf:resource="http://purl.org/dc/dcmitype/StillImage" />
        <dc:title></dc:title>
      </cc:Work>
    </rdf:RDF>
  </metadata>
  <g
     inkscape:label="Layer 1"
     inkscape:groupmode="layer"
     id="layer1"
     transform="translate(0,-552.36194)">
    <g
       id="g5364"
       inkscape:path-effect="#path-effect5388"
       transform="matrix(1.4575344,0,0,1.4575344,-63.201289,-9.0673012)">
      <path
         sodipodi:nodetypes="ccscc"
         id="rect4468"
         d="m 49.97395,399.94692 c 23.00542,-3.74844 45.314814,-6.41787 68.60871,-7.80456 22.31117,-1.32852 44.25449,-1.3972 66.64281,-0.36815 1.15695,0.0532 2.31372,0.10923 3.47041,0.16812 0,0 2e-5,0 2e-5,0 21.33264,1.08589 42.23343,3.0818 63.48506,5.49075 21.80281,2.47157 45.97552,5.63434 67.70901,8.14636 0.8442,0.0976 1.68832,0.19464 2.53247,0.29116 0,0 2e-5,0 2e-5,0 22.0033,2.51529 43.35872,4.57112 65.39918,5.71274 0,0 3e-5,0 3e-5,0 22.20997,1.15053 43.60092,1.29114 65.85494,0.34178 0.46505,-0.0198 0.93011,-0.0402 1.39519,-0.061 22.54816,-1.00874 43.5305,-3.0601 65.96502,-5.5345 21.08645,-2.32572 44.43697,-5.16987 65.37234,-6.37259 0,0 0.0744,-0.0929 -0.12419,0.38521 -15.52446,37.37352 -37.55513,70.6001 -63.5677,101.47114 -9.66224,11.45313 -20.03531,22.67972 -30.88515,33.34787 -10.47588,10.26392 -21.46309,20.0837 -32.92356,29.29557 0,0 -3e-5,3e-5 -3e-5,3e-5 -0.45528,0.3655 -0.91129,0.72998 -1.36802,1.09342 -20.75796,16.57555 -42.29975,30.64743 -65.34332,42.57044 -21.89122,11.31975 -43.86771,20.02837 -66.62245,27.35339 -0.86851,0.28117 -1.73721,0.56003 -2.6061,0.83665 0,0 -4e-5,10e-6 -4e-5,10e-6 -23.43547,7.45394 -47.21273,13.34318 -70.1357,18.88956 -24.09301,5.81509 -43.97107,10.59766 -65.86332,16.782 -1.1952,0.33848 -2.38502,0.67783 -3.57014,1.01831 -26.04839,7.47243 -47.63751,15.08638 -67.36746,22.74283 -13.18718,5.12211 -44.784226,18.22775 -48.509081,19.72896 -11.311686,4.55888 -17.603732,6.7669 -17.603732,6.7669 1.015583,-0.46748 1.018389,-6.756 1.477813,-17.4953 0.531737,-12.42963 1.399509,-24.28857 3.510709,-44.25181 1.887029,-17.8435 4.543925,-39.87797 6.064438,-61.65779 1.609782,-23.0585 1.901867,-44.39861 0.598505,-67.36427 -1.834278,-32.32413 -7.723049,-69.44618 -9.921018,-91.24165 -1.263513,-12.52925 -1.714634,-21.69676 -1.807453,-29.19718 -0.08738,-7.06059 0.131789,-11.08442 0.131789,-11.08442 z"
         style="opacity:1;fill:#ff6699;fill-opacity:1;stroke:#ffffff;stroke-width:8.23308277;stroke-linecap:butt;stroke-linejoin:round;stroke-miterlimit:4;stroke-dasharray:none;stroke-dashoffset:0;stroke-opacity:1"
         inkscape:connector-curvature="0"
         inkscape:original-d="m 50.061262,394.05486 536.381998,0 c 0,0 0.0744,-0.0885 -0.12232,0.37755 -106.1387,251.48174 -536.259678,321.88777 -536.259678,321.88777 7.462919,-1.99968 0,-322.26532 0,-322.26532 z" />
      <g
         transform="matrix(0.66999859,-0.16640174,0.16672092,0.67128372,-101.31346,155.93198)"
         id="g5240">
        <g
           id="g5072"
           transform="translate(2.857143,37.142859)">
          <path
             sodipodi:nodetypes="ccccccccccccccc"
             inkscape:connector-curvature="0"
             id="path4188"
             d="m 573.65808,559.09647 c 0,0 0.87983,-5.49175 2.74198,-11.09513 1.86977,-5.62631 4.70171,-11.30224 8.83782,-12.15486 0.92124,-0.1899 1.89616,-0.25785 2.90535,-0.21731 0,0 0,0 0,0 8.03222,0.32046 18.36972,7.49387 20.92955,15.44679 2.86475,8.90021 -11.80746,23.69538 -11.80746,23.69538 0,0 20.93589,6.06248 23.53364,15.27862 2.6155,9.27921 -3.9918,22.61275 -12.54227,24.95626 -8.4677,2.32085 -23.32627,-15.6267 -23.32627,-15.6267 -3.47039,0.88566 -6.94293,1.76742 -10.41869,2.64596 -34.23024,8.6434 -68.48849,16.87305 -103.26362,25.18906 0,0 0,0 0,0 -1.34563,0.32403 -2.69185,0.64815 -4.03868,0.97237 -5.09477,1.22551 -10.19456,2.45201 -15.30862,3.68285 -31.11726,7.42218 -62.06496,14.85526 -93.84576,22.7987 0,0 -10e-6,0 -10e-6,0 -34.65563,8.64009 -69.0481,17.68575 -104.43357,27.69599 0,0 -2e-5,10e-6 -2e-5,10e-6 -1.9142,0.54378 -3.82919,1.08933 -5.74509,1.63674 -9.57816,2.7286 -19.15588,5.51789 -28.75663,8.37407 0,0 -1.39573,5.4537 -3.91767,11.1392 -2.53119,5.70637 -6.16698,11.5954 -10.71517,12.90853 -9.09841,2.62678 -21.7096,-3.80527 -23.7604,-12.31121 -2.04492,-8.4816 14.77159,-24.59956 14.77159,-24.59956 0,0 -21.31602,-3.76879 -23.23039,-12.59201 -1.92333,-8.86524 5.80289,-22.67444 14.58902,-25.77438 8.77415,-3.09549 23.25339,13.00309 23.25339,13.00309 16.92013,-5.6123 33.67065,-11.01559 50.59764,-16.25975 1.89827,-0.58975 3.79575,-1.17738 5.69285,-1.76302 0,0 10e-6,0 10e-6,0 35.23885,-10.83571 69.06469,-20.42975 103.63946,-29.39993 0,0 2e-5,-10e-6 2e-5,-10e-6 0.58285,-0.15158 1.16558,-0.30294 1.74821,-0.45407 36.37806,-9.51295 71.09772,-17.83865 106.43144,-25.92017 0,0 2e-5,0 2e-5,0 1.33093,-0.30466 2.66109,-0.60863 3.99063,-0.91196 0,0 2e-5,-10e-6 2e-5,-10e-6 32.19084,-7.29184 59.79286,-13.27677 91.44768,-20.34354 z"
             style="fill:#ffffff;fill-opacity:1;fill-rule:evenodd;stroke:#ff6699;stroke-width:7.09891939;stroke-linecap:butt;stroke-linejoin:miter;stroke-miterlimit:4;stroke-dasharray:none;stroke-opacity:1"
             inkscape:original-d="m 572.02767,544.6013 c 0,0 4.81926,-23.11278 13.53537,-25.67003 8.71611,-2.55722 21.10848,5.27687 23.44396,14.82059 2.33549,9.54373 -13.53537,25.67001 -13.53537,25.67001 0,0 21.10846,5.27687 23.44394,14.82057 2.33545,9.54365 -4.81921,23.11258 -13.53525,25.66978 -8.7161,2.55725 -23.44396,-14.82057 -23.44396,-14.82057 L 217.6526,691.96949 c 0,0 -4.81911,23.11242 -13.53526,25.66975 -8.71616,2.55728 -21.10851,-5.27679 -23.44396,-14.82058 -2.33543,-9.54379 13.53526,-25.66976 13.53526,-25.66976 0,0 -21.1084,-5.277 -23.44395,-14.82055 -2.33547,-9.54382 4.81934,-23.11288 13.53547,-25.67021 8.71603,-2.55706 23.44395,14.82059 23.44395,14.82059 z" />
          <path
             sodipodi:nodetypes="ccccccccccccccc"
             inkscape:connector-curvature="0"
             id="path4188-1"
             d="m 576.63995,708.7094 c 0,0 4.35641,24.12678 12.86288,26.8801 8.54174,2.76472 20.88843,-5.34453 23.35491,-15.24512 2.44545,-9.81603 -12.93804,-26.58003 -12.93804,-26.58003 0,0 13.84328,-3.50879 20.25079,-10.17038 0,0 0,0 0,0 1.4428,-1.50565 2.50504,-3.16577 2.94147,-4.97069 2.37281,-9.81297 -4.62728,-23.63217 -13.20852,-26.36304 -8.53351,-2.7157 -23.06972,14.79411 -23.06972,14.79411 -8.4787,-2.81355 -16.93291,-5.69205 -25.42774,-8.64615 -30.25339,-10.53953 -59.27273,-21.50969 -89.69825,-33.12271 0,0 -2e-5,-10e-6 -2e-5,-10e-6 -1.16308,-0.44153 -2.32634,-0.88322 -3.49004,-1.32512 -31.40921,-11.94616 -62.02148,-23.5673 -94.01179,-34.78446 -29.94021,-10.52083 -59.03642,-19.77844 -89.35455,-28.20674 0,0 -2e-5,-10e-6 -2e-5,-10e-6 -1.62929,-0.45193 -3.25851,-0.90074 -4.88801,-1.34657 -19.50148,-5.33956 -38.51979,-10.0024 -57.77832,-14.36833 0,0 -5.3177,-23.70535 -14.1673,-25.60405 -6.56038,-1.40751 -14.86211,3.48321 -19.48125,10.25673 -1.56057,2.2874 -2.7032,4.79072 -3.22136,7.33957 -0.37747,1.85681 -0.1505,3.88404 0.46958,5.95495 0,0 0,0 0,0 2.73935,9.17146 13.26088,19.34046 13.26088,19.34046 0,0 -2.38941,0.83098 -5.62739,2.32243 -4.6486,2.13317 -10.98541,5.59741 -14.65378,9.88788 0,0 0,0 0,0 -1.337,1.56324 -2.31722,3.23428 -2.72803,4.98598 -0.54693,2.33227 -0.58769,4.84359 -0.22072,7.3392 1.18877,8.11116 6.6691,16.07438 13.25422,17.52383 8.67535,1.9093 23.50847,-16.8049 23.50847,-16.8049 19.11618,4.33953 37.92692,8.88592 57.36604,14.11842 1.62546,0.4372 3.25081,0.87725 4.87647,1.32032 30.30517,8.27838 59.28731,17.3183 89.2714,27.71599 0,0 2e-5,0 2e-5,0 32.03915,11.08621 62.52573,22.57169 93.96126,34.50734 0,0 2e-5,10e-6 2e-5,10e-6 1.16253,0.44069 2.3247,0.8813 3.48656,1.32179 0,0 2e-5,10e-6 2e-5,10e-6 30.37148,11.57752 59.38949,22.59595 89.56517,33.18228 8.53028,2.9873 17.02054,5.90011 25.53469,8.74691 z"
             style="fill:#ffffff;fill-opacity:1;fill-rule:evenodd;stroke:#ff6699;stroke-width:7.09891939;stroke-linecap:butt;stroke-linejoin:miter;stroke-miterlimit:4;stroke-dasharray:none;stroke-opacity:1"
             inkscape:original-d="m 573.32006,692.05205 c 0,0 4.81926,23.11277 13.53538,25.67002 8.7161,2.55723 21.10848,-5.27687 23.44394,-14.82058 2.3355,-9.54374 -13.53536,-25.67003 -13.53536,-25.67003 0,0 21.10846,-5.27686 23.44394,-14.82055 2.33546,-9.54367 -4.81921,-23.1126 -13.53524,-25.6698 -8.71612,-2.55724 -23.44397,14.82057 -23.44397,14.82057 L 218.94497,544.68384 c 0,0 -4.8191,-23.11242 -13.53526,-25.66974 -8.71615,-2.55729 -21.1085,5.2768 -23.44396,14.82057 -2.33543,9.54381 13.53526,25.66976 13.53526,25.66976 0,0 -21.1084,5.277 -23.44395,14.82056 -2.33546,9.54381 4.81934,23.11289 13.53547,25.6702 8.71602,2.55707 23.44395,-14.82059 23.44395,-14.82059 z" />
        </g>
        <path
           style="opacity:1;fill:#ffffff;fill-opacity:1;stroke:#ff6699;stroke-width:8.00000095;stroke-linecap:butt;stroke-linejoin:miter;stroke-miterlimit:4;stroke-dasharray:none;stroke-dashoffset:0;stroke-opacity:1"
           d="m 268.81419,631.79634 c 1.93747,-0.0637 3.87502,-0.12279 5.81327,-0.17718 1.74484,-0.05 3.48948,-0.0969 5.23437,-0.14077 17.56516,-0.42486 34.89633,-0.49649 52.40875,-0.22643 14.54174,0.20947 28.91802,0.64939 43.33104,1.28568 0,0 10e-6,0 10e-6,0 34.23489,1.4876 67.10194,3.84356 100.67052,6.30555 0,0 2e-5,0 2e-5,0 1.23574,0.0902 2.49911,0.18237 3.73485,0.27253 0,0 10e-6,0 10e-6,0 19.7495,1.47747 39.07581,2.91005 58.7345,4.16253 0,0 7.76916,33.0203 -0.45564,53.04567 -1.77938,4.32372 -4.30084,8.00567 -7.78961,10.53795 -19.90992,14.45137 -45.53296,23.31869 -73.73628,26.9064 -1.31313,0.16931 -2.6313,0.3272 -3.95422,0.47376 -32.57926,3.60087 -68.28264,0.30204 -101.04589,-7.97338 -27.83671,-7.05146 -54.25864,-17.74004 -73.99749,-31.97696 -5.071,-3.65753 -8.10433,-9.40506 -9.83103,-16.03373 0,0 0,0 0,0 -1.04726,-4.02877 -1.61084,-8.38039 -1.85237,-12.75762 -0.92308,-16.60878 2.73519,-33.704 2.73519,-33.704 z"
           id="rect4158-6"
           inkscape:connector-curvature="0"
           sodipodi:nodetypes="ccssc"
           inkscape:original-d="m 264.71577,631.79309 269.85381,-0.16 c 0,0 11.05793,47.31061 -8.55629,61.91442 -63.57712,47.33648 -188.31855,47.41044 -251.95175,0.14938 -19.63152,-14.58054 -9.34577,-61.9038 -9.34577,-61.9038 z" />
        <path
           style="opacity:1;fill:#ffffff;fill-opacity:1;stroke:#ff6699;stroke-width:8.00000095;stroke-linecap:butt;stroke-linejoin:miter;stroke-miterlimit:4;stroke-dasharray:none;stroke-dashoffset:0;stroke-opacity:1"
           d="m 267.53357,594.85063 c 5.28045,-0.22269 10.55846,-0.40916 15.84572,-0.55763 1.74177,-0.0499 3.48329,-0.0965 5.22492,-0.1397 0,0 10e-6,0 10e-6,0 32.41295,-0.77243 63.49945,-0.21604 95.4584,1.42859 0,0 1e-5,0 1e-5,0 34.07748,1.73023 66.83222,4.40928 100.21492,7.23459 0,0 10e-6,0 10e-6,0 1.23918,0.10442 2.47819,0.2089 3.71666,0.31336 0,0 2e-5,1e-5 2e-5,1e-5 16.65577,1.43439 33.05006,2.84582 49.64191,4.14679 0,0 3.069,9.6532 3.65351,20.74989 0.58352,11.07801 -1.32194,23.68044 -10.95939,29.12537 -15.50437,8.75958 -34.71972,14.84898 -56.0345,18.33629 -0.99,0.16009 -1.98424,0.31455 -2.98259,0.46343 -1.30884,0.19742 -2.62475,0.38527 -3.94741,0.56359 -31.97795,4.30346 -67.90643,3.00984 -101.90038,-2.51291 -33.10536,-5.40208 -65.17092,-14.75275 -88.20733,-28.03152 -0.28765,-0.16581 -0.56896,-0.33722 -0.84403,-0.51404 -1.63964,-1.05376 -3.05776,-2.3009 -4.28148,-3.70229 0,0 0,0 0,0 -5.97564,-6.83604 -7.33586,-17.37738 -7.13232,-26.79075 0.24274,-10.83278 2.53334,-20.11307 2.53334,-20.11307 z"
           id="rect4158"
           inkscape:connector-curvature="0"
           sodipodi:nodetypes="ccssc"
           inkscape:original-d="m 263.68244,596.18783 270.72912,-0.16051 c 0,0 11.08813,37.92841 -8.59145,49.63889 -63.78897,37.95805 -188.93502,38.03226 -252.76898,0.14986 -19.69346,-11.68713 -9.36869,-49.62824 -9.36869,-49.62824 z" />
        <path
           inkscape:connector-curvature="0"
           style="opacity:1;fill:#ffffff;fill-opacity:1;stroke:#ff6699;stroke-width:8.00000095;stroke-linecap:butt;stroke-linejoin:miter;stroke-miterlimit:4;stroke-dasharray:none;stroke-dashoffset:0;stroke-opacity:1"
           d="m 535.53119,598.30677 c 0.51702,12.08286 -18.86169,22.24487 -52.42583,27.11807 -1.28698,0.18904 -2.59188,0.36993 -3.91416,0.54263 -21.90462,2.85538 -47.81939,3.36395 -74.84016,1.81289 -9.07391,-0.52086 -18.17487,-1.26939 -27.11107,-2.21923 0,0 -1e-5,0 -1e-5,0 -37.93832,-4.05929 -71.92209,-11.29469 -91.03942,-20.85474 -1.64701,-0.82309 -3.1863,-1.6634 -4.61507,-2.52059 -8.53386,-5.11758 -12.99898,-10.7433 -13.10549,-16.68139 -0.14077,-7.84742 7.44408,-16.03494 21.86246,-22.97011 1.81337,-0.87416 3.72916,-1.72582 5.74305,-2.55152 24.22613,-9.9003 59.4063,-14.88234 98.3709,-12.7604 0,0 10e-6,0 10e-6,0 2.64949,0.14264 5.30083,0.31592 7.95172,0.51905 33.12665,2.53837 65.2367,9.70367 89.4742,18.53368 1.18751,0.43205 2.35555,0.8679 3.50333,1.30721 25.19026,9.68381 39.71037,20.55448 40.14554,30.72445 z"
           id="path4156"
           inkscape:original-d="M 532.61421,587.14257 A 38.57143,133.92857 89.96603 0 1 398.70853,625.7934 38.57143,133.92857 89.96603 0 1 264.75711,587.30138 38.57143,133.92857 89.96603 0 1 398.66279,548.65055 38.57143,133.92857 89.96603 0 1 532.61421,587.14257 Z" />
        <path
           inkscape:connector-curvature="0"
           style="opacity:1;fill:#ffffff;fill-opacity:1;stroke:#ff6699;stroke-width:8.00000095;stroke-linecap:butt;stroke-linejoin:miter;stroke-miterlimit:4;stroke-dasharray:none;stroke-dashoffset:0;stroke-opacity:1"
           d="m 315.39563,518.75953 c 1.27544,0.0117 2.5504,0.0259 3.82502,0.0426 3.85683,0.0506 7.07231,3.26038 7.21064,7.17982 0.58483,16.57138 1.09062,32.39406 1.48046,49.28243 0.0921,3.99946 -2.95059,7.19245 -6.8166,7.1798 -1.27721,-0.004 -2.55459,-0.006 -3.83229,-0.007 -3.86741,-2.9e-4 -7.04551,-3.20336 -7.13538,-7.20647 -0.37995,-16.92398 -0.87829,-32.74349 -1.4552,-49.41145 -0.13624,-3.94388 2.86325,-7.09542 6.72335,-7.06024 z"
           id="rect4161"
           inkscape:original-d="m 312.82988,524.21421 3.77974,-0.002 c 3.8132,-0.002 6.88485,3.06575 6.88711,6.87895 l 0.0281,47.35116 c 0.002,3.8132 -3.06575,6.88485 -6.87895,6.88711 l -3.77974,0.002 c -3.8132,0.002 -6.88485,-3.06574 -6.88711,-6.87894 l -0.0281,-47.35117 c -0.002,-3.81319 3.06575,-6.88484 6.87895,-6.88711 z" />
        <path
           inkscape:connector-curvature="0"
           style="opacity:1;fill:#ffffff;fill-opacity:1;stroke:#ff6699;stroke-width:8.00000095;stroke-linecap:butt;stroke-linejoin:miter;stroke-miterlimit:4;stroke-dasharray:none;stroke-dashoffset:0;stroke-opacity:1"
           d="m 369.97876,507.66373 c 1.25586,0.0878 2.51087,0.17769 3.76515,0.26976 3.79373,0.2785 6.97834,3.55635 7.14257,7.34418 0.69352,15.99507 1.31335,31.53112 1.82733,48.15214 0.12166,3.94292 -2.85757,6.96164 -6.68024,6.76924 -1.26275,-0.0637 -2.52607,-0.12548 -3.79008,-0.18547 -3.82628,-0.18163 -6.99736,-3.50677 -7.11443,-7.47102 -0.49483,-16.75565 -1.08502,-32.25981 -1.73926,-48.45456 -0.15454,-3.83177 2.78968,-6.6895 6.58895,-6.42427 z"
           id="rect4161-7"
           inkscape:original-d="m 367.61285,511.0541 3.77974,-0.002 c 3.8132,-0.002 6.88485,3.06576 6.88711,6.87896 l 0.0281,47.35116 c 0.002,3.8132 -3.06575,6.88485 -6.87895,6.88711 l -3.77974,0.002 c -3.8132,0.002 -6.88485,-3.06575 -6.88711,-6.87895 l -0.0281,-47.35116 c -0.002,-3.8132 3.06574,-6.88486 6.87894,-6.88712 z" />
        <path
           inkscape:connector-curvature="0"
           style="opacity:1;fill:#ffffff;fill-opacity:1;stroke:#ff6699;stroke-width:8.00000095;stroke-linecap:butt;stroke-linejoin:miter;stroke-miterlimit:4;stroke-dasharray:none;stroke-dashoffset:0;stroke-opacity:1"
           d="m 423.34147,509.53099 c 1.23279,0.14032 2.46484,0.28193 3.69625,0.42478 3.72321,0.43196 6.89505,3.71112 7.10519,7.36257 0.88092,15.30626 1.651,30.65697 2.28378,46.80086 0.15094,3.85762 -2.76648,6.73074 -6.54023,6.41995 -1.24637,-0.10273 -2.49322,-0.20448 -3.74065,-0.30523 -3.77687,-0.30505 -6.92508,-3.68385 -7.06722,-7.57733 -0.59491,-16.29603 -1.31333,-31.71331 -2.12574,-47.23064 -0.19389,-3.70825 2.66058,-6.31905 6.38863,-5.89496 z"
           id="rect4161-7-8"
           inkscape:original-d="m 421.81001,507.80951 3.77974,-0.002 c 3.8132,-0.002 6.88485,3.06575 6.88711,6.87895 l 0.0281,47.35117 c 0.002,3.8132 -3.06575,6.88485 -6.87894,6.88711 l -3.77974,0.002 c -3.8132,0.002 -6.88486,-3.06575 -6.88712,-6.87895 l -0.0281,-47.35117 c -0.002,-3.8132 3.06576,-6.88485 6.87896,-6.88711 z" />
        <path
           inkscape:connector-curvature="0"
           style="opacity:1;fill:#ffffff;fill-opacity:1;stroke:#ff6699;stroke-width:8.00000095;stroke-linecap:butt;stroke-linejoin:miter;stroke-miterlimit:4;stroke-dasharray:none;stroke-dashoffset:0;stroke-opacity:1"
           d="m 482.21841,529.76631 c 1.21887,0.15393 2.43723,0.30816 3.65517,0.46261 3.68234,0.46701 6.86496,3.70588 7.11809,7.28637 0.40653,5.75012 0.78554,11.56952 1.13657,17.47312 0.29122,4.88852 0.56241,9.81858 0.81362,14.79726 0.22925,4.54893 0.44138,9.12819 0.63667,13.74223 0.13501,3.19498 -1.87783,5.69027 -4.74052,6.20524 0,0 0,0 0,0 -0.54559,0.099 -1.12194,0.12603 -1.72,0.0721 -0.67819,-0.0612 -1.35651,-0.12235 -2.03491,-0.1835 -0.5559,-0.0503 -1.11188,-0.1006 -1.66794,-0.15087 -3.73739,-0.33787 -6.85655,-3.71155 -7.0074,-7.55304 -0.62691,-15.96562 -1.43441,-31.35154 -2.41714,-46.46841 -0.23632,-3.6391 2.54228,-6.14836 6.22778,-5.68313 z"
           id="rect4161-7-2"
           inkscape:original-d="m 481.50136,521.6501 3.77974,-0.002 c 3.8132,-0.002 6.88485,3.06575 6.88711,6.87895 l 0.0281,47.35116 c 0.002,3.8132 -3.06575,6.88486 -6.87896,6.88712 l -3.77974,0.002 c -3.8132,0.002 -6.88485,-3.06576 -6.88711,-6.87896 l -0.0281,-47.35116 c -0.002,-3.8132 3.06575,-6.88485 6.87895,-6.88711 z" />
        <path
           inkscape:connector-curvature="0"
           style="opacity:1;fill:#ffffff;fill-opacity:1;stroke:#ff6699;stroke-width:8.00000095;stroke-linecap:butt;stroke-linejoin:miter;stroke-miterlimit:4;stroke-dasharray:none;stroke-dashoffset:0;stroke-opacity:1"
           d="m 453.77693,548.58409 c 1.2342,0.12809 2.46782,0.25688 3.70094,0.38633 3.72949,0.39152 6.89253,3.72793 7.07906,7.49205 0.77741,15.68751 1.37348,31.53582 1.79334,47.84132 0.10061,3.91688 -2.85444,6.84806 -6.62025,6.55312 -1.24391,-0.0975 -2.48826,-0.19462 -3.73311,-0.29131 -3.76867,-0.29273 -6.87015,-3.70398 -6.96436,-7.64779 -0.39194,-16.40589 -0.95146,-32.33955 -1.67876,-48.18294 -0.17468,-3.81065 2.69008,-6.53796 6.42314,-6.15078 z"
           id="rect4161-7-2-9"
           inkscape:original-d="m 450.92628,544.75996 3.77974,-0.002 c 3.8132,-0.002 6.88486,3.06576 6.88712,6.87896 l 0.0281,47.35116 c 0.002,3.8132 -3.06576,6.88486 -6.87896,6.88712 l -3.77974,0.002 c -3.8132,0.002 -6.88486,-3.06576 -6.88712,-6.87896 l -0.0281,-47.35116 c -0.002,-3.8132 3.06576,-6.88486 6.87896,-6.88712 z" />
        <path
           inkscape:connector-curvature="0"
           style="opacity:1;fill:#ffffff;fill-opacity:1;stroke:#ff6699;stroke-width:8.00000095;stroke-linecap:butt;stroke-linejoin:miter;stroke-miterlimit:4;stroke-dasharray:none;stroke-dashoffset:0;stroke-opacity:1"
           d="m 398.64336,547.64103 c 1.25198,0.0929 2.50333,0.18731 3.75417,0.28313 3.78383,0.28986 6.95331,3.64934 7.09909,7.52922 0.60895,16.20617 1.07146,32.32697 1.3811,48.93644 0.0739,3.98084 -2.93705,7.00312 -6.74707,6.77789 -1.25861,-0.0745 -2.51765,-0.1479 -3.77721,-0.2202 -3.81291,-0.21886 -6.93149,-3.6012 -7.0006,-7.59605 -0.26525,-15.33633 -0.65637,-30.2748 -1.1667,-45.33165 -0.0433,-1.27887 -0.0874,-2.55588 -0.13232,-3.83149 -0.0718,-2.04661 0.69903,-3.82277 1.99261,-5.00871 0,0 0,0 0,0 1.1786,-1.08109 2.79058,-1.67253 4.59693,-1.53858 z"
           id="rect4161-7-2-9-6"
           inkscape:original-d="m 394.86524,548.83379 3.77975,-0.002 c 3.8132,-0.002 6.88485,3.06575 6.88711,6.87896 l 0.0281,47.35116 c 0.002,3.8132 -3.06575,6.88486 -6.87895,6.88712 l -3.77975,0.002 c -3.8132,0.002 -6.88484,-3.06576 -6.88711,-6.87896 l -0.0281,-47.35116 c -0.002,-3.81321 3.06575,-6.88486 6.87895,-6.88712 z" />
        <path
           inkscape:connector-curvature="0"
           style="opacity:1;fill:#ffffff;fill-opacity:1;stroke:#ff6699;stroke-width:8.00000095;stroke-linecap:butt;stroke-linejoin:miter;stroke-miterlimit:4;stroke-dasharray:none;stroke-dashoffset:0;stroke-opacity:1"
           d="m 344.46872,542.6666 c 1.26998,0.0387 2.53936,0.0797 3.80827,0.12285 3.83939,0.13058 7.03577,3.4235 7.16362,7.36758 0.53578,16.52782 0.94728,32.69752 1.21613,49.464 0.064,4.00518 -2.98998,7.13264 -6.84339,7.03295 -1.27305,-0.033 -2.54649,-0.0642 -3.82045,-0.0936 -3.85624,-0.0889 -7.00349,-3.36652 -7.06446,-7.37283 -0.25551,-16.78978 -0.6535,-32.9578 -1.17301,-49.56875 -0.12376,-3.96576 2.87018,-7.06922 6.7133,-6.95223 z"
           id="rect4161-7-2-9-6-8"
           inkscape:original-d="m 340.82087,546.84551 3.77974,-0.002 c 3.81321,-0.002 6.88486,3.06575 6.88712,6.87895 l 0.0281,47.35117 c 0.002,3.8132 -3.06575,6.88486 -6.87895,6.88712 l -3.77974,0.002 c -3.8132,0.002 -6.88485,-3.06576 -6.88711,-6.87896 l -0.0281,-47.35117 c -0.002,-3.8132 3.06575,-6.88485 6.87895,-6.88711 z" />
        <path
           inkscape:connector-curvature="0"
           style="opacity:1;fill:#ffffff;fill-opacity:1;stroke:#ff6699;stroke-width:8.00000095;stroke-linecap:butt;stroke-linejoin:miter;stroke-miterlimit:4;stroke-dasharray:none;stroke-dashoffset:0;stroke-opacity:1"
           d="m 326.95141,504.72868 c 0.32605,9.02147 -3.68113,16.36866 -8.97903,16.31021 -5.28513,-0.0583 -9.84668,-7.50133 -10.17371,-16.59822 0,0 -9.2e-4,-0.0261 -9.2e-4,-0.0261 -0.15606,-4.49016 0.76521,-8.74674 2.54874,-11.79311 1.68787,-2.88034 4.01144,-4.44485 6.47849,-4.38752 5.27774,0.12265 9.80059,7.47881 10.12643,16.49471 z"
           id="path4310"
           inkscape:original-d="m 324.7588,510.23845 a 16.162441,9.4701805 89.96603 0 1 -9.46059,16.16805 16.162441,9.4701805 89.96603 0 1 -9.47976,-16.15682 16.162441,9.4701805 89.96603 0 1 9.46059,-16.16805 16.162441,9.4701805 89.96603 0 1 9.47976,16.15682 z" />
        <path
           inkscape:connector-curvature="0"
           style="opacity:1;fill:#ffffff;fill-opacity:1;stroke:#ff6699;stroke-width:8.00000095;stroke-linecap:butt;stroke-linejoin:miter;stroke-miterlimit:4;stroke-dasharray:none;stroke-dashoffset:0;stroke-opacity:1"
           d="m 355.32007,533.72233 c 0.33251,9.13849 -3.68529,16.47877 -8.96204,16.31951 -5.27291,-0.15914 -9.789,-7.77024 -10.10987,-16.97886 -0.32105,-9.21391 3.67997,-16.43381 8.93904,-16.22142 5.25384,0.21217 9.80055,7.74754 10.13287,16.88077 z"
           id="path4310-1"
           inkscape:original-d="m 351.92298,537.74908 a 16.162443,9.4701815 89.96603 0 1 -9.4606,16.16805 16.162443,9.4701815 89.96603 0 1 -9.47976,-16.15682 16.162443,9.4701815 89.96603 0 1 9.4606,-16.16805 16.162443,9.4701815 89.96603 0 1 9.47976,16.15682 z" />
        <path
           inkscape:connector-curvature="0"
           style="opacity:1;fill:#ffffff;fill-opacity:1;stroke:#ff6699;stroke-width:8.00000095;stroke-linecap:butt;stroke-linejoin:miter;stroke-miterlimit:4;stroke-dasharray:none;stroke-dashoffset:0;stroke-opacity:1"
           d="m 381.11171,505.69077 c 0.38931,8.76107 -3.51005,15.72884 -8.73884,15.3893 -5.22322,-0.33918 -9.75769,-7.88227 -10.11915,-16.76635 -0.36173,-8.89022 3.59036,-15.58846 8.77647,-15.15916 5.17912,0.42872 9.69248,7.7812 10.08152,16.53621 z"
           id="path4310-1-1"
           inkscape:original-d="m 378.9271,508.186 a 16.162445,9.4701824 89.96603 0 1 -9.4606,16.16807 16.162445,9.4701824 89.96603 0 1 -9.47976,-16.15684 16.162445,9.4701824 89.96603 0 1 9.46059,-16.16805 16.162445,9.4701824 89.96603 0 1 9.47977,16.15682 z" />
        <path
           inkscape:connector-curvature="0"
           style="opacity:1;fill:#ffffff;fill-opacity:1;stroke:#ff6699;stroke-width:8.00000095;stroke-linecap:butt;stroke-linejoin:miter;stroke-miterlimit:4;stroke-dasharray:none;stroke-dashoffset:0;stroke-opacity:1"
           d="m 409.52256,539.09589 c 0.38791,8.95022 -3.53478,16.01576 -8.74078,15.63795 -2.48084,-0.18003 -4.92146,-2.06467 -6.79981,-5.24677 0,0 0,0 0,0 -1.90366,-3.22667 -3.0711,-7.51535 -3.24676,-11.88604 -0.36411,-9.05961 3.5271,-15.90235 8.69586,-15.44579 0.078,0.007 0.156,0.0154 0.23408,0.0257 5.08202,0.66289 9.47651,8.12649 9.85741,16.91497 z"
           id="path4310-1-1-1"
           inkscape:original-d="m 406.21974,539.48465 a 16.162447,9.4701834 89.96603 0 1 -9.4606,16.16806 16.162447,9.4701834 89.96603 0 1 -9.47977,-16.15683 16.162447,9.4701834 89.96603 0 1 9.46061,-16.16806 16.162447,9.4701834 89.96603 0 1 9.47976,16.15683 z" />
        <path
           inkscape:connector-curvature="0"
           style="opacity:1;fill:#ffffff;fill-opacity:1;stroke:#ff6699;stroke-width:8.00000095;stroke-linecap:butt;stroke-linejoin:miter;stroke-miterlimit:4;stroke-dasharray:none;stroke-dashoffset:0;stroke-opacity:1"
           d="m 434.33663,508.29785 c 0.50934,8.41591 -3.23719,15.0034 -8.38126,14.45859 -5.13969,-0.54434 -9.66253,-8.04596 -10.12644,-16.61837 -0.46423,-8.57833 3.30399,-14.77054 8.37763,-14.1154 5.06814,0.65442 9.62109,7.86504 10.13007,16.27518 z"
           id="path4310-1-1-1-7"
           inkscape:original-d="m 433.22095,505.12336 a 16.162449,9.4701843 89.96603 0 1 -9.46061,16.16806 16.162449,9.4701843 89.96603 0 1 -9.47976,-16.15683 16.162449,9.4701843 89.96603 0 1 9.4606,-16.16806 16.162449,9.4701843 89.96603 0 1 9.47977,16.15683 z" />
        <path
           inkscape:connector-curvature="0"
           style="opacity:1;fill:#ffffff;fill-opacity:1;stroke:#ff6699;stroke-width:8.00000095;stroke-linecap:butt;stroke-linejoin:miter;stroke-miterlimit:4;stroke-dasharray:none;stroke-dashoffset:0;stroke-opacity:1"
           d="m 465.34731,544.6553 c 0.48632,8.67689 -3.31634,15.4717 -8.45516,14.96499 -5.13711,-0.50654 -9.61432,-8.14918 -10.06666,-16.95753 -0.45261,-8.81379 3.28739,-15.27829 8.37327,-14.67802 5.08341,0.59998 9.66251,7.9988 10.14855,16.67056 z"
           id="path4310-1-1-1-7-6"
           inkscape:original-d="m 463.04081,539.45096 a 16.162451,9.4701853 89.96603 0 1 -9.46061,16.16806 16.162451,9.4701853 89.96603 0 1 -9.47976,-16.15683 16.162451,9.4701853 89.96603 0 1 9.4606,-16.16806 16.162451,9.4701853 89.96603 0 1 9.47977,16.15683 z" />
        <path
           inkscape:connector-curvature="0"
           style="opacity:1;fill:#ffffff;fill-opacity:1;stroke:#ff6699;stroke-width:8.00000095;stroke-linecap:butt;stroke-linejoin:miter;stroke-miterlimit:4;stroke-dasharray:none;stroke-dashoffset:0;stroke-opacity:1"
           d="m 492.79633,526.34942 c 0.6431,8.20737 -2.98496,14.61142 -8.06973,14.00747 -5.08284,-0.60373 -9.62291,-8.01907 -10.21792,-16.38943 -0.59541,-8.37585 2.9752,-14.31644 7.98323,-13.59909 5.00539,0.71696 9.66174,7.77884 10.30442,15.98105 z"
           id="path4310-1-1-1-7-6-8"
           inkscape:original-d="m 492.82671,516.45227 a 16.162453,9.4701862 89.96603 0 1 -9.46061,16.16808 16.162453,9.4701862 89.96603 0 1 -9.47976,-16.15685 16.162453,9.4701862 89.96603 0 1 9.4606,-16.16806 16.162453,9.4701862 89.96603 0 1 9.47977,16.15683 z" />
      </g>
    </g>
  </g>
</svg>
