<?xml version="1.0" encoding="UTF-8" standalone="no"?>
<!-- Created with Inkscape (http://www.inkscape.org/) -->

<svg
   xmlns:dc="http://purl.org/dc/elements/1.1/"
   xmlns:cc="http://creativecommons.org/ns#"
   xmlns:rdf="http://www.w3.org/1999/02/22-rdf-syntax-ns#"
   xmlns:svg="http://www.w3.org/2000/svg"
   xmlns="http://www.w3.org/2000/svg"
   xmlns:sodipodi="http://sodipodi.sourceforge.net/DTD/sodipodi-0.dtd"
   xmlns:inkscape="http://www.inkscape.org/namespaces/inkscape"
   width="163.62534mm"
   height="28.501375mm"
   viewBox="0 0 579.77481 100.98912"
   id="svg2"
   version="1.1"
   inkscape:version="0.91 r13725"
   sodipodi:docname="icons.svg">
  <defs
     id="defs4" />
  <sodipodi:namedview
     id="base"
     pagecolor="#ffffff"
     bordercolor="#666666"
     borderopacity="1.0"
     inkscape:pageopacity="0.0"
     inkscape:pageshadow="2"
     inkscape:zoom="0.98994949"
     inkscape:cx="579.25831"
     inkscape:cy="193.08293"
     inkscape:document-units="px"
     inkscape:current-layer="XMLID_105_"
     showgrid="false"
     showguides="true"
     inkscape:guide-bbox="true"
     inkscape:window-width="1920"
     inkscape:window-height="1017"
     inkscape:window-x="1358"
     inkscape:window-y="-8"
     inkscape:window-maximized="1"
     fit-margin-top="0"
     fit-margin-left="0"
     fit-margin-right="0"
     fit-margin-bottom="0">
    <sodipodi:guide
       position="112.63198,25.989148"
       orientation="0,1"
       id="guide4754" />
    <sodipodi:guide
       position="113.34627,76.346286"
       orientation="0,1"
       id="guide4756" />
    <sodipodi:guide
       position="50.031205,76.346286"
       orientation="1,0"
       id="guide5075" />
    <sodipodi:guide
       position="136.90432,50.119617"
       orientation="0,1"
       id="guide5077" />
  </sodipodi:namedview>
  <metadata
     id="metadata7">
    <rdf:RDF>
      <cc:Work
         rdf:about="">
        <dc:format>image/svg+xml</dc:format>
        <dc:type
           rdf:resource="http://purl.org/dc/dcmitype/StillImage" />
        <dc:title></dc:title>
      </cc:Work>
    </rdf:RDF>
  </metadata>
  <g
     inkscape:label="Layer 1"
     inkscape:groupmode="layer"
     id="layer1"
     transform="translate(-25.225159,-508.79078)">
    <g
       id="g4229"
       transform="translate(174.10714,529.32649)">
      <g
         id="g4137">
        <circle
           style="opacity:1;fill:#ffffff;fill-opacity:1;stroke:#ef4d4d;stroke-width:9.43589783;stroke-linecap:butt;stroke-linejoin:miter;stroke-miterlimit:4;stroke-dasharray:none;stroke-dashoffset:0;stroke-opacity:1"
           id="path4355-9"
           cx="-98.881981"
           cy="30.453411"
           r="45.282051" />
        <circle
           style="opacity:1;fill:#ffffff;fill-opacity:1;stroke:#eeaf4b;stroke-width:9.43589783;stroke-linecap:butt;stroke-linejoin:miter;stroke-miterlimit:4;stroke-dasharray:none;stroke-dashoffset:0;stroke-opacity:1"
           id="path4355-9-0"
           cx="20.969017"
           cy="29.715782"
           r="45.282051" />
        <circle
           style="opacity:1;fill:#ffffff;fill-opacity:1;stroke:#f9da49;stroke-width:9.43589783;stroke-linecap:butt;stroke-linejoin:miter;stroke-miterlimit:4;stroke-dasharray:none;stroke-dashoffset:0;stroke-opacity:1"
           id="path4355-9-0-1"
           cx="141.10715"
           cy="29.821428"
           r="45.282051" />
        <circle
           style="opacity:1;fill:#ffffff;fill-opacity:1;stroke:#6973b9;stroke-width:9.43589783;stroke-linecap:butt;stroke-linejoin:miter;stroke-miterlimit:4;stroke-dasharray:none;stroke-dashoffset:0;stroke-opacity:1"
           id="path4355-9-0-1-7"
           cx="261.17859"
           cy="29.464287"
           r="45.282051" />
        <circle
           style="opacity:1;fill:#ffffff;fill-opacity:1;stroke:#56b46f;stroke-width:9.43589783;stroke-linecap:butt;stroke-linejoin:miter;stroke-miterlimit:4;stroke-dasharray:none;stroke-dashoffset:0;stroke-opacity:1"
           id="path4355-9-0-1-7-3"
           cx="380.89285"
           cy="29.607143"
           r="45.282051" />
        <g
           id="g4329"
           transform="matrix(1.1270604,0,0,1.1270604,114.46019,-1.6672585)">
          <g
             id="g4275">
            <path
               id="path4277"
               d="m 44.5,20.232 -6,0 0,4 4,0 c 1.1,0 2,0.9 2,2 l 0,10 c 0,1.1 -0.9,2 -2,2 l -4,0 0,4 6,0 c 2.2,0 4,-1.8 4,-4 l 0,-14 c 0,-2.2 -1.8,-4 -4,-4 z"
               style="fill:#e6e6e6"
               inkscape:connector-curvature="0" />
            <path
               id="path4279"
               d="M 32.5,4 C 31.117,4 29.847,4.472 28.833,5.258 27.837,3.325 25.825,2 23.5,2 22.651,2 21.845,2.178 21.113,2.496 19.924,0.979 18.078,0 16,0 12.875,0 10.268,2.205 9.644,5.144 9.275,5.057 8.895,5 8.5,5 c -2.761,0 -5,2.239 -5,5 l 0,8 c 0,1.1 0.9,2 2,2 l 1,0 c 1.1,0 2,-0.9 2,-2 l 0,-1.596 C 9.106,16.775 9.809,17 10.568,17 l 1.967,0 c 1.275,0 2.402,-0.615 3.136,-1.551 1.089,1.539 2.879,2.551 4.897,2.551 3.3,0 6,-2.7 6,-6 l 11.583,0 c 0.222,-0.626 0.349,-1.298 0.349,-2 0,-3.314 -2.686,-6 -6,-6 z"
               style="fill:#e6e6e6"
               inkscape:connector-curvature="0" />
            <path
               id="path4281"
               d="m 26.568,12 c 0,3.3 -2.7,6 -6,6 C 18.55,18 16.76,16.988 15.671,15.449 14.937,16.385 13.81,17 12.535,17 l -1.967,0 C 9.81,17 9.106,16.775 8.5,16.404 L 8.5,47 c 0,2.75 2.25,5 5,5 l 20,0 c 2.75,0 5,-2.25 5,-5 l 0,-35 -11.932,0 z"
               style="fill:#f4c44e"
               inkscape:connector-curvature="0" />
            <path
               id="path4283"
               d="m 14.5,25 c 0,-1.65 -1.35,-3 -3,-3 -1.65,0 -3,1.35 -3,3 l 0,21 6,0 0,-21 z"
               style="fill:#f9da49"
               inkscape:connector-curvature="0" />
            <path
               id="path4285"
               d="m 20.5,25 c 0,-1.65 -1.35,-3 -3,-3 -1.65,0 -3,1.35 -3,3 l 0,21 6,0 0,-21 z"
               style="fill:#eeaf4b"
               inkscape:connector-curvature="0" />
            <path
               id="path4287"
               d="m 26.5,25 c 0,-1.65 -1.35,-3 -3,-3 -1.65,0 -3,1.35 -3,3 l 0,21 6,0 0,-21 z"
               style="fill:#f9da49"
               inkscape:connector-curvature="0" />
            <path
               id="path4289"
               d="m 32.5,25 c 0,-1.65 -1.35,-3 -3,-3 -1.65,0 -3,1.35 -3,3 l 0,21 6,0 0,-21 z"
               style="fill:#eeaf4b"
               inkscape:connector-curvature="0" />
            <path
               id="path4291"
               d="m 38.5,25 c 0,-1.65 -1.35,-3 -3,-3 -1.65,0 -3,1.35 -3,3 l 0,21 6,0 0,-21 z"
               style="fill:#f9da49"
               inkscape:connector-curvature="0" />
          </g>
          <g
             id="g4293" />
          <g
             id="g4295" />
          <g
             id="g4297" />
          <g
             id="g4299" />
          <g
             id="g4301" />
          <g
             id="g4303" />
          <g
             id="g4305" />
          <g
             id="g4307" />
          <g
             id="g4309" />
          <g
             id="g4311" />
          <g
             id="g4313" />
          <g
             id="g4315" />
          <g
             id="g4317" />
          <g
             id="g4319" />
          <g
             id="g4321" />
        </g>
        <g
           id="g4412"
           transform="matrix(1.046516,0,0,1.046516,228.65156,-4.5075805)">
          <circle
             id="circle4362"
             r="17.509001"
             cy="40.507"
             cx="22.017"
             style="fill:#6973b9;fill-opacity:1" />
          <g
             id="g4364">
            <path
               id="path4366"
               d="m 49.88,25.681 c -1.761,-3.56 -2.694,-7.466 -2.694,-11.438 0.138,-2.48 0.266,-5.729 0.754,-7.555 0.311,-1.165 0.363,-2.396 0.039,-3.558 -0.99,-3.554 -4.076,-3.113 -4.076,-3.113 0,0 -3.407,-0.487 -4.21,3.686 -0.192,0.999 -0.078,2.03 0.181,3.014 0.481,1.831 0.838,5.105 0.746,7.526 0,3.971 -0.933,7.878 -2.694,11.438 -0.642,1.298 -1.314,2.779 -1.916,4.334 0,0 0,0 0,0 2.198,2.926 3.516,6.551 3.516,10.492 0,4.24 -1.527,8.109 -4.035,11.136 -0.002,0.025 -0.004,0.05 -0.006,0.075 0.029,0.092 0.051,0.187 0.083,0.278 1.052,3.01 2.693,6.019 5.053,6.019 l 6.566,0 c 2.36,0 3.757,-3.006 4.809,-6.016 1.044,-2.987 1.513,-6.144 1.513,-9.308 l 0,-4.371 C 53.394,34.16 51.642,29.243 49.88,25.681 Z"
               style="fill:#f5efca"
               inkscape:connector-curvature="0" />
          </g>
          <circle
             id="circle4368"
             r="3"
             cy="35"
             cx="14.508"
             style="fill:#38454f" />
          <circle
             id="circle4370"
             r="3"
             cy="29"
             cx="20.507999"
             style="fill:#38454f" />
          <circle
             id="circle4372"
             r="3"
             cy="37.015999"
             cx="24.507999"
             style="fill:#38454f" />
          <path
             id="path4374"
             d="m 40.239,19 7.328,0 c -0.251,-1.441 -0.381,-3.284 -0.381,-4.756 0.038,-0.686 0.076,-1.431 0.121,-2.189 l -6.711,0 c 0.038,0.762 0.05,1.51 0.025,2.189 -0.001,1.472 -0.13,3.315 -0.382,4.756 z"
             style="fill:#6973b9;fill-opacity:1"
             inkscape:connector-curvature="0" />
          <g
             id="g4376" />
          <g
             id="g4378" />
          <g
             id="g4380" />
          <g
             id="g4382" />
          <g
             id="g4384" />
          <g
             id="g4386" />
          <g
             id="g4388" />
          <g
             id="g4390" />
          <g
             id="g4392" />
          <g
             id="g4394" />
          <g
             id="g4396" />
          <g
             id="g4398" />
          <g
             id="g4400" />
          <g
             id="g4402" />
          <g
             id="g4404" />
        </g>
        <g
           id="g4530"
           transform="matrix(1.0601065,0,0,1.0601065,140.19119,-112.89465)">
          <g
             id="XMLID_80_">
            <rect
               height="33.340885"
               width="58.346546"
               style="fill:#56b46f"
               y="120.67275"
               id="XMLID_115_"
               x="198.61844" />
            <polygon
               points="2,12 52,16 2,16 "
               style="fill:#74be86"
               id="XMLID_114_"
               transform="matrix(1.0419026,0,0,1.0419026,198.61845,104.00231)" />
            <path
               d="m 246.52281,137.3432 c 0,7.48086 -6.06387,13.54473 -13.54473,13.54473 -7.48086,0 -13.54474,-6.06387 -13.54474,-13.54473 0,-7.48085 6.06388,-13.54473 13.54474,-13.54473 7.48086,0 13.54473,6.06388 13.54473,13.54473"
               style="fill:#4d8157"
               id="XMLID_79_"
               inkscape:connector-curvature="0" />
            <path
               d="m 220.59634,148.80413 c -3.8092,-2.39742 -6.34935,-6.62754 -6.34935,-11.46093 0,-4.83339 2.54015,-9.06351 6.34935,-11.46092 l -10.54301,0 c 0.0157,0.17191 0.026,0.34486 0.026,0.52094 0,3.1653 -2.5662,5.73046 -5.73047,5.73046 -0.17607,0 -0.34903,-0.0104 -0.52095,-0.026 l 0,10.47111 c 0.17192,-0.0156 0.34488,-0.026 0.52095,-0.026 3.16427,0 5.73047,2.56517 5.73047,5.73047 0,0.17608 -0.0105,0.34903 -0.026,0.52095 l 10.54301,0 z"
               style="fill:#eaead7"
               id="XMLID_112_"
               inkscape:connector-curvature="0" />
            <path
               d="m 204.34891,129.00799 c -1.43678,0 -2.60475,-1.16798 -2.60475,-2.60477 0,-1.43678 1.16797,-2.60475 2.60475,-2.60475 1.43679,0 2.60476,1.16797 2.60476,2.60475 0,1.43679 -1.16797,2.60477 -2.60476,2.60477"
               style="fill:#eaead7"
               id="XMLID_110_"
               inkscape:connector-curvature="0" />
            <path
               d="m 251.23454,129.00799 c -1.43679,0 -2.60477,-1.16798 -2.60477,-2.60477 0,-1.43678 1.16798,-2.60475 2.60477,-2.60475 1.43678,0 2.60475,1.16797 2.60475,2.60475 0,1.43679 -1.16797,2.60477 -2.60475,2.60477"
               style="fill:#eaead7"
               id="XMLID_109_"
               inkscape:connector-curvature="0" />
            <path
               d="m 204.34891,150.88793 c -1.43678,0 -2.60475,-1.16797 -2.60475,-2.60475 0,-1.43679 1.16797,-2.60476 2.60475,-2.60476 1.43679,0 2.60476,1.16797 2.60476,2.60476 0,1.43678 -1.16797,2.60475 -2.60476,2.60475"
               style="fill:#eaead7"
               id="XMLID_108_"
               inkscape:connector-curvature="0" />
            <path
               d="m 251.23454,150.88793 c -1.43679,0 -2.60477,-1.16797 -2.60477,-2.60475 0,-1.43679 1.16798,-2.60476 2.60477,-2.60476 1.43678,0 2.60475,1.16797 2.60475,2.60476 0,1.43678 -1.16797,2.60475 -2.60475,2.60475"
               style="fill:#eaead7"
               id="XMLID_107_"
               inkscape:connector-curvature="0" />
            <polygon
               points="5,8 5,12.24 52,16 55,16 "
               style="fill:#83c38e"
               id="XMLID_106_"
               transform="matrix(1.0419026,0,0,1.0419026,198.61845,104.00231)" />
            <g
               id="g4620"
               transform="matrix(0.86439331,0,0,0.86439331,297.59148,144.56706)">
              <g
                 id="XMLID_3_">
                <g
                   id="XMLID_105_">
                  <path
                     d="m -74.853738,0.34227953 c -2.757,0 -5,-2.24300003 -5,-5.00000003 0,-0.553 0.448,-1 1,-1 0.552,0 1,0.447 1,1 0,1.654 1.346,3 3,3 0.884,0 1.72,-0.388 2.292,-1.064 0.256,-0.303 0.374,-0.696 0.331,-1.106 -0.046,-0.438 -0.272,-0.847 -0.622,-1.118 l -5.23,-4.068 c -0.777,-0.605 -1.282,-1.5129995 -1.383,-2.4919995 -0.1,-0.956 0.182,-1.881 0.794,-2.603 0.952,-1.126 2.344,-1.772 3.818,-1.772 2.757,0 5,2.244 5,5 0,0.553 -0.448,0.9999995 -1,0.9999995 -0.552,0 -1,-0.4469995 -1,-0.9999995 0,-1.654 -1.346,-3 -3,-3 -0.884,0 -1.72,0.388 -2.292,1.065 -0.256,0.303 -0.374,0.694 -0.331,1.103 0.046,0.439 0.272,0.848 0.622,1.12 l 5.23,4.0689995 c 0.777,0.604 1.281,1.511 1.383,2.488 0.1,0.957 -0.182,1.882 -0.793,2.606 -0.953,1.12600003 -2.345,1.77200003 -3.819,1.77200003"
                     style="fill:#56b46f"
                     id="XMLID_119_"
                     inkscape:connector-curvature="0" />
                  <path
                     d="m -74.853738,2.1192795 c -0.552,0 -1,-0.447 -1,-1 l 0,-17.9999995 c 0,-0.553 0.448,-1 1,-1 0.552,0 1,0.447 1,1 l 0,17.9999995 c 0,0.553 -0.448,1 -1,1"
                     style="fill:#56b46f"
                     id="XMLID_118_"
                     inkscape:connector-curvature="0" />
                </g>
              </g>
              <g
                 id="g4584" />
              <g
                 id="g4586" />
              <g
                 id="g4588" />
              <g
                 id="g4590" />
              <g
                 id="g4592" />
              <g
                 id="g4594" />
              <g
                 id="g4596" />
              <g
                 id="g4598" />
              <g
                 id="g4600" />
              <g
                 id="g4602" />
              <g
                 id="g4604" />
              <g
                 id="g4606" />
              <g
                 id="g4608" />
              <g
                 id="g4610" />
              <g
                 id="g4612" />
            </g>
          </g>
          <g
             id="g4494" />
          <g
             id="g4496" />
          <g
             id="g4498" />
          <g
             id="g4500" />
          <g
             id="g4502" />
          <g
             id="g4504" />
          <g
             id="g4506" />
          <g
             id="g4508" />
          <g
             id="g4510" />
          <g
             id="g4512" />
          <g
             id="g4514" />
          <g
             id="g4516" />
          <g
             id="g4518" />
          <g
             id="g4520" />
          <g
             id="g4522" />
        </g>
        <g
           id="g4719"
           transform="translate(-127.56382,-0.2985279)">
          <rect
             id="rect4677"
             height="12"
             width="55"
             style="fill:#ed3737;fill-opacity:1"
             y="13.002"
             x="1" />
          <rect
             id="rect4679"
             height="30"
             width="46"
             style="fill:#ef4d4d"
             y="25.002001"
             x="6" />
          <path
             id="path4681"
             d="m 56,12.002 -14.259,0 C 42.556,10.837 43,9.453 43,7.995 43,6.12 42.274,4.362 40.957,3.045 c -2.729,-2.729 -7.17,-2.729 -9.899,0 L 28.229,5.874 25.401,3.045 c -2.729,-2.729 -7.17,-2.729 -9.899,0 -1.317,1.317 -2.043,3.075 -2.043,4.95 0,1.458 0.444,2.842 1.259,4.007 L 1,12.002 c -0.552,0 -1,0.447 -1,1 0,0.553 0.448,1 1,1 l 27,0 0,24 -22,0 c -0.552,0 -1,0.447 -1,1 0,0.553 0.448,1 1,1 l 22,0 0,15 c 0,0.553 0.448,1 1,1 0.552,0 1,-0.447 1,-1 l 0,-15 22,0 c 0.552,0 1,-0.447 1,-1 0,-0.553 -0.448,-1 -1,-1 l -22,0 0,-24 26,0 c 0.552,0 1,-0.447 1,-1 0,-0.553 -0.448,-1 -1,-1 z M 32.472,4.459 c 1.95,-1.949 5.122,-1.949 7.071,0 0.939,0.94 1.457,2.195 1.457,3.536 0,1.34 -0.518,2.596 -1.457,3.535 l -0.472,0.472 -14.142,0 4.006,-4.006 0.001,-0.001 0.001,-0.001 3.535,-3.535 z M 16.916,11.53 c -0.939,-0.939 -1.457,-2.195 -1.457,-3.535 0,-1.341 0.518,-2.596 1.457,-3.536 1.95,-1.949 5.122,-1.949 7.071,0 l 2.828,2.829 -3.536,3.536 c -0.331,0.331 -0.622,0.735 -0.898,1.179 l -4.994,0 -0.471,-0.473 z"
             style="fill:#f7a2a2;fill-opacity:1;stroke-width:2;stroke-miterlimit:4;stroke-dasharray:none"
             inkscape:connector-curvature="0" />
          <g
             id="g4683" />
          <g
             id="g4685" />
          <g
             id="g4687" />
          <g
             id="g4689" />
          <g
             id="g4691" />
          <g
             id="g4693" />
          <g
             id="g4695" />
          <g
             id="g4697" />
          <g
             id="g4699" />
          <g
             id="g4701" />
          <g
             id="g4703" />
          <g
             id="g4705" />
          <g
             id="g4707" />
          <g
             id="g4709" />
          <g
             id="g4711" />
        </g>
        <g
           id="g5322"
           transform="translate(-6.6493159,1.9661188)">
          <g
             id="g5268">
            <path
               id="path5270"
               d="M 53,5.814 C 52.47,5.017 51.74,4.503 50.943,4.242 50.444,4.079 50.067,3.702 49.904,3.203 49.643,2.405 49.129,1.675 48.332,1.145 46.912,0.201 44.968,0.285 43.638,1.352 42.579,2.201 42.083,3.438 42.142,4.656 42.208,6.031 41.81,7.388 40.836,8.361 l -8.431,8.431 c -0.062,0.062 -0.112,0.131 -0.169,0.197 l -0.877,2.924 c 0.052,0.326 0.147,0.647 0.302,0.952 0.011,0.022 0.028,0.037 0.04,0.059 l 2.283,-0.761 0,2.542 c 1.15,0.28 2.413,-0.005 3.307,-0.899 l 8.496,-8.496 c 0.974,-0.974 2.33,-1.372 3.706,-1.306 1.218,0.058 2.456,-0.437 3.304,-1.497 C 53.86,9.177 53.944,7.234 53,5.814 Z"
               style="fill:#e6e6e6"
               inkscape:connector-curvature="0" />
            <path
               id="path5272"
               d="M 47.342,5.88 46.598,5.212 C 47.457,4.253 48.687,3.69 49.971,3.664 l 0.02,1 c -1.008,0.02 -1.973,0.463 -2.649,1.216 z"
               style="fill:#bfbfbf"
               inkscape:connector-curvature="0" />
            <g
               id="g5274">
              <path
                 id="path5276"
                 d="m 33.981,24.164 0,-4 -3,1 1.902,-6.34 c -1.38,0.021 -2.754,0.542 -3.802,1.59 -4.132,4.132 -9.603,6.534 -15.411,7.178 -3.14,0.348 -6.187,1.732 -8.586,4.155 -5.3,5.352 -5.494,14.16 -0.42,19.726 5.547,6.086 14.984,6.25 20.741,0.493 2.149,-2.149 3.471,-4.809 3.969,-7.589 1.049,-5.857 4.075,-11.179 8.283,-15.387 0.256,-0.256 0.47,-0.536 0.664,-0.825 l -4.34,0 z"
                 style="fill:#eeaf4b"
                 inkscape:connector-curvature="0" />
              <path
                 id="path5278"
                 d="m 15.282,53.164 c -0.123,0 -0.245,-0.001 -0.368,-0.004 C 10.685,53.062 6.783,51.281 3.926,48.146 -1.478,42.217 -1.277,32.75 4.374,27.042 c 2.458,-2.482 5.721,-4.062 9.188,-4.446 5.83,-0.646 10.952,-3.028 14.813,-6.891 1.189,-1.188 2.785,-1.856 4.494,-1.882 l 1.365,-0.021 -1.741,5.803 2.488,-0.83 0,4.388 5.215,0 -1.043,1.557 c -0.261,0.389 -0.511,0.698 -0.788,0.976 -4.259,4.259 -7.027,9.396 -8.006,14.856 -0.553,3.088 -2.021,5.896 -4.246,8.12 -2.904,2.905 -6.738,4.492 -10.831,4.492 z M 31.464,16.073 c -0.628,0.218 -1.2,0.572 -1.676,1.047 -4.186,4.187 -9.721,6.768 -16.007,7.465 -3.057,0.339 -5.818,1.676 -7.986,3.865 -4.915,4.963 -5.09,13.195 -0.391,18.349 2.485,2.728 5.88,4.276 9.556,4.361 3.707,0.091 7.138,-1.3 9.739,-3.901 1.935,-1.935 3.211,-4.375 3.691,-7.06 0.984,-5.489 3.642,-10.664 7.71,-15.035 l -3.119,0 0,-3.612 -3.512,1.17 1.995,-6.649 z"
                 style="fill:#eeaf4b"
                 inkscape:connector-curvature="0" />
            </g>
            <path
               id="path5280"
               d="m 25.317,41.671 c -0.144,0 -0.289,-0.031 -0.428,-0.097 -0.499,-0.236 -0.712,-0.833 -0.475,-1.332 0.461,-0.972 0.789,-1.995 0.976,-3.042 0.096,-0.544 0.605,-0.91 1.16,-0.809 0.543,0.097 0.905,0.616 0.809,1.16 -0.218,1.222 -0.601,2.415 -1.138,3.548 -0.171,0.361 -0.529,0.572 -0.904,0.572 z"
               style="fill:#fbd490"
               inkscape:connector-curvature="0" />
            <path
               id="path5282"
               d="m 14.31,49.835 c -0.48,0 -0.904,-0.347 -0.985,-0.836 -0.091,-0.544 0.277,-1.06 0.822,-1.15 3.313,-0.553 6.435,-2.352 8.565,-4.936 0.35,-0.426 0.981,-0.487 1.407,-0.136 0.427,0.352 0.487,0.981 0.136,1.407 -2.433,2.951 -5.998,5.006 -9.78,5.637 -0.056,0.01 -0.11,0.014 -0.165,0.014 z"
               style="fill:#fbd490"
               inkscape:connector-curvature="0" />
            <circle
               id="circle5284"
               r="2"
               cy="30.164"
               cx="10.981"
               style="fill:#fbd490" />
          </g>
          <g
             id="g5286" />
          <g
             id="g5288" />
          <g
             id="g5290" />
          <g
             id="g5292" />
          <g
             id="g5294" />
          <g
             id="g5296" />
          <g
             id="g5298" />
          <g
             id="g5300" />
          <g
             id="g5302" />
          <g
             id="g5304" />
          <g
             id="g5306" />
          <g
             id="g5308" />
          <g
             id="g5310" />
          <g
             id="g5312" />
          <g
             id="g5314" />
        </g>
      </g>
      <g
         id="g4193" />
      <g
         id="g4195" />
      <g
         id="g4197" />
      <g
         id="g4199" />
      <g
         id="g4201" />
      <g
         id="g4203" />
      <g
         id="g4205" />
      <g
         id="g4207" />
      <g
         id="g4209" />
      <g
         id="g4211" />
      <g
         id="g4213" />
      <g
         id="g4215" />
      <g
         id="g4217" />
      <g
         id="g4219" />
      <g
         id="g4221" />
    </g>
  </g>
</svg>
