<?xml version="1.0" encoding="UTF-8" standalone="no"?>
<!-- Generator: Adobe Illustrator 19.0.0, SVG Export Plug-In . SVG Version: 6.00 Build 0)  -->

<svg
   xmlns:dc="http://purl.org/dc/elements/1.1/"
   xmlns:cc="http://creativecommons.org/ns#"
   xmlns:rdf="http://www.w3.org/1999/02/22-rdf-syntax-ns#"
   xmlns:svg="http://www.w3.org/2000/svg"
   xmlns="http://www.w3.org/2000/svg"
   xmlns:sodipodi="http://sodipodi.sourceforge.net/DTD/sodipodi-0.dtd"
   xmlns:inkscape="http://www.inkscape.org/namespaces/inkscape"
   version="1.1"
   id="Capa_1"
   x="0px"
   y="0px"
   viewBox="0 0 468.792 468.792"
   style="enable-background:new 0 0 468.792 468.792;"
   xml:space="preserve"
   width="512px"
   height="512px"
   inkscape:version="0.91 r13725"
   sodipodi:docname="instagram.svg"><metadata
     id="metadata45"><rdf:RDF><cc:Work
         rdf:about=""><dc:format>image/svg+xml</dc:format><dc:type
           rdf:resource="http://purl.org/dc/dcmitype/StillImage" /></cc:Work></rdf:RDF></metadata><defs
     id="defs43" /><sodipodi:namedview
     pagecolor="#ffffff"
     bordercolor="#666666"
     borderopacity="1"
     objecttolerance="10"
     gridtolerance="10"
     guidetolerance="10"
     inkscape:pageopacity="0"
     inkscape:pageshadow="2"
     inkscape:window-width="1920"
     inkscape:window-height="1017"
     id="namedview41"
     showgrid="false"
     inkscape:zoom="0.4609375"
     inkscape:cx="256"
     inkscape:cy="256"
     inkscape:window-x="1358"
     inkscape:window-y="-8"
     inkscape:window-maximized="1"
     inkscape:current-layer="g7" /><g
     id="g3"><g
       id="g5"><g
         id="g7"><path
           d="M234.396,0C104.946,0,0,104.946,0,234.396s104.946,234.396,234.396,234.396     s234.396-104.946,234.396-234.396C468.792,104.914,363.846,0,234.396,0z M380.881,370.329c0,5.816-4.736,10.552-10.615,10.552     H98.462c-5.816,0-10.584-4.704-10.584-10.552V98.462c0-5.816,4.736-10.584,10.584-10.584h271.804     c5.848,0,10.615,4.736,10.615,10.584C380.881,98.462,380.881,370.329,380.881,370.329z M175.789,234.396     c0-32.355,26.252-58.607,58.607-58.607s58.607,26.252,58.607,58.607s-26.252,58.607-58.607,58.607     S175.789,266.75,175.789,234.396z M293.003,117.182h58.607v58.607h-58.607V117.182z M319.636,219.744h31.973v131.834H117.214     V219.744h32.005c-1.24,5.88-1.971,8.422-1.971,14.652c0,48.119,39.124,87.179,87.179,87.179     c48.119,0,87.179-39.061,87.179-87.179C321.575,228.166,320.876,225.624,319.636,219.744z"
           fill="#FFFFFF"
           id="path9"
           style="fill:#ff6699;fill-opacity:1" /></g></g></g><g
     id="g11" /><g
     id="g13" /><g
     id="g15" /><g
     id="g17" /><g
     id="g19" /><g
     id="g21" /><g
     id="g23" /><g
     id="g25" /><g
     id="g27" /><g
     id="g29" /><g
     id="g31" /><g
     id="g33" /><g
     id="g35" /><g
     id="g37" /><g
     id="g39" /></svg>