<?xml version="1.0" encoding="UTF-8" standalone="no"?>
<!-- Created with Inkscape (http://www.inkscape.org/) -->

<svg
   xmlns:dc="http://purl.org/dc/elements/1.1/"
   xmlns:cc="http://creativecommons.org/ns#"
   xmlns:rdf="http://www.w3.org/1999/02/22-rdf-syntax-ns#"
   xmlns:svg="http://www.w3.org/2000/svg"
   xmlns="http://www.w3.org/2000/svg"
   xmlns:sodipodi="http://sodipodi.sourceforge.net/DTD/sodipodi-0.dtd"
   xmlns:inkscape="http://www.inkscape.org/namespaces/inkscape"
   width="144.49779mm"
   height="105.96504mm"
   viewBox="0 0 512.00004 375.46669"
   id="svg2"
   version="1.1"
   inkscape:version="0.91 r13725"
   sodipodi:docname="instore.svg">
  <defs
     id="defs4" />
  <sodipodi:namedview
     id="base"
     pagecolor="#ffffff"
     bordercolor="#666666"
     borderopacity="1.0"
     inkscape:pageopacity="1"
     inkscape:pageshadow="2"
     inkscape:zoom="0.125"
     inkscape:cx="-2079.7063"
     inkscape:cy="-606.53676"
     inkscape:document-units="px"
     inkscape:current-layer="layer1"
     showgrid="false"
     showguides="false"
     inkscape:guide-bbox="true"
     inkscape:window-width="1920"
     inkscape:window-height="1017"
     inkscape:window-x="1358"
     inkscape:window-y="-8"
     inkscape:window-maximized="1"
     fit-margin-top="0"
     fit-margin-left="0"
     fit-margin-right="0"
     fit-margin-bottom="0">
    <sodipodi:guide
       position="1567.0165,-2054.2873"
       orientation="0,1"
       id="guide4149" />
    <sodipodi:guide
       position="1587.7246,-2109.3406"
       orientation="0,1"
       id="guide4151" />
    <sodipodi:guide
       position="1715.5089,-2163.8889"
       orientation="0,1"
       id="guide4153" />
    <sodipodi:guide
       position="1847.8389,-2220.4574"
       orientation="0,1"
       id="guide4155" />
    <sodipodi:guide
       position="1614.4936,-2163.8889"
       orientation="1,0"
       id="guide4157" />
    <sodipodi:guide
       position="1795.3109,-2163.8889"
       orientation="1,0"
       id="guide4159" />
    <sodipodi:guide
       position="1545.3235,-2195.8672"
       orientation="1,0"
       id="guide4325" />
  </sodipodi:namedview>
  <metadata
     id="metadata7">
    <rdf:RDF>
      <cc:Work
         rdf:about="">
        <dc:format>image/svg+xml</dc:format>
        <dc:type
           rdf:resource="http://purl.org/dc/dcmitype/StillImage" />
        <dc:title></dc:title>
      </cc:Work>
    </rdf:RDF>
  </metadata>
  <g
     inkscape:label="Layer 1"
     inkscape:groupmode="layer"
     id="layer1"
     transform="translate(1517.5192,2415.3234)">
    <g
       id="g4213"
       transform="matrix(0.51396649,0,0,0.51396649,-1504.1213,-2469.2723)"
       style="fill:#ee5588;fill-opacity:1">
      <g
         id="g4169"
         style="fill:#ee5588;fill-opacity:1">
        <path
           id="path4171"
           d="m 927.204,115.602 -421,0 c -11,0 -20,9 -20,20 l 0,674 c 0,11 9,20 20,20 l 421,0 c 11,0 20,-9 20,-20 l 0,-674 c 0,-11 -9,-20 -20,-20 z m -342.5,394.9 c -20.7,0 -37.5,-16.801 -37.5,-37.5 0,-20.7 16.8,-37.5 37.5,-37.5 20.7,0 37.5,16.8 37.5,37.5 0,20.7 -16.8,37.5 -37.5,37.5 z"
           inkscape:connector-curvature="0"
           style="fill:#ee5588;fill-opacity:1" />
        <path
           id="path4173"
           d="m 6.504,738.902 c 1.9,9.5 10.3,16 19.6,16 1.3,0 2.7,-0.1 4,-0.399 l 126.9,-26.101 c 8.8,-1.8 15.3,-9.3 15.9,-18.2 l 6,-86.399 64.8,71.899 -17.1,108 c -1.7,10.9 5.7,21.2 16.6,22.9 l 30.1,4.8 c 1.1,0.2 2.1,0.2 3.1,0.2 9.7,0 18.2,-7 19.7,-16.9 l 20.8,-131.8 c 0.899,-6 -0.9,-12 -4.9,-16.5 l -76.8,-85.5 47.2,-67.3 3.2,41.2 c 0.399,5.5 3.399,10.399 8,13.399 l 84.899,54.9 c 3.4,2.2 7.101,3.2 10.8,3.2 6.601,0 13,-3.2 16.801,-9.101 l 16.6,-25.6 c 6,-9.3 3.3,-21.7 -5.9,-27.7 l -63,-40.7 -7.1,-91.199 c -0.5,-5.801 -3.4,-11.2 -8.2,-14.601 l -73.2,-53.2 c -2.8,-2 -6.1,-3.3 -9.6,-3.7 l -142.4,-15.6 c -0.7,-0.1 -1.5,-0.1 -2.2,-0.1 -8.9,0 -16.8,5.9 -19.2,14.6 l -27.7,98.7 c -3,10.6 3.2,21.7 13.9,24.7 l 29.3,8.2 c 1.8,0.5 3.6,0.699 5.4,0.699 8.7,0 16.8,-5.8 19.2,-14.6 l 16.1,-57.5 63.9,7 -96.4,129.1 c -2.3,3.101 -3.7,6.801 -3.9,10.7 l -6.4,100.601 -89.3,18.399 c -10.8,2.3 -17.8,12.8 -15.6,23.601 l 6.1,29.902 z"
           inkscape:connector-curvature="0"
           style="fill:#ee5588;fill-opacity:1" />
        <circle
           id="circle4175"
           r="81.400002"
           cy="296.00201"
           cx="368.604"
           style="fill:#ee5588;fill-opacity:1" />
      </g>
      <g
         id="g4177"
         style="fill:#ee5588;fill-opacity:1" />
      <g
         id="g4179"
         style="fill:#ee5588;fill-opacity:1" />
      <g
         id="g4181"
         style="fill:#ee5588;fill-opacity:1" />
      <g
         id="g4183"
         style="fill:#ee5588;fill-opacity:1" />
      <g
         id="g4185"
         style="fill:#ee5588;fill-opacity:1" />
      <g
         id="g4187"
         style="fill:#ee5588;fill-opacity:1" />
      <g
         id="g4189"
         style="fill:#ee5588;fill-opacity:1" />
      <g
         id="g4191"
         style="fill:#ee5588;fill-opacity:1" />
      <g
         id="g4193"
         style="fill:#ee5588;fill-opacity:1" />
      <g
         id="g4195"
         style="fill:#ee5588;fill-opacity:1" />
      <g
         id="g4197"
         style="fill:#ee5588;fill-opacity:1" />
      <g
         id="g4199"
         style="fill:#ee5588;fill-opacity:1" />
      <g
         id="g4201"
         style="fill:#ee5588;fill-opacity:1" />
      <g
         id="g4203"
         style="fill:#ee5588;fill-opacity:1" />
      <g
         id="g4205"
         style="fill:#ee5588;fill-opacity:1" />
    </g>
  </g>
</svg>
