<?xml version="1.0" encoding="UTF-8" standalone="no"?>
<!-- Created with Inkscape (http://www.inkscape.org/) -->

<svg
   xmlns:dc="http://purl.org/dc/elements/1.1/"
   xmlns:cc="http://creativecommons.org/ns#"
   xmlns:rdf="http://www.w3.org/1999/02/22-rdf-syntax-ns#"
   xmlns:svg="http://www.w3.org/2000/svg"
   xmlns="http://www.w3.org/2000/svg"
   xmlns:sodipodi="http://sodipodi.sourceforge.net/DTD/sodipodi-0.dtd"
   xmlns:inkscape="http://www.inkscape.org/namespaces/inkscape"
   width="28.222221mm"
   height="28.222221mm"
   viewBox="0 0 99.999997 99.999997"
   id="svg2"
   version="1.1"
   inkscape:version="0.91 r13725"
   sodipodi:docname="marker_gift.svg">
  <defs
     id="defs4" />
  <sodipodi:namedview
     id="base"
     pagecolor="#ffffff"
     bordercolor="#666666"
     borderopacity="1.0"
     inkscape:pageopacity="0.0"
     inkscape:pageshadow="2"
     inkscape:zoom="1.979899"
     inkscape:cx="47.582729"
     inkscape:cy="12.79601"
     inkscape:document-units="px"
     inkscape:current-layer="g4719"
     showgrid="false"
     showguides="true"
     inkscape:guide-bbox="true"
     inkscape:window-width="1920"
     inkscape:window-height="1017"
     inkscape:window-x="1358"
     inkscape:window-y="-8"
     inkscape:window-maximized="1"
     fit-margin-top="0"
     fit-margin-left="0"
     fit-margin-right="0"
     fit-margin-bottom="0">
    <sodipodi:guide
       position="112.63198,25.989126"
       orientation="0,1"
       id="guide4754" />
    <sodipodi:guide
       position="113.34627,76.346263"
       orientation="0,1"
       id="guide4756" />
    <sodipodi:guide
       position="50.031204,76.346263"
       orientation="1,0"
       id="guide5075" />
    <sodipodi:guide
       position="136.90432,50.119595"
       orientation="0,1"
       id="guide5077" />
  </sodipodi:namedview>
  <metadata
     id="metadata7">
    <rdf:RDF>
      <cc:Work
         rdf:about="">
        <dc:format>image/svg+xml</dc:format>
        <dc:type
           rdf:resource="http://purl.org/dc/dcmitype/StillImage" />
        <dc:title />
      </cc:Work>
    </rdf:RDF>
  </metadata>
  <g
     inkscape:label="Layer 1"
     inkscape:groupmode="layer"
     id="layer1"
     transform="translate(-25.225159,-509.7799)">
    <g
       id="g4229"
       transform="translate(174.10714,529.32649)">
      <g
         id="g4137">
        <path
           style="opacity:1;fill:#f7a5a5;fill-opacity:1;stroke:#ef4d4d;stroke-width:9.43589783;stroke-linecap:butt;stroke-linejoin:miter;stroke-miterlimit:4;stroke-dasharray:none;stroke-dashoffset:0;stroke-opacity:1"
           d="M -53.59993,30.453411 A 45.282051,45.282051 0 0 1 -98.881981,75.735462 45.282051,45.282051 0 0 1 -144.16403,30.453411 45.282051,45.282051 0 0 1 -98.881981,-14.82864 45.282051,45.282051 0 0 1 -53.59993,30.453411 Z"
           id="path4355-9" />
        <g
           id="g4719"
           transform="translate(-127.56382,-0.2985279)">
          <rect
             id="rect4677"
             height="12"
             width="55"
             style="fill:#ed3737;fill-opacity:1"
             y="13.002"
             x="1" />
          <rect
             id="rect4679"
             height="30"
             width="46"
             style="fill:#ef4d4d"
             y="25.002001"
             x="6" />
          <path
             id="path4681"
             d="m 56,12.002 -14.259,0 C 42.556,10.837 43,9.453 43,7.995 43,6.12 42.274,4.362 40.957,3.045 c -2.729,-2.729 -7.17,-2.729 -9.899,0 L 28.229,5.874 25.401,3.045 c -2.729,-2.729 -7.17,-2.729 -9.899,0 -1.317,1.317 -2.043,3.075 -2.043,4.95 0,1.458 0.444,2.842 1.259,4.007 L 1,12.002 c -0.552,0 -1,0.447 -1,1 0,0.553 0.448,1 1,1 l 27,0 0,24 -22,0 c -0.552,0 -1,0.447 -1,1 0,0.553 0.448,1 1,1 l 22,0 0,15 c 0,0.553 0.448,1 1,1 0.552,0 1,-0.447 1,-1 l 0,-15 22,0 c 0.552,0 1,-0.447 1,-1 0,-0.553 -0.448,-1 -1,-1 l -22,0 0,-24 26,0 c 0.552,0 1,-0.447 1,-1 0,-0.553 -0.448,-1 -1,-1 z M 32.472,4.459 c 1.95,-1.949 5.122,-1.949 7.071,0 0.939,0.94 1.457,2.195 1.457,3.536 0,1.34 -0.518,2.596 -1.457,3.535 l -0.472,0.472 -14.142,0 4.006,-4.006 0.001,-0.001 0.001,-0.001 3.535,-3.535 z M 16.916,11.53 c -0.939,-0.939 -1.457,-2.195 -1.457,-3.535 0,-1.341 0.518,-2.596 1.457,-3.536 1.95,-1.949 5.122,-1.949 7.071,0 l 2.828,2.829 -3.536,3.536 c -0.331,0.331 -0.622,0.735 -0.898,1.179 l -4.994,0 -0.471,-0.473 z"
             style="fill:#fbd2d2;fill-opacity:1;stroke-width:2;stroke-miterlimit:4;stroke-dasharray:none"
             inkscape:connector-curvature="0" />
          <g
             id="g4683" />
          <g
             id="g4685" />
          <g
             id="g4687" />
          <g
             id="g4689" />
          <g
             id="g4691" />
          <g
             id="g4693" />
          <g
             id="g4695" />
          <g
             id="g4697" />
          <g
             id="g4699" />
          <g
             id="g4701" />
          <g
             id="g4703" />
          <g
             id="g4705" />
          <g
             id="g4707" />
          <g
             id="g4709" />
          <g
             id="g4711" />
        </g>
      </g>
      <g
         id="g4193" />
      <g
         id="g4195" />
      <g
         id="g4197" />
      <g
         id="g4199" />
      <g
         id="g4201" />
      <g
         id="g4203" />
      <g
         id="g4205" />
      <g
         id="g4207" />
      <g
         id="g4209" />
      <g
         id="g4211" />
      <g
         id="g4213" />
      <g
         id="g4215" />
      <g
         id="g4217" />
      <g
         id="g4219" />
      <g
         id="g4221" />
    </g>
  </g>
</svg>
