<?xml version="1.0" encoding="UTF-8" standalone="no"?>
<!-- Created with Inkscape (http://www.inkscape.org/) -->

<svg
   xmlns:dc="http://purl.org/dc/elements/1.1/"
   xmlns:cc="http://creativecommons.org/ns#"
   xmlns:rdf="http://www.w3.org/1999/02/22-rdf-syntax-ns#"
   xmlns:svg="http://www.w3.org/2000/svg"
   xmlns="http://www.w3.org/2000/svg"
   xmlns:sodipodi="http://sodipodi.sourceforge.net/DTD/sodipodi-0.dtd"
   xmlns:inkscape="http://www.inkscape.org/namespaces/inkscape"
   width="28.222221mm"
   height="28.222221mm"
   viewBox="0 0 99.999997 99.999997"
   id="svg2"
   version="1.1"
   inkscape:version="0.91 r13725"
   sodipodi:docname="marker_drink.svg">
  <defs
     id="defs4" />
  <sodipodi:namedview
     id="base"
     pagecolor="#ffffff"
     bordercolor="#666666"
     borderopacity="1.0"
     inkscape:pageopacity="0.0"
     inkscape:pageshadow="2"
     inkscape:zoom="4"
     inkscape:cx="47.892164"
     inkscape:cy="30.266643"
     inkscape:document-units="px"
     inkscape:current-layer="g4431"
     showgrid="false"
     showguides="true"
     inkscape:guide-bbox="true"
     inkscape:window-width="1920"
     inkscape:window-height="1017"
     inkscape:window-x="1358"
     inkscape:window-y="-8"
     inkscape:window-maximized="1"
     fit-margin-top="0"
     fit-margin-left="0"
     fit-margin-right="0"
     fit-margin-bottom="0">
    <sodipodi:guide
       position="-234.35538,-8.5862963"
       orientation="1,0"
       id="guide5075" />
    <sodipodi:guide
       position="183.34268,-211.62695"
       orientation="0,1"
       id="guide5077" />
  </sodipodi:namedview>
  <metadata
     id="metadata7">
    <rdf:RDF>
      <cc:Work
         rdf:about="">
        <dc:format>image/svg+xml</dc:format>
        <dc:type
           rdf:resource="http://purl.org/dc/dcmitype/StillImage" />
        <dc:title />
      </cc:Work>
    </rdf:RDF>
  </metadata>
  <g
     inkscape:label="Layer 1"
     inkscape:groupmode="layer"
     id="layer1"
     transform="translate(-25.225159,-509.7799)">
    <g
       id="g4229"
       transform="translate(174.10714,529.32649)">
      <g
         id="g4137">
        <g
           id="g4406"
           transform="matrix(0.12480643,0,0,0.12480643,-130.30301,-4.590563)">
          <g
             id="g4356">
            <g
               id="g4431">
              <path
                 sodipodi:nodetypes="ssssss"
                 inkscape:connector-curvature="0"
                 id="path4355-9"
                 d="m -53.59993,30.453411 c 0,25.008586 -20.273465,45.282051 -45.282051,45.282051 -25.008589,-10e-7 -45.282049,-20.273466 -45.282049,-45.282051 0,-25.0085854 20.27346,-45.282051 45.282049,-45.282051 16.940728,0 31.708671,9.3028037 39.473978,23.0785624 3.698152,6.5605716 5.808073,14.1356306 5.808073,22.2034886 z"
                 style="opacity:1;fill:#9bc9d0;fill-opacity:1;stroke:#4c8ea3;stroke-width:9.43589783;stroke-linecap:butt;stroke-linejoin:miter;stroke-miterlimit:4;stroke-dasharray:none;stroke-dashoffset:0;stroke-opacity:1"
                 transform="matrix(8.0124077,0,0,8.0124077,1044.0408,36.781462)" />
              <path
                 inkscape:connector-curvature="0"
                 style="fill:#ffffff;fill-opacity:1"
                 d="m 313.07825,512 -138.665,0 c -7.619,0 -14.067,-5.615 -15.117,-13.164 l -41.559,-299.242 260.339,0 -49.95,299.659 c -1.224,7.358 -7.585,12.747 -15.048,12.747"
                 id="path4358" />
              <polygon
                 transform="translate(-8.093754,0)"
                 style="fill:#427b8d;fill-opacity:1"
                 points="133.062,251.661 157.161,425.22 348.562,425.22 377.485,251.661 "
                 id="polygon4360" />
              <path
                 inkscape:connector-curvature="0"
                 style="fill:#ffffff;fill-opacity:1"
                 d="m 360.78525,164.881 c -17.825,-44.943 -61.596,-76.765 -112.883,-76.765 -51.287,0 -95.058,31.822 -112.883,76.765 l 225.766,0 z"
                 id="path4364" />
              <path
                 inkscape:connector-curvature="0"
                 style="fill:#427b8d;fill-opacity:1"
                 d="m 289.67805,193.75554 c -0.65679,0 -1.32647,-0.0419 -1.99776,-0.14006 -7.62727,-1.08983 -12.93641,-8.17299 -11.84657,-15.81313 l 13.9699,-97.789306 c 0.61495,-4.261161 3.15684,-8.003961 6.90124,-10.141785 L 394.49418,13.99165 c 6.67747,-3.840999 15.22716,-1.508388 19.05528,5.196456 3.841,6.691966 1.50839,15.227162 -5.19645,19.055282 l -91.85235,52.484525 -13.00563,91.041007 c -0.99164,6.95758 -6.97046,11.98662 -13.81698,11.98662"
                 id="path4366" />
              <path
                 inkscape:connector-curvature="0"
                 style="fill:#bbdadf;fill-opacity:1"
                 d="m 299.97125,338.68 c 0,-28.759 -23.309,-52.068 -52.068,-52.068 -28.759,0 -52.068,23.309 -52.068,52.068 0,28.759 23.309,52.068 52.068,52.068 28.759,0 52.068,-23.309 52.068,-52.068"
                 id="path4368" />
              <path
                 id="path4192"
                 d="m 289.67805,192.32475 c -0.65679,0 -1.32647,-0.0419 -1.99776,-0.14006 -7.62727,-1.08983 -12.93641,-8.17299 -11.84657,-15.81313 l 11.81925,-81.616937 26.45112,13.026487 -10.60906,72.55702 c -0.99164,6.95758 -6.97046,11.98662 -13.81698,11.98662"
                 style="fill:#bbdadf;fill-opacity:1"
                 inkscape:connector-curvature="0"
                 sodipodi:nodetypes="ccccccc" />
              <path
                 inkscape:connector-curvature="0"
                 style="fill:#427b8d;fill-opacity:1"
                 d="m 379.28225,199.593 -262.76,0 c -8.912,0 -16.141,-7.229 -16.141,-16.15 l 0,-2.412 c 0,-8.921 7.229,-16.15 16.141,-16.15 l 262.76,0 c 8.921,0 16.15,7.229 16.15,16.15 l 0,2.412 c -0.001,8.921 -7.229,16.15 -16.15,16.15"
                 id="path4362" />
            </g>
          </g>
          <g
             id="g4370" />
          <g
             id="g4372" />
          <g
             id="g4374" />
          <g
             id="g4376" />
          <g
             id="g4378" />
          <g
             id="g4380" />
          <g
             id="g4382" />
          <g
             id="g4384" />
          <g
             id="g4386" />
          <g
             id="g4388" />
          <g
             id="g4390" />
          <g
             id="g4392" />
          <g
             id="g4394" />
          <g
             id="g4396" />
          <g
             id="g4398" />
        </g>
      </g>
      <g
         id="g4193" />
      <g
         id="g4195" />
      <g
         id="g4197" />
      <g
         id="g4199" />
      <g
         id="g4201" />
      <g
         id="g4203" />
      <g
         id="g4205" />
      <g
         id="g4207" />
      <g
         id="g4209" />
      <g
         id="g4211" />
      <g
         id="g4213" />
      <g
         id="g4215" />
      <g
         id="g4217" />
      <g
         id="g4219" />
      <g
         id="g4221" />
    </g>
  </g>
</svg>
