<?xml version="1.0" encoding="UTF-8" standalone="no"?>
<!-- Created with Inkscape (http://www.inkscape.org/) -->

<svg
   xmlns:dc="http://purl.org/dc/elements/1.1/"
   xmlns:cc="http://creativecommons.org/ns#"
   xmlns:rdf="http://www.w3.org/1999/02/22-rdf-syntax-ns#"
   xmlns:svg="http://www.w3.org/2000/svg"
   xmlns="http://www.w3.org/2000/svg"
   xmlns:sodipodi="http://sodipodi.sourceforge.net/DTD/sodipodi-0.dtd"
   xmlns:inkscape="http://www.inkscape.org/namespaces/inkscape"
   width="28.222221mm"
   height="28.222221mm"
   viewBox="0 0 99.999997 99.999997"
   id="svg2"
   version="1.1"
   inkscape:version="0.91 r13725"
   sodipodi:docname="marker_food.svg">
  <defs
     id="defs4" />
  <sodipodi:namedview
     id="base"
     pagecolor="#ffffff"
     bordercolor="#666666"
     borderopacity="1.0"
     inkscape:pageopacity="0.0"
     inkscape:pageshadow="2"
     inkscape:zoom="3.959798"
     inkscape:cx="-5.3103384"
     inkscape:cy="36.346784"
     inkscape:document-units="px"
     inkscape:current-layer="g5274"
     showgrid="false"
     showguides="true"
     inkscape:guide-bbox="true"
     inkscape:window-width="1920"
     inkscape:window-height="1017"
     inkscape:window-x="1358"
     inkscape:window-y="-8"
     inkscape:window-maximized="1"
     fit-margin-top="0"
     fit-margin-left="0"
     fit-margin-right="0"
     fit-margin-bottom="0">
    <sodipodi:guide
       position="-7.2190144,25.251501"
       orientation="0,1"
       id="guide4754" />
    <sodipodi:guide
       position="-6.5047244,75.608638"
       orientation="0,1"
       id="guide4756" />
    <sodipodi:guide
       position="-69.81979,75.608638"
       orientation="1,0"
       id="guide5075" />
    <sodipodi:guide
       position="17.053326,49.38197"
       orientation="0,1"
       id="guide5077" />
  </sodipodi:namedview>
  <metadata
     id="metadata7">
    <rdf:RDF>
      <cc:Work
         rdf:about="">
        <dc:format>image/svg+xml</dc:format>
        <dc:type
           rdf:resource="http://purl.org/dc/dcmitype/StillImage" />
        <dc:title />
      </cc:Work>
    </rdf:RDF>
  </metadata>
  <g
     inkscape:label="Layer 1"
     inkscape:groupmode="layer"
     id="layer1"
     transform="translate(-145.07616,-509.04227)">
    <g
       id="g4229"
       transform="translate(174.10714,529.32649)">
      <g
         id="g4137">
        <circle
           style="opacity:1;fill:#f7d8a9;fill-opacity:1;stroke:#eeaf4b;stroke-width:9.43589783;stroke-linecap:butt;stroke-linejoin:miter;stroke-miterlimit:4;stroke-dasharray:none;stroke-dashoffset:0;stroke-opacity:1"
           id="path4355-9-0"
           cx="20.969017"
           cy="29.715782"
           r="45.282051" />
        <g
           id="g5322"
           transform="translate(-6.6493159,1.9661188)">
          <g
             id="g5268">
            <path
               id="path5270"
               d="M 53,5.814 C 52.47,5.017 51.74,4.503 50.943,4.242 50.444,4.079 50.067,3.702 49.904,3.203 49.643,2.405 49.129,1.675 48.332,1.145 46.912,0.201 44.968,0.285 43.638,1.352 42.579,2.201 42.083,3.438 42.142,4.656 42.208,6.031 41.81,7.388 40.836,8.361 l -8.431,8.431 c -0.062,0.062 -0.112,0.131 -0.169,0.197 l -0.877,2.924 c 0.052,0.326 0.147,0.647 0.302,0.952 0.011,0.022 0.028,0.037 0.04,0.059 l 2.283,-0.761 0,2.542 c 1.15,0.28 2.413,-0.005 3.307,-0.899 l 8.496,-8.496 c 0.974,-0.974 2.33,-1.372 3.706,-1.306 1.218,0.058 2.456,-0.437 3.304,-1.497 C 53.86,9.177 53.944,7.234 53,5.814 Z"
               style="fill:#f5f5f5;fill-opacity:1"
               inkscape:connector-curvature="0" />
            <path
               id="path5272"
               d="M 47.342,5.88 46.598,5.212 C 47.457,4.253 48.687,3.69 49.971,3.664 l 0.02,1 c -1.008,0.02 -1.973,0.463 -2.649,1.216 z"
               style="fill:#dfdfdf;fill-opacity:1"
               inkscape:connector-curvature="0" />
            <g
               id="g5274">
              <path
                 id="path5276"
                 d="m 33.981,24.164 0,-4 -3,1 1.902,-6.34 c -1.38,0.021 -2.754,0.542 -3.802,1.59 -4.132,4.132 -9.603,6.534 -15.411,7.178 -3.14,0.348 -6.187,1.732 -8.586,4.155 -5.3,5.352 -5.494,14.16 -0.42,19.726 5.547,6.086 14.984,6.25 20.741,0.493 2.149,-2.149 3.471,-4.809 3.969,-7.589 1.049,-5.857 4.075,-11.179 8.283,-15.387 0.256,-0.256 0.47,-0.536 0.664,-0.825 l -4.34,0 z"
                 style="fill:#e9991a;fill-opacity:1"
                 inkscape:connector-curvature="0" />
              <path
                 id="path5278"
                 d="m 15.282,53.164 c -0.123,0 -0.245,-0.001 -0.368,-0.004 C 10.685,53.062 6.783,51.281 3.926,48.146 -1.478,42.217 -1.277,32.75 4.374,27.042 c 2.458,-2.482 5.721,-4.062 9.188,-4.446 5.83,-0.646 10.952,-3.028 14.813,-6.891 1.189,-1.188 2.785,-1.856 4.494,-1.882 l 1.365,-0.021 -1.741,5.803 2.488,-0.83 0,4.388 5.215,0 -1.043,1.557 c -0.261,0.389 -0.511,0.698 -0.788,0.976 -4.259,4.259 -7.027,9.396 -8.006,14.856 -0.553,3.088 -2.021,5.896 -4.246,8.12 -2.904,2.905 -6.738,4.492 -10.831,4.492 z M 31.464,16.073 c -0.628,0.218 -1.2,0.572 -1.676,1.047 -4.186,4.187 -9.721,6.768 -16.007,7.465 -3.057,0.339 -5.818,1.676 -7.986,3.865 -4.915,4.963 -5.09,13.195 -0.391,18.349 2.485,2.728 5.88,4.276 9.556,4.361 3.707,0.091 7.138,-1.3 9.739,-3.901 1.935,-1.935 3.211,-4.375 3.691,-7.06 0.984,-5.489 3.642,-10.664 7.71,-15.035 l -3.119,0 0,-3.612 -3.512,1.17 1.995,-6.649 z"
                 style="fill:#e9991a;fill-opacity:1"
                 inkscape:connector-curvature="0" />
            </g>
            <path
               id="path5280"
               d="m 25.317,41.671 c -0.144,0 -0.289,-0.031 -0.428,-0.097 -0.499,-0.236 -0.712,-0.833 -0.475,-1.332 0.461,-0.972 0.789,-1.995 0.976,-3.042 0.096,-0.544 0.605,-0.91 1.16,-0.809 0.543,0.097 0.905,0.616 0.809,1.16 -0.218,1.222 -0.601,2.415 -1.138,3.548 -0.171,0.361 -0.529,0.572 -0.904,0.572 z"
               style="fill:#fbd490"
               inkscape:connector-curvature="0" />
            <path
               id="path5282"
               d="m 14.31,49.835 c -0.48,0 -0.904,-0.347 -0.985,-0.836 -0.091,-0.544 0.277,-1.06 0.822,-1.15 3.313,-0.553 6.435,-2.352 8.565,-4.936 0.35,-0.426 0.981,-0.487 1.407,-0.136 0.427,0.352 0.487,0.981 0.136,1.407 -2.433,2.951 -5.998,5.006 -9.78,5.637 -0.056,0.01 -0.11,0.014 -0.165,0.014 z"
               style="fill:#fbd490"
               inkscape:connector-curvature="0" />
            <circle
               id="circle5284"
               r="2"
               cy="30.164"
               cx="10.981"
               style="fill:#fbd490" />
          </g>
          <g
             id="g5286" />
          <g
             id="g5288" />
          <g
             id="g5290" />
          <g
             id="g5292" />
          <g
             id="g5294" />
          <g
             id="g5296" />
          <g
             id="g5298" />
          <g
             id="g5300" />
          <g
             id="g5302" />
          <g
             id="g5304" />
          <g
             id="g5306" />
          <g
             id="g5308" />
          <g
             id="g5310" />
          <g
             id="g5312" />
          <g
             id="g5314" />
        </g>
      </g>
      <g
         id="g4193" />
      <g
         id="g4195" />
      <g
         id="g4197" />
      <g
         id="g4199" />
      <g
         id="g4201" />
      <g
         id="g4203" />
      <g
         id="g4205" />
      <g
         id="g4207" />
      <g
         id="g4209" />
      <g
         id="g4211" />
      <g
         id="g4213" />
      <g
         id="g4215" />
      <g
         id="g4217" />
      <g
         id="g4219" />
      <g
         id="g4221" />
    </g>
  </g>
</svg>
