<?xml version="1.0" encoding="UTF-8" standalone="no"?>
<!-- Created with Inkscape (http://www.inkscape.org/) -->

<svg
   xmlns:dc="http://purl.org/dc/elements/1.1/"
   xmlns:cc="http://creativecommons.org/ns#"
   xmlns:rdf="http://www.w3.org/1999/02/22-rdf-syntax-ns#"
   xmlns:svg="http://www.w3.org/2000/svg"
   xmlns="http://www.w3.org/2000/svg"
   xmlns:sodipodi="http://sodipodi.sourceforge.net/DTD/sodipodi-0.dtd"
   xmlns:inkscape="http://www.inkscape.org/namespaces/inkscape"
   width="28.222221mm"
   height="28.222221mm"
   viewBox="0 0 99.999997 99.999997"
   id="svg2"
   version="1.1"
   inkscape:version="0.91 r13725"
   sodipodi:docname="marker_gift.svg">
  <defs
     id="defs4" />
  <sodipodi:namedview
     id="base"
     pagecolor="#ffffff"
     bordercolor="#666666"
     borderopacity="1.0"
     inkscape:pageopacity="0.0"
     inkscape:pageshadow="2"
     inkscape:zoom="2.8"
     inkscape:cx="-1.4818428"
     inkscape:cy="32.87294"
     inkscape:document-units="px"
     inkscape:current-layer="g4137"
     showgrid="false"
     showguides="true"
     inkscape:guide-bbox="true"
     inkscape:window-width="1920"
     inkscape:window-height="1017"
     inkscape:window-x="1358"
     inkscape:window-y="-8"
     inkscape:window-maximized="1"
     fit-margin-top="0"
     fit-margin-left="0"
     fit-margin-right="0"
     fit-margin-bottom="0">
    <sodipodi:guide
       position="-234.35538,-8.5862963"
       orientation="1,0"
       id="guide5075" />
    <sodipodi:guide
       position="183.34268,-211.62695"
       orientation="0,1"
       id="guide5077" />
  </sodipodi:namedview>
  <metadata
     id="metadata7">
    <rdf:RDF>
      <cc:Work
         rdf:about="">
        <dc:format>image/svg+xml</dc:format>
        <dc:type
           rdf:resource="http://purl.org/dc/dcmitype/StillImage" />
        <dc:title />
      </cc:Work>
    </rdf:RDF>
  </metadata>
  <g
     inkscape:label="Layer 1"
     inkscape:groupmode="layer"
     id="layer1"
     transform="translate(-25.225159,-509.7799)">
    <g
       id="g4229"
       transform="translate(174.10714,529.32649)">
      <g
         id="g4137">
        <path
           style="opacity:1;fill:#c3a0d9;fill-opacity:1;stroke:#713b90;stroke-width:9.43589783;stroke-linecap:butt;stroke-linejoin:miter;stroke-miterlimit:4;stroke-dasharray:none;stroke-dashoffset:0;stroke-opacity:1"
           d="m -53.59993,30.453411 c 0,25.008586 -20.273465,45.282051 -45.282051,45.282051 -25.008589,-10e-7 -45.282049,-20.273466 -45.282049,-45.282051 0,-25.0085854 20.27346,-45.282051 45.282049,-45.282051 16.940728,0 31.708671,9.3028037 39.473978,23.0785624 3.698152,6.5605716 5.808073,14.1356306 5.808073,22.2034886 z"
           id="path4355-9"
           inkscape:connector-curvature="0"
           sodipodi:nodetypes="ssssss" />
        <g
           transform="translate(-126.5201,2.8154565)"
           id="g3">
          <path
             inkscape:connector-curvature="0"
             style="fill:#9f47d8;fill-opacity:1"
             d="M 8.654,20.016 C 5.117,16.479 4.708,11.163 7.74,8.131 L 8.654,7.217 c 3.032,-3.032 8.348,-2.623 11.885,0.914 3.282,3.282 3.282,8.603 0,11.885 -3.282,3.282 -8.603,3.282 -11.885,0 z"
             id="path5" />
          <path
             inkscape:connector-curvature="0"
             style="fill:#ca81f8;fill-opacity:1"
             d="m 12.995,11.183 c -1.084,0 -2.167,-0.412 -2.993,-1.237 -0.391,-0.391 -0.391,-1.023 0,-1.414 0.39,-0.391 1.023,-0.391 1.414,0 0.87,0.869 2.287,0.869 3.157,0 0.391,-0.391 1.024,-0.391 1.415,0 0.39,0.391 0.39,1.024 0,1.414 -0.826,0.825 -1.91,1.237 -2.993,1.237 z"
             id="path7" />
          <path
             inkscape:connector-curvature="0"
             style="fill:#9054b6;fill-opacity:1"
             d="m 6.85,33.982 4.5,11.085 c 2.97,5.46 5.36,6.893 11.163,9.118 3.793,1.455 10.978,1.455 14.742,0 5.742,-2.219 8.171,-3.616 11.112,-9.023 l 4.551,-11.18 c -2.546,-2.521 -6.667,0.291 -9.214,2.812 -2.533,-2.521 -6.634,-0.726 -9.167,1.795 -2.533,-2.521 -6.634,-2.521 -9.167,0 -2.559,-2.521 -6.701,-4.316 -9.26,-1.795 -2.559,-2.521 -6.701,-5.332 -9.26,-2.812 z"
             id="path9" />
          <path
             inkscape:connector-curvature="0"
             style="fill:#b651f5;fill-opacity:1"
             d="m 19.749,49.09 c -0.376,0 -0.736,-0.213 -0.906,-0.576 L 16.079,42.61 c -0.234,-0.5 -0.019,-1.096 0.482,-1.329 0.501,-0.233 1.096,-0.02 1.33,0.481 l 2.764,5.904 c 0.234,0.5 0.019,1.096 -0.482,1.329 -0.138,0.065 -0.282,0.095 -0.424,0.095 z"
             id="path11" />
          <path
             inkscape:connector-curvature="0"
             style="fill:#b651f5;fill-opacity:1"
             d="m 40.018,49.09 c -0.142,0 -0.287,-0.03 -0.423,-0.095 -0.5,-0.233 -0.716,-0.829 -0.482,-1.329 l 2.764,-5.904 c 0.233,-0.501 0.831,-0.719 1.33,-0.481 0.5,0.233 0.716,0.829 0.482,1.329 l -2.764,5.904 c -0.171,0.363 -0.531,0.576 -0.907,0.576 z"
             id="path13" />
          <path
             inkscape:connector-curvature="0"
             style="fill:#b651f5;fill-opacity:1"
             d="m 33.57,51.186 c -0.051,0 -0.104,-0.004 -0.156,-0.012 -0.545,-0.085 -0.919,-0.597 -0.834,-1.143 l 0.921,-5.904 c 0.085,-0.546 0.596,-0.916 1.143,-0.834 0.545,0.085 0.919,0.597 0.834,1.143 l -0.921,5.904 c -0.077,0.493 -0.503,0.846 -0.987,0.846 z"
             id="path15" />
          <path
             inkscape:connector-curvature="0"
             style="fill:#b651f5;fill-opacity:1"
             d="m 26.197,51.186 c -0.484,0 -0.91,-0.353 -0.987,-0.846 l -0.921,-5.904 c -0.085,-0.546 0.289,-1.058 0.834,-1.143 0.546,-0.082 1.057,0.288 1.143,0.834 l 0.921,5.904 c 0.085,0.546 -0.289,1.058 -0.834,1.143 -0.053,0.008 -0.105,0.012 -0.156,0.012 z"
             id="path17" />
          <path
             inkscape:connector-curvature="0"
             style="fill:#faf3fe;fill-opacity:1"
             d="m 49.822,25.258 c 0.146,-0.497 0.224,-1.006 0.224,-1.524 0,-2.784 -2.196,-5.308 -5.757,-7.161 0,0 0.094,-16.011 -12.962,-14.717 0,0 4.21,6.817 -1.689,6.879 -2.875,0.03 -5.551,0.412 -7.827,1.048 1.922,3.226 1.504,7.458 -1.273,10.235 -2.88,2.88 -7.331,3.231 -10.596,1.055 -0.452,0.85 -0.713,1.74 -0.713,2.662 0,0.518 0.078,1.027 0.224,1.524 -2.368,1.752 -3.746,3.831 -3.746,6.063 0,1.527 0.646,2.983 1.81,4.311 L 6.85,33.982 c 2.559,-2.521 6.701,0.291 9.26,2.812 2.559,-2.521 6.701,-0.726 9.26,1.795 2.533,-2.521 6.634,-2.521 9.167,0 2.533,-2.521 6.634,-4.316 9.167,-1.795 2.541,-2.515 6.649,-5.318 9.196,-2.826 0.433,-0.85 0.668,-1.735 0.668,-2.648 0,-2.232 -1.378,-4.31 -3.746,-6.062 z"
             id="path19" />
          <path
             inkscape:connector-curvature="0"
             style="fill:#791fac;fill-opacity:1"
             d="M 12.708,8.186 C 12.195,8.186 11.759,7.793 11.713,7.274 11.708,7.221 11.455,4.859 9.511,3.342 7.956,2.129 5.718,1.739 2.86,2.174 2.32,2.259 1.804,1.884 1.72,1.337 1.636,0.791 2.011,0.281 2.557,0.197 c 3.44,-0.529 6.204,0.007 8.211,1.59 2.636,2.077 2.925,5.184 2.937,5.314 0.046,0.551 -0.362,1.034 -0.913,1.08 -0.028,0.004 -0.056,0.005 -0.084,0.005 z"
             id="path21" />
          <path
             inkscape:connector-curvature="0"
             style="fill:#e4c1fc;fill-opacity:1"
             d="m 29.886,20.146 c -0.552,0 -1,-0.447 -1,-1 0,-0.553 0.448,-1 1,-1 4.132,0 8.052,-0.523 11.335,-1.515 0.527,-0.159 1.087,0.14 1.247,0.668 0.159,0.529 -0.14,1.087 -0.668,1.246 -3.469,1.047 -7.589,1.601 -11.914,1.601 z"
             id="path23" />
          <path
             inkscape:connector-curvature="0"
             style="fill:#e4c1fc;fill-opacity:1"
             d="m 15.053,29.104 c -0.114,0 -0.229,-0.02 -0.342,-0.061 -1.111,-0.404 -2.181,-0.875 -3.181,-1.398 -0.489,-0.256 -0.679,-0.859 -0.423,-1.35 0.256,-0.489 0.86,-0.68 1.35,-0.422 0.922,0.481 1.911,0.916 2.939,1.291 0.519,0.189 0.786,0.763 0.597,1.282 -0.148,0.406 -0.532,0.658 -0.94,0.658 z"
             id="path25" />
          <path
             inkscape:connector-curvature="0"
             style="fill:#e4c1fc;fill-opacity:1"
             d="m 29.636,31.451 c -2.042,0 -4.073,-0.123 -6.08,-0.37 -0.548,-0.067 -0.938,-0.565 -0.871,-1.114 0.068,-0.548 0.575,-0.938 1.115,-0.87 4.012,0.493 8.124,0.472 12.222,-0.061 0.55,-0.08 1.049,0.314 1.121,0.862 0.072,0.548 -0.315,1.05 -0.863,1.12 -2.217,0.289 -4.437,0.433 -6.644,0.433 z"
             id="path27" />
          <path
             inkscape:connector-curvature="0"
             style="fill:#e4c1fc;fill-opacity:1"
             d="m 41.71,29.931 c -0.44,0 -0.843,-0.292 -0.964,-0.737 -0.145,-0.532 0.169,-1.082 0.702,-1.228 2.07,-0.564 3.914,-1.271 5.48,-2.098 0.488,-0.256 1.094,-0.07 1.351,0.418 0.258,0.488 0.071,1.093 -0.417,1.352 -1.695,0.895 -3.676,1.654 -5.887,2.258 -0.089,0.024 -0.178,0.035 -0.265,0.035 z"
             id="path29" />
        </g>
      </g>
      <g
         id="g4193" />
      <g
         id="g4195" />
      <g
         id="g4197" />
      <g
         id="g4199" />
      <g
         id="g4201" />
      <g
         id="g4203" />
      <g
         id="g4205" />
      <g
         id="g4207" />
      <g
         id="g4209" />
      <g
         id="g4211" />
      <g
         id="g4213" />
      <g
         id="g4215" />
      <g
         id="g4217" />
      <g
         id="g4219" />
      <g
         id="g4221" />
    </g>
  </g>
</svg>
