<?xml version="1.0" encoding="UTF-8" standalone="no"?>
<!-- Created with Inkscape (http://www.inkscape.org/) -->

<svg
   xmlns:dc="http://purl.org/dc/elements/1.1/"
   xmlns:cc="http://creativecommons.org/ns#"
   xmlns:rdf="http://www.w3.org/1999/02/22-rdf-syntax-ns#"
   xmlns:svg="http://www.w3.org/2000/svg"
   xmlns="http://www.w3.org/2000/svg"
   xmlns:sodipodi="http://sodipodi.sourceforge.net/DTD/sodipodi-0.dtd"
   xmlns:inkscape="http://www.inkscape.org/namespaces/inkscape"
   width="28.222221mm"
   height="28.222221mm"
   viewBox="0 0 99.999997 99.999997"
   id="svg2"
   version="1.1"
   inkscape:version="0.91 r13725"
   sodipodi:docname="marker_alcohol.svg">
  <defs
     id="defs4" />
  <sodipodi:namedview
     id="base"
     pagecolor="#ffffff"
     bordercolor="#666666"
     borderopacity="1.0"
     inkscape:pageopacity="0.0"
     inkscape:pageshadow="2"
     inkscape:zoom="6.5584154"
     inkscape:cx="20.989805"
     inkscape:cy="57.947765"
     inkscape:document-units="px"
     inkscape:current-layer="g5268"
     showgrid="false"
     showguides="true"
     inkscape:guide-bbox="true"
     inkscape:window-width="1920"
     inkscape:window-height="1017"
     inkscape:window-x="1358"
     inkscape:window-y="-8"
     inkscape:window-maximized="1"
     fit-margin-top="0"
     fit-margin-left="0"
     fit-margin-right="0"
     fit-margin-bottom="0">
    <sodipodi:guide
       position="-7.2190144,25.251501"
       orientation="0,1"
       id="guide4754" />
    <sodipodi:guide
       position="-6.5047244,75.608638"
       orientation="0,1"
       id="guide4756" />
    <sodipodi:guide
       position="-69.81979,75.608638"
       orientation="1,0"
       id="guide5075" />
    <sodipodi:guide
       position="17.053326,49.38197"
       orientation="0,1"
       id="guide5077" />
  </sodipodi:namedview>
  <metadata
     id="metadata7">
    <rdf:RDF>
      <cc:Work
         rdf:about="">
        <dc:format>image/svg+xml</dc:format>
        <dc:type
           rdf:resource="http://purl.org/dc/dcmitype/StillImage" />
        <dc:title />
      </cc:Work>
    </rdf:RDF>
  </metadata>
  <g
     inkscape:label="Layer 1"
     inkscape:groupmode="layer"
     id="layer1"
     transform="translate(-145.07616,-509.04227)">
    <g
       id="g4229"
       transform="translate(174.10714,529.32649)">
      <g
         id="g4137">
        <circle
           style="opacity:1;fill:#ae64f2;fill-opacity:1;stroke:#5a0d8f;stroke-width:9.43589783;stroke-linecap:butt;stroke-linejoin:miter;stroke-miterlimit:4;stroke-dasharray:none;stroke-dashoffset:0;stroke-opacity:1"
           id="path4355-9-0"
           cx="20.969017"
           cy="29.715782"
           r="45.282051" />
        <g
           id="g5322"
           transform="translate(-6.6493159,1.9661188)">
          <g
             id="g5268">
            <g
               id="g4429"
               transform="matrix(1.1240833,0,0,1.1240833,-3.2485188,1.3454099)">
              <g
                 id="g4339">
                <g
                   id="g4355"
                   style="fill:#ee4b9f;fill-opacity:1"
                   transform="matrix(1,0,0,0.99458553,0,0.02061829)">
                  <g
                     id="g4788"
                     transform="matrix(0.88961379,0,0,0.8944568,-67.3826,-0.83206739)">
                    <g
                       id="g4714">
                      <g
                         id="g5048"
                         transform="matrix(1.1209291,0,0,1.1209291,72.391092,-4.9027508)">
                        <g
                           id="g5002">
                          <g
                             id="g5133"
                             transform="matrix(1.0467003,0,0,1.0467003,95.54392,2.3089796)">
                            <g
                               id="g5071">
                              <g
                                 id="g5073"
                                 style="fill:#f3f3f3;fill-opacity:1"
                                 transform="translate(-90.566038,-2.8032345)">
                                <path
                                   id="path5075"
                                   d="M 40.753,20.669 38.02,2.63 C 38.005,2.633 37.992,2.639 37.978,2.642 37.983,2.668 38,2.695 38,2.722 38,3.827 33.523,4.5 28,4.5 22.477,4.5 18,3.827 18,2.722 18,2.706 18.008,2.69 18.014,2.674 18.001,2.667 17.99,2.659 17.977,2.652 l -2.73,18.017 C 14.065,28.474 20.107,35.5 28,35.5 c 7.893,0 13.935,-7.026 12.753,-14.831 z"
                                   style="fill:#f3f3f3;fill-opacity:1"
                                   inkscape:connector-curvature="0" />
                                <path
                                   id="path5077"
                                   d="M 28,36 C 24.092,36 20.389,34.301 17.841,31.337 15.293,28.374 14.167,24.458 14.753,20.594 L 17.483,2.577 C 17.507,2.415 17.61,2.275 17.757,2.203 17.904,2.13 18.078,2.136 18.221,2.216 18.402,2.318 18.525,2.532 18.507,2.737 18.749,3.123 21.423,4 28,4 c 6.477,0 9.169,-0.85 9.484,-1.272 -0.021,-0.125 0.005,-0.254 0.075,-0.36 0.074,-0.112 0.19,-0.19 0.323,-0.217 0.134,-0.028 0.292,-0.003 0.405,0.075 0.112,0.079 0.207,0.194 0.227,0.329 l 2.733,18.039 c 0.586,3.864 -0.54,7.78 -3.088,10.743 C 35.611,34.301 31.908,36 28,36 Z M 18.314,3.763 15.741,20.744 c -0.542,3.575 0.5,7.199 2.858,9.941 C 20.957,33.427 24.383,35 28,35 c 3.617,0 7.043,-1.572 9.401,-4.314 2.358,-2.742 3.399,-6.366 2.858,-9.941 L 37.686,3.763 C 35.686,4.859 30.515,5 28,5 25.485,5 20.314,4.859 18.314,3.763 Z"
                                   style="fill:#f3f3f3;fill-opacity:1"
                                   inkscape:connector-curvature="0" />
                              </g>
                              <g
                                 id="g5079"
                                 style="fill:#f3f3f3;fill-opacity:1"
                                 transform="translate(-90.566038,-2.8032345)">
                                <ellipse
                                   id="ellipse5081"
                                   ry="2.5"
                                   rx="11"
                                   cy="53"
                                   cx="28"
                                   style="fill:#f3f3f3;fill-opacity:1" />
                                <path
                                   id="path5083"
                                   d="m 28,56 c -3.978,0 -11.5,-0.627 -11.5,-3 0,-2.373 7.522,-3 11.5,-3 3.978,0 11.5,0.627 11.5,3 0,2.373 -7.522,3 -11.5,3 z m 0,-5 c -6.794,0 -10.5,1.321 -10.5,2 0,0.679 3.706,2 10.5,2 6.794,0 10.5,-1.321 10.5,-2 0,-0.679 -3.706,-2 -10.5,-2 z"
                                   style="fill:#f3f3f3;fill-opacity:1"
                                   inkscape:connector-curvature="0" />
                              </g>
                              <path
                                 id="path5085"
                                 d="m -62.657932,49.696766 c -1.211429,0 -2.194617,-0.447 -2.194617,-1 l 0,-16.141 c 0,-0.553 0.983188,-1 2.194617,-1 1.21143,0 2.194618,0.447 2.194618,1 l 0,16.141 c 0,0.553 -0.983188,1 -2.194618,1 z"
                                 style="fill:#f3f3f3;fill-opacity:1"
                                 inkscape:connector-curvature="0" />
                              <g
                                 id="g5087"
                                 style="fill:#f3f3f3;fill-opacity:1"
                                 transform="translate(-90.566038,-2.8032345)">
                                <path
                                   id="path5089"
                                   d="M 38,2.722 C 38,3.827 33.523,4.5 28,4.5 22.477,4.5 18,3.827 18,2.722 18,1.617 22.477,0.5 28,0.5 c 5.523,0 10,1.118 10,2.222 z"
                                   style="fill:#f3f3f3;fill-opacity:1"
                                   inkscape:connector-curvature="0" />
                                <path
                                   id="path5091"
                                   d="M 28,5 C 24.843,5 17.5,4.778 17.5,2.723 17.5,0.739 23.94,0 28,0 32.06,0 38.5,0.739 38.5,2.723 38.5,4.778 31.157,5 28,5 Z M 28,1 C 22.243,1 18.703,2.151 18.498,2.742 18.686,3.103 21.345,4 28,4 34.53,4 37.213,3.136 37.492,2.717 37.196,2.118 33.675,1 28,1 Z m 9.502,1.742 0.01,0 -0.01,0 z"
                                   style="fill:#f3f3f3;fill-opacity:1"
                                   inkscape:connector-curvature="0" />
                              </g>
                              <path
                                 id="path5093"
                                 d="m -52.138248,18.081778 0,0 0,0 c 0,-0.1484 -0.07296,-0.29763 -0.212238,-0.444373 -0.06964,-0.07378 -0.155863,-0.146743 -0.257836,-0.218041 -1.324002,-0.936833 -5.292689,-1.731897 -9.984312,-1.731897 -0.351519,0 -0.698893,0.005 -1.041293,0.01326 -0.111094,0.0024 -0.218042,0.0083 -0.328306,0.0116 -0.229648,0.0074 -0.458467,0.01492 -0.683141,0.02652 -0.130162,0.0066 -0.255349,0.01576 -0.383853,0.02322 -0.198973,0.0116 -0.398776,0.02404 -0.593603,0.03814 -0.136795,0.01 -0.268614,0.02322 -0.402092,0.03482 -0.179076,0.01576 -0.358152,0.03068 -0.532254,0.04892 -0.139281,0.0141 -0.274417,0.03068 -0.410382,0.04642 -0.161666,0.01824 -0.323332,0.03648 -0.480023,0.0572 -0.138452,0.01824 -0.272759,0.0373 -0.407066,0.05638 -0.145914,0.02072 -0.291827,0.04228 -0.433596,0.06466 -0.135965,0.02156 -0.266956,0.04394 -0.397946,0.06716 -0.13182,0.02322 -0.261982,0.04642 -0.388827,0.07047 -0.13182,0.02488 -0.259494,0.0514 -0.385511,0.07794 -0.115239,0.02404 -0.228819,0.04892 -0.339083,0.07378 -0.128504,0.02902 -0.252862,0.05886 -0.374733,0.08954 -0.09783,0.02487 -0.193999,0.04974 -0.287683,0.07462 -0.121871,0.03316 -0.240426,0.06632 -0.354835,0.100316 -0.0829,0.02488 -0.162495,0.04974 -0.242084,0.07544 -0.113581,0.03648 -0.223016,0.07296 -0.328306,0.110264 -0.06798,0.02404 -0.13182,0.04892 -0.195657,0.07378 -0.103632,0.0398 -0.204777,0.08042 -0.29846,0.121872 -0.05223,0.02322 -0.09949,0.04642 -0.148401,0.06964 -0.09285,0.04394 -0.182392,0.08788 -0.263639,0.132649 -0.03814,0.02072 -0.07047,0.04228 -0.10529,0.06384 -0.07959,0.04808 -0.156692,0.09617 -0.221358,0.144256 -0.02404,0.01824 -0.04146,0.03565 -0.06384,0.05388 -0.06384,0.05223 -0.126017,0.10529 -0.172443,0.15835 -0.01078,0.01244 -0.01741,0.0257 -0.02736,0.03814 -0.101144,0.125188 -0.164152,0.251204 -0.164152,0.37722 0,0.01576 0.0099,0.03068 0.0116,0.04642 l 0,-8.29e-4 -0.103632,0.683971 c -0.979114,6.470775 4.030038,12.295717 10.57377,12.295717 6.543732,0 11.552884,-5.824942 10.57294,-12.295717 l -0.145084,-0.729569 z"
                                 style="fill:#9a3def;fill-opacity:1"
                                 inkscape:connector-curvature="0" />
                              <path
                                 id="path5095"
                                 d="m -52.469167,17.664051 c 0,1.153455 -4.5351,1.856291 -10.128871,1.856291 -5.593771,0 -10.128871,-0.702836 -10.128871,-1.856291 0,-1.153454 4.5351,-2.320563 10.128871,-2.320563 5.593771,0 10.128871,1.167109 10.128871,2.320563 z"
                                 style="fill:#8213e8;fill-opacity:1"
                                 inkscape:connector-curvature="0" />
                            </g>
                            <g
                               id="g5097" />
                            <g
                               id="g5099" />
                            <g
                               id="g5101" />
                            <g
                               id="g5103" />
                            <g
                               id="g5105" />
                            <g
                               id="g5107" />
                            <g
                               id="g5109" />
                            <g
                               id="g5111" />
                            <g
                               id="g5113" />
                            <g
                               id="g5115" />
                            <g
                               id="g5117" />
                            <g
                               id="g5119" />
                            <g
                               id="g5121" />
                            <g
                               id="g5123" />
                            <g
                               id="g5125" />
                          </g>
                        </g>
                        <g
                           id="g5012" />
                        <g
                           id="g5014" />
                        <g
                           id="g5016" />
                        <g
                           id="g5018" />
                        <g
                           id="g5020" />
                        <g
                           id="g5022" />
                        <g
                           id="g5024" />
                        <g
                           id="g5026" />
                        <g
                           id="g5028" />
                        <g
                           id="g5030" />
                        <g
                           id="g5032" />
                        <g
                           id="g5034" />
                        <g
                           id="g5036" />
                        <g
                           id="g5038" />
                        <g
                           id="g5040" />
                      </g>
                    </g>
                    <g
                       id="g4752" />
                    <g
                       id="g4754" />
                    <g
                       id="g4756" />
                    <g
                       id="g4758" />
                    <g
                       id="g4760" />
                    <g
                       id="g4762" />
                    <g
                       id="g4764" />
                    <g
                       id="g4766" />
                    <g
                       id="g4768" />
                    <g
                       id="g4770" />
                    <g
                       id="g4772" />
                    <g
                       id="g4774" />
                    <g
                       id="g4776" />
                    <g
                       id="g4778" />
                    <g
                       id="g4780" />
                  </g>
                </g>
              </g>
              <g
                 id="g4393" />
              <g
                 id="g4395" />
              <g
                 id="g4397" />
              <g
                 id="g4399" />
              <g
                 id="g4401" />
              <g
                 id="g4403" />
              <g
                 id="g4405" />
              <g
                 id="g4407" />
              <g
                 id="g4409" />
              <g
                 id="g4411" />
              <g
                 id="g4413" />
              <g
                 id="g4415" />
              <g
                 id="g4417" />
              <g
                 id="g4419" />
              <g
                 id="g4421" />
            </g>
          </g>
          <g
             id="g5286" />
          <g
             id="g5288" />
          <g
             id="g5290" />
          <g
             id="g5292" />
          <g
             id="g5294" />
          <g
             id="g5296" />
          <g
             id="g5298" />
          <g
             id="g5300" />
          <g
             id="g5302" />
          <g
             id="g5304" />
          <g
             id="g5306" />
          <g
             id="g5308" />
          <g
             id="g5310" />
          <g
             id="g5312" />
          <g
             id="g5314" />
        </g>
      </g>
      <g
         id="g4193" />
      <g
         id="g4195" />
      <g
         id="g4197" />
      <g
         id="g4199" />
      <g
         id="g4201" />
      <g
         id="g4203" />
      <g
         id="g4205" />
      <g
         id="g4207" />
      <g
         id="g4209" />
      <g
         id="g4211" />
      <g
         id="g4213" />
      <g
         id="g4215" />
      <g
         id="g4217" />
      <g
         id="g4219" />
      <g
         id="g4221" />
    </g>
  </g>
</svg>
