<?xml version="1.0" encoding="UTF-8" standalone="no"?>
<!-- Created with Inkscape (http://www.inkscape.org/) -->

<svg
   xmlns:dc="http://purl.org/dc/elements/1.1/"
   xmlns:cc="http://creativecommons.org/ns#"
   xmlns:rdf="http://www.w3.org/1999/02/22-rdf-syntax-ns#"
   xmlns:svg="http://www.w3.org/2000/svg"
   xmlns="http://www.w3.org/2000/svg"
   xmlns:sodipodi="http://sodipodi.sourceforge.net/DTD/sodipodi-0.dtd"
   xmlns:inkscape="http://www.inkscape.org/namespaces/inkscape"
   width="28.222225mm"
   height="28.222225mm"
   viewBox="0 0 100.00001 100.00001"
   id="svg2"
   version="1.1"
   inkscape:version="0.91 r13725"
   sodipodi:docname="marker_voucher.svg">
  <defs
     id="defs4" />
  <sodipodi:namedview
     id="base"
     pagecolor="#ffffff"
     bordercolor="#666666"
     borderopacity="1.0"
     inkscape:pageopacity="0.0"
     inkscape:pageshadow="2"
     inkscape:zoom="7.9195959"
     inkscape:cx="17.351193"
     inkscape:cy="47.078557"
     inkscape:document-units="px"
     inkscape:current-layer="g4137"
     showgrid="false"
     showguides="true"
     inkscape:guide-bbox="true"
     inkscape:window-width="1920"
     inkscape:window-height="1017"
     inkscape:window-x="1358"
     inkscape:window-y="-8"
     inkscape:window-maximized="1"
     fit-margin-top="0"
     fit-margin-left="0"
     fit-margin-right="0"
     fit-margin-bottom="0">
    <sodipodi:guide
       position="-367.14291,25.142891"
       orientation="0,1"
       id="guide4754" />
    <sodipodi:guide
       position="-366.42862,75.500035"
       orientation="0,1"
       id="guide4756" />
    <sodipodi:guide
       position="-429.74369,75.500035"
       orientation="1,0"
       id="guide5075" />
    <sodipodi:guide
       position="-342.87057,49.273363"
       orientation="0,1"
       id="guide5077" />
  </sodipodi:namedview>
  <metadata
     id="metadata7">
    <rdf:RDF>
      <cc:Work
         rdf:about="">
        <dc:format>image/svg+xml</dc:format>
        <dc:type
           rdf:resource="http://purl.org/dc/dcmitype/StillImage" />
        <dc:title />
      </cc:Work>
    </rdf:RDF>
  </metadata>
  <g
     inkscape:label="Layer 1"
     inkscape:groupmode="layer"
     id="layer1"
     transform="translate(-504.99999,-508.93363)">
    <g
       id="g4229"
       transform="translate(174.10714,529.32649)">
      <g
         id="g4137">
        <circle
           style="opacity:1;fill:#b8ddb2;fill-opacity:1;stroke:#67b456;stroke-width:9.43589783;stroke-linecap:butt;stroke-linejoin:miter;stroke-miterlimit:4;stroke-dasharray:none;stroke-dashoffset:0;stroke-opacity:1"
           id="path4355-9-0-1-7-3"
           cx="380.89285"
           cy="29.607143"
           r="45.282051" />
        <g
           id="g4530"
           transform="matrix(1.0601065,0,0,1.0601065,140.19119,-112.89465)">
          <g
             id="XMLID_80_">
            <rect
               height="33.340885"
               width="58.346546"
               style="fill:#67b456;fill-opacity:1"
               y="120.67275"
               id="XMLID_115_"
               x="198.61844" />
            <polygon
               points="2,12 52,16 2,16 "
               style="fill:#529743;fill-opacity:1"
               id="XMLID_114_"
               transform="matrix(1.0419026,0,0,1.0419026,198.61845,104.00231)" />
            <path
               d="m 246.52281,137.3432 c 0,7.48086 -6.06387,13.54473 -13.54473,13.54473 -7.48086,0 -13.54474,-6.06387 -13.54474,-13.54473 0,-7.48085 6.06388,-13.54473 13.54474,-13.54473 7.48086,0 13.54473,6.06388 13.54473,13.54473"
               style="fill:#529743;fill-opacity:1"
               id="XMLID_79_"
               inkscape:connector-curvature="0" />
            <path
               d="m 220.59634,148.80413 c -3.8092,-2.39742 -6.34935,-6.62754 -6.34935,-11.46093 0,-4.83339 2.54015,-9.06351 6.34935,-11.46092 l -10.54301,0 c 0.0157,0.17191 0.026,0.34486 0.026,0.52094 0,3.1653 -2.5662,5.73046 -5.73047,5.73046 -0.17607,0 -0.34903,-0.0104 -0.52095,-0.026 l 0,10.47111 c 0.17192,-0.0156 0.34488,-0.026 0.52095,-0.026 3.16427,0 5.73047,2.56517 5.73047,5.73047 0,0.17608 -0.0105,0.34903 -0.026,0.52095 l 10.54301,0 z"
               style="fill:#f5f9f5;fill-opacity:1"
               id="XMLID_112_"
               inkscape:connector-curvature="0" />
            <path
               d="m 204.34891,129.00799 c -1.43678,0 -2.60475,-1.16798 -2.60475,-2.60477 0,-1.43678 1.16797,-2.60475 2.60475,-2.60475 1.43679,0 2.60476,1.16797 2.60476,2.60475 0,1.43679 -1.16797,2.60477 -2.60476,2.60477"
               style="fill:#f5f9f5;fill-opacity:1"
               id="XMLID_110_"
               inkscape:connector-curvature="0" />
            <path
               d="m 251.23454,129.00799 c -1.43679,0 -2.60477,-1.16798 -2.60477,-2.60477 0,-1.43678 1.16798,-2.60475 2.60477,-2.60475 1.43678,0 2.60475,1.16797 2.60475,2.60475 0,1.43679 -1.16797,2.60477 -2.60475,2.60477"
               style="fill:#f5f9f5;fill-opacity:1"
               id="XMLID_109_"
               inkscape:connector-curvature="0" />
            <path
               d="m 204.34891,150.88793 c -1.43678,0 -2.60475,-1.16797 -2.60475,-2.60475 0,-1.43679 1.16797,-2.60476 2.60475,-2.60476 1.43679,0 2.60476,1.16797 2.60476,2.60476 0,1.43678 -1.16797,2.60475 -2.60476,2.60475"
               style="fill:#f5f9f5;fill-opacity:1"
               id="XMLID_108_"
               inkscape:connector-curvature="0" />
            <path
               d="m 251.23454,150.88793 c -1.43679,0 -2.60477,-1.16797 -2.60477,-2.60475 0,-1.43679 1.16798,-2.60476 2.60477,-2.60476 1.43678,0 2.60475,1.16797 2.60475,2.60476 0,1.43678 -1.16797,2.60475 -2.60475,2.60475"
               style="fill:#f5f9f5;fill-opacity:1"
               id="XMLID_107_"
               inkscape:connector-curvature="0" />
            <polygon
               points="55,16 5,8 5,12.24 52,16 "
               style="fill:#529743;fill-opacity:1"
               id="XMLID_106_"
               transform="matrix(1.0419026,0,0,1.0419026,198.61845,104.00231)" />
            <g
               id="g4620"
               transform="matrix(1.1800343,0,0,1.1800343,321.24816,146.51855)">
              <g
                 id="XMLID_3_">
                <g
                   id="XMLID_105_">
                  <path
                     d="m -74.853738,0.34227953 c -2.757,0 -5,-2.24300003 -5,-5.00000003 0,-0.553 0.448,-1 1,-1 0.552,0 1,0.447 1,1 0,1.654 1.346,3 3,3 0.884,0 1.72,-0.388 2.292,-1.064 0.256,-0.303 0.374,-0.696 0.331,-1.106 -0.046,-0.438 -0.272,-0.847 -0.622,-1.118 l -5.23,-4.068 c -0.777,-0.605 -1.282,-1.5129995 -1.383,-2.4919995 -0.1,-0.956 0.182,-1.881 0.794,-2.603 0.952,-1.126 2.344,-1.772 3.818,-1.772 2.757,0 5,2.244 5,5 0,0.553 -0.448,0.9999995 -1,0.9999995 -0.552,0 -1,-0.4469995 -1,-0.9999995 0,-1.654 -1.346,-3 -3,-3 -0.884,0 -1.72,0.388 -2.292,1.065 -0.256,0.303 -0.374,0.694 -0.331,1.103 0.046,0.439 0.272,0.848 0.622,1.12 l 5.23,4.0689995 c 0.777,0.604 1.281,1.511 1.383,2.488 0.1,0.957 -0.182,1.882 -0.793,2.606 -0.953,1.12600003 -2.345,1.77200003 -3.819,1.77200003"
                     style="fill:#f5f9f5;fill-opacity:1"
                     id="XMLID_119_"
                     inkscape:connector-curvature="0" />
                  <path
                     d="m -74.853738,2.1192795 c -0.552,0 -1,-0.447 -1,-1 l 0,-17.9999995 c 0,-0.553 0.448,-1 1,-1 0.552,0 1,0.447 1,1 l 0,17.9999995 c 0,0.553 -0.448,1 -1,1"
                     style="fill:#f5f9f5;fill-opacity:1"
                     id="XMLID_118_"
                     inkscape:connector-curvature="0" />
                </g>
              </g>
              <g
                 id="g4584" />
              <g
                 id="g4586" />
              <g
                 id="g4588" />
              <g
                 id="g4590" />
              <g
                 id="g4592" />
              <g
                 id="g4594" />
              <g
                 id="g4596" />
              <g
                 id="g4598" />
              <g
                 id="g4600" />
              <g
                 id="g4602" />
              <g
                 id="g4604" />
              <g
                 id="g4606" />
              <g
                 id="g4608" />
              <g
                 id="g4610" />
              <g
                 id="g4612" />
            </g>
          </g>
          <g
             id="g4494" />
          <g
             id="g4496" />
          <g
             id="g4498" />
          <g
             id="g4500" />
          <g
             id="g4502" />
          <g
             id="g4504" />
          <g
             id="g4506" />
          <g
             id="g4508" />
          <g
             id="g4510" />
          <g
             id="g4512" />
          <g
             id="g4514" />
          <g
             id="g4516" />
          <g
             id="g4518" />
          <g
             id="g4520" />
          <g
             id="g4522" />
        </g>
      </g>
      <g
         id="g4193" />
      <g
         id="g4195" />
      <g
         id="g4197" />
      <g
         id="g4199" />
      <g
         id="g4201" />
      <g
         id="g4203" />
      <g
         id="g4205" />
      <g
         id="g4207" />
      <g
         id="g4209" />
      <g
         id="g4211" />
      <g
         id="g4213" />
      <g
         id="g4215" />
      <g
         id="g4217" />
      <g
         id="g4219" />
      <g
         id="g4221" />
    </g>
  </g>
</svg>
