<?xml version="1.0" encoding="UTF-8" standalone="no"?>
<!-- Created with Inkscape (http://www.inkscape.org/) -->

<svg
   xmlns:dc="http://purl.org/dc/elements/1.1/"
   xmlns:cc="http://creativecommons.org/ns#"
   xmlns:rdf="http://www.w3.org/1999/02/22-rdf-syntax-ns#"
   xmlns:svg="http://www.w3.org/2000/svg"
   xmlns="http://www.w3.org/2000/svg"
   xmlns:sodipodi="http://sodipodi.sourceforge.net/DTD/sodipodi-0.dtd"
   xmlns:inkscape="http://www.inkscape.org/namespaces/inkscape"
   width="28.222221mm"
   height="28.222221mm"
   viewBox="0 0 99.999997 99.999997"
   id="svg2"
   version="1.1"
   inkscape:version="0.91 r13725"
   sodipodi:docname="marker_drink.svg">
  <defs
     id="defs4" />
  <sodipodi:namedview
     id="base"
     pagecolor="#ffffff"
     bordercolor="#666666"
     borderopacity="1.0"
     inkscape:pageopacity="0.0"
     inkscape:pageshadow="2"
     inkscape:zoom="1.4"
     inkscape:cx="91.084101"
     inkscape:cy="-8.7180047"
     inkscape:document-units="px"
     inkscape:current-layer="g4275"
     showgrid="false"
     showguides="true"
     inkscape:guide-bbox="true"
     inkscape:window-width="1920"
     inkscape:window-height="1017"
     inkscape:window-x="1358"
     inkscape:window-y="-8"
     inkscape:window-maximized="1"
     fit-margin-top="0"
     fit-margin-left="0"
     fit-margin-right="0"
     fit-margin-bottom="0">
    <sodipodi:guide
       position="-127.35714,25.357152"
       orientation="0,1"
       id="guide4754" />
    <sodipodi:guide
       position="-126.64285,75.714289"
       orientation="0,1"
       id="guide4756" />
    <sodipodi:guide
       position="-189.95791,75.714289"
       orientation="1,0"
       id="guide5075" />
    <sodipodi:guide
       position="-103.0848,49.487621"
       orientation="0,1"
       id="guide5077" />
  </sodipodi:namedview>
  <metadata
     id="metadata7">
    <rdf:RDF>
      <cc:Work
         rdf:about="">
        <dc:format>image/svg+xml</dc:format>
        <dc:type
           rdf:resource="http://purl.org/dc/dcmitype/StillImage" />
        <dc:title />
      </cc:Work>
    </rdf:RDF>
  </metadata>
  <g
     inkscape:label="Layer 1"
     inkscape:groupmode="layer"
     id="layer1"
     transform="translate(-265.21429,-509.14792)">
    <g
       id="g4229"
       transform="translate(174.10714,529.32649)">
      <g
         id="g4137">
        <circle
           style="opacity:1;fill:#fbf0b4;fill-opacity:1;stroke:#f9da49;stroke-width:9.43589783;stroke-linecap:butt;stroke-linejoin:miter;stroke-miterlimit:4;stroke-dasharray:none;stroke-dashoffset:0;stroke-opacity:1"
           id="path4355-9-0-1"
           cx="141.10715"
           cy="29.821428"
           r="45.282051" />
        <g
           id="g4329"
           transform="matrix(1.1270604,0,0,1.1270604,114.46019,-1.6672585)">
          <g
             id="g4275">
            <path
               id="path4277"
               d="m 44.5,20.232 -6,0 0,4 4,0 c 1.1,0 2,0.9 2,2 l 0,10 c 0,1.1 -0.9,2 -2,2 l -4,0 0,4 6,0 c 2.2,0 4,-1.8 4,-4 l 0,-14 c 0,-2.2 -1.8,-4 -4,-4 z"
               style="fill:#e6e6e6"
               inkscape:connector-curvature="0" />
            <path
               id="path4279"
               d="M 32.5,4 C 31.117,4 29.847,4.472 28.833,5.258 27.837,3.325 25.825,2 23.5,2 22.651,2 21.845,2.178 21.113,2.496 19.924,0.979 18.078,0 16,0 12.875,0 10.268,2.205 9.644,5.144 9.275,5.057 8.895,5 8.5,5 c -2.761,0 -5,2.239 -5,5 l 0,8 c 0,1.1 0.9,2 2,2 l 1,0 c 1.1,0 2,-0.9 2,-2 l 0,-1.596 C 9.106,16.775 9.809,17 10.568,17 l 1.967,0 c 1.275,0 2.402,-0.615 3.136,-1.551 1.089,1.539 2.879,2.551 4.897,2.551 3.3,0 6,-2.7 6,-6 l 11.583,0 c 0.222,-0.626 0.349,-1.298 0.349,-2 0,-3.314 -2.686,-6 -6,-6 z"
               style="fill:#e6e6e6"
               inkscape:connector-curvature="0" />
            <path
               id="path4281"
               d="m 26.568,12 c 0,3.3 -2.7,6 -6,6 C 18.55,18 16.76,16.988 15.671,15.449 14.937,16.385 13.81,17 12.535,17 l -1.967,0 C 9.81,17 9.106,16.775 8.5,16.404 L 8.5,47 c 0,2.75 2.25,5 5,5 l 20,0 c 2.75,0 5,-2.25 5,-5 l 0,-35 -11.932,0 z"
               style="fill:#f4c44e"
               inkscape:connector-curvature="0" />
            <path
               id="path4283"
               d="m 14.5,25 c 0,-1.65 -1.35,-3 -3,-3 -1.65,0 -3,1.35 -3,3 l 0,21 6,0 0,-21 z"
               style="fill:#f9da49"
               inkscape:connector-curvature="0" />
            <path
               id="path4285"
               d="m 20.5,25 c 0,-1.65 -1.35,-3 -3,-3 -1.65,0 -3,1.35 -3,3 l 0,21 6,0 0,-21 z"
               style="fill:#eeaf4b"
               inkscape:connector-curvature="0" />
            <path
               id="path4287"
               d="m 26.5,25 c 0,-1.65 -1.35,-3 -3,-3 -1.65,0 -3,1.35 -3,3 l 0,21 6,0 0,-21 z"
               style="fill:#f9da49"
               inkscape:connector-curvature="0" />
            <path
               id="path4289"
               d="m 32.5,25 c 0,-1.65 -1.35,-3 -3,-3 -1.65,0 -3,1.35 -3,3 l 0,21 6,0 0,-21 z"
               style="fill:#eeaf4b"
               inkscape:connector-curvature="0" />
            <path
               id="path4291"
               d="m 38.5,25 c 0,-1.65 -1.35,-3 -3,-3 -1.65,0 -3,1.35 -3,3 l 0,21 6,0 0,-21 z"
               style="fill:#f9da49"
               inkscape:connector-curvature="0" />
          </g>
          <g
             id="g4293" />
          <g
             id="g4295" />
          <g
             id="g4297" />
          <g
             id="g4299" />
          <g
             id="g4301" />
          <g
             id="g4303" />
          <g
             id="g4305" />
          <g
             id="g4307" />
          <g
             id="g4309" />
          <g
             id="g4311" />
          <g
             id="g4313" />
          <g
             id="g4315" />
          <g
             id="g4317" />
          <g
             id="g4319" />
          <g
             id="g4321" />
        </g>
      </g>
      <g
         id="g4193" />
      <g
         id="g4195" />
      <g
         id="g4197" />
      <g
         id="g4199" />
      <g
         id="g4201" />
      <g
         id="g4203" />
      <g
         id="g4205" />
      <g
         id="g4207" />
      <g
         id="g4209" />
      <g
         id="g4211" />
      <g
         id="g4213" />
      <g
         id="g4215" />
      <g
         id="g4217" />
      <g
         id="g4219" />
      <g
         id="g4221" />
    </g>
  </g>
</svg>
