<?xml version="1.0" encoding="UTF-8" standalone="no"?>
<!-- Created with Inkscape (http://www.inkscape.org/) -->

<svg
   xmlns:dc="http://purl.org/dc/elements/1.1/"
   xmlns:cc="http://creativecommons.org/ns#"
   xmlns:rdf="http://www.w3.org/1999/02/22-rdf-syntax-ns#"
   xmlns:svg="http://www.w3.org/2000/svg"
   xmlns="http://www.w3.org/2000/svg"
   xmlns:sodipodi="http://sodipodi.sourceforge.net/DTD/sodipodi-0.dtd"
   xmlns:inkscape="http://www.inkscape.org/namespaces/inkscape"
   width="144.49779mm"
   height="144.49779mm"
   viewBox="0 0 512.00004 512.00004"
   id="svg2"
   version="1.1"
   inkscape:version="0.91 r13725"
   sodipodi:docname="papervoucher.svg">
  <defs
     id="defs4" />
  <sodipodi:namedview
     id="base"
     pagecolor="#ffffff"
     bordercolor="#666666"
     borderopacity="1.0"
     inkscape:pageopacity="1"
     inkscape:pageshadow="2"
     inkscape:zoom="0.0625"
     inkscape:cx="1765.3135"
     inkscape:cy="-1394.128"
     inkscape:document-units="px"
     inkscape:current-layer="layer1"
     showgrid="false"
     showguides="false"
     inkscape:guide-bbox="true"
     inkscape:window-width="1920"
     inkscape:window-height="1017"
     inkscape:window-x="1358"
     inkscape:window-y="-8"
     inkscape:window-maximized="1"
     fit-margin-top="0"
     fit-margin-left="0"
     fit-margin-right="0"
     fit-margin-bottom="0">
    <sodipodi:guide
       position="-5176.9763,46.203149"
       orientation="0,1"
       id="guide4149" />
    <sodipodi:guide
       position="-5156.2682,-8.8501468"
       orientation="0,1"
       id="guide4151" />
    <sodipodi:guide
       position="-5028.4839,-63.398442"
       orientation="0,1"
       id="guide4153" />
    <sodipodi:guide
       position="-4896.1539,-119.96694"
       orientation="0,1"
       id="guide4155" />
    <sodipodi:guide
       position="-5129.4992,-63.398442"
       orientation="1,0"
       id="guide4157" />
    <sodipodi:guide
       position="-4948.6819,-63.398442"
       orientation="1,0"
       id="guide4159" />
    <sodipodi:guide
       position="-5198.6693,-95.37674"
       orientation="1,0"
       id="guide4325" />
  </sodipodi:namedview>
  <metadata
     id="metadata7">
    <rdf:RDF>
      <cc:Work
         rdf:about="">
        <dc:format>image/svg+xml</dc:format>
        <dc:type
           rdf:resource="http://purl.org/dc/dcmitype/StillImage" />
        <dc:title></dc:title>
      </cc:Work>
    </rdf:RDF>
  </metadata>
  <g
     inkscape:label="Layer 1"
     inkscape:groupmode="layer"
     id="layer1"
     transform="translate(-5226.4739,451.36644)">
    <g
       id="g5494"
       transform="matrix(8.5333338,0,0,8.5333338,5226.4739,-451.36644)">
      <g
         id="g5442">
        <path
           id="path5444"
           d="M 18,9 36,9 C 36.553,9 37,8.553 37,8 37,7.447 36.553,7 36,7 L 18,7 c -0.553,0 -1,0.447 -1,1 0,0.553 0.447,1 1,1 z"
           inkscape:connector-curvature="0"
           style="fill:#ffffff" />
        <path
           id="path5446"
           d="m 42,12 -24,0 c -0.553,0 -1,0.447 -1,1 0,0.553 0.447,1 1,1 l 24,0 c 0.553,0 1,-0.447 1,-1 0,-0.553 -0.447,-1 -1,-1 z"
           inkscape:connector-curvature="0"
           style="fill:#ffffff" />
        <path
           id="path5448"
           d="m 42,43 -24,0 c -0.553,0 -1,0.447 -1,1 0,0.553 0.447,1 1,1 l 24,0 c 0.553,0 1,-0.447 1,-1 0,-0.553 -0.447,-1 -1,-1 z"
           inkscape:connector-curvature="0"
           style="fill:#ffffff" />
        <path
           id="path5450"
           d="m 42,48 -24,0 c -0.553,0 -1,0.447 -1,1 0,0.553 0.447,1 1,1 l 24,0 c 0.553,0 1,-0.447 1,-1 0,-0.553 -0.447,-1 -1,-1 z"
           inkscape:connector-curvature="0"
           style="fill:#ffffff" />
        <g
           id="g5452">
          <path
             id="path5454"
             d="M 51,17 51,0 9,0 l 0,17 -9,0 0,34 6,0 0,3 3,0 0,6 42,0 0,-6 3,0 0,-3 6,0 0,-34 -9,0 z M 11,2 49,2 49,17 11,17 11,2 Z m 12,26 -3,0 c -0.553,0 -1,-0.447 -1,-1 0,-0.553 0.447,-1 1,-1 l 3,0 c 0.553,0 1,0.447 1,1 0,0.553 -0.447,1 -1,1 z m 1,3 c 0,0.553 -0.447,1 -1,1 l -3,0 c -0.553,0 -1,-0.447 -1,-1 0,-0.553 0.447,-1 1,-1 l 3,0 c 0.553,0 1,0.447 1,1 z m -1,-7 -3,0 c -0.553,0 -1,-0.447 -1,-1 0,-0.553 0.447,-1 1,-1 l 3,0 c 0.553,0 1,0.447 1,1 0,0.553 -0.447,1 -1,1 z m -7,4 -3,0 c -0.553,0 -1,-0.447 -1,-1 0,-0.553 0.447,-1 1,-1 l 3,0 c 0.553,0 1,0.447 1,1 0,0.553 -0.447,1 -1,1 z m 1,3 c 0,0.553 -0.447,1 -1,1 l -3,0 c -0.553,0 -1,-0.447 -1,-1 0,-0.553 0.447,-1 1,-1 l 3,0 c 0.553,0 1,0.447 1,1 z m -1,-7 -3,0 c -0.553,0 -1,-0.447 -1,-1 0,-0.553 0.447,-1 1,-1 l 3,0 c 0.553,0 1,0.447 1,1 0,0.553 -0.447,1 -1,1 z M 9,32 6,32 C 5.447,32 5,31.553 5,31 5,30.447 5.447,30 6,30 l 3,0 c 0.553,0 1,0.447 1,1 0,0.553 -0.447,1 -1,1 z M 9,28 6,28 C 5.447,28 5,27.553 5,27 5,26.447 5.447,26 6,26 l 3,0 c 0.553,0 1,0.447 1,1 0,0.553 -0.447,1 -1,1 z M 9,24 6,24 C 5.447,24 5,23.553 5,23 5,22.447 5.447,22 6,22 l 3,0 c 0.553,0 1,0.447 1,1 0,0.553 -0.447,1 -1,1 z m 40,30 0,4 -38,0 0,-4 0,-17 38,0 0,17 z m 1,-22 c -2.757,0 -5,-2.243 -5,-5 0,-2.757 2.243,-5 5,-5 2.757,0 5,2.243 5,5 0,2.757 -2.243,5 -5,5 z"
             inkscape:connector-curvature="0"
             style="fill:#ffffff" />
          <circle
             id="circle5456"
             r="3"
             cy="27"
             cx="50"
             style="fill:#ffffff" />
        </g>
      </g>
      <g
         id="g5458" />
      <g
         id="g5460" />
      <g
         id="g5462" />
      <g
         id="g5464" />
      <g
         id="g5466" />
      <g
         id="g5468" />
      <g
         id="g5470" />
      <g
         id="g5472" />
      <g
         id="g5474" />
      <g
         id="g5476" />
      <g
         id="g5478" />
      <g
         id="g5480" />
      <g
         id="g5482" />
      <g
         id="g5484" />
      <g
         id="g5486" />
    </g>
  </g>
</svg>
