<?xml version="1.0" encoding="UTF-8" standalone="no"?>
<!-- Created with Inkscape (http://www.inkscape.org/) -->

<svg
   xmlns:dc="http://purl.org/dc/elements/1.1/"
   xmlns:cc="http://creativecommons.org/ns#"
   xmlns:rdf="http://www.w3.org/1999/02/22-rdf-syntax-ns#"
   xmlns:svg="http://www.w3.org/2000/svg"
   xmlns="http://www.w3.org/2000/svg"
   xmlns:sodipodi="http://sodipodi.sourceforge.net/DTD/sodipodi-0.dtd"
   xmlns:inkscape="http://www.inkscape.org/namespaces/inkscape"
   width="144.49841mm"
   height="133.23203mm"
   viewBox="0 0 512.00226 472.08198"
   id="svg2"
   version="1.1"
   inkscape:version="0.91 r13725"
   sodipodi:docname="registrationurl.svg">
  <defs
     id="defs4" />
  <sodipodi:namedview
     id="base"
     pagecolor="#ffffff"
     bordercolor="#666666"
     borderopacity="1.0"
     inkscape:pageopacity="1"
     inkscape:pageshadow="2"
     inkscape:zoom="0.1767767"
     inkscape:cx="-1374.1151"
     inkscape:cy="51.756607"
     inkscape:document-units="px"
     inkscape:current-layer="layer1"
     showgrid="false"
     showguides="false"
     inkscape:guide-bbox="true"
     inkscape:window-width="1920"
     inkscape:window-height="1017"
     inkscape:window-x="1358"
     inkscape:window-y="-8"
     inkscape:window-maximized="1"
     fit-margin-top="0"
     fit-margin-left="0"
     fit-margin-right="0"
     fit-margin-bottom="0">
    <sodipodi:guide
       position="-3304.9764,-1025.7969"
       orientation="0,1"
       id="guide4149" />
    <sodipodi:guide
       position="-3284.2683,-1080.8502"
       orientation="0,1"
       id="guide4151" />
    <sodipodi:guide
       position="-3156.484,-1135.3985"
       orientation="0,1"
       id="guide4153" />
    <sodipodi:guide
       position="-3024.154,-1191.967"
       orientation="0,1"
       id="guide4155" />
    <sodipodi:guide
       position="-3257.4993,-1135.3985"
       orientation="1,0"
       id="guide4157" />
    <sodipodi:guide
       position="-3076.682,-1135.3985"
       orientation="1,0"
       id="guide4159" />
    <sodipodi:guide
       position="-3326.6694,-1167.3768"
       orientation="1,0"
       id="guide4325" />
  </sodipodi:namedview>
  <metadata
     id="metadata7">
    <rdf:RDF>
      <cc:Work
         rdf:about="">
        <dc:format>image/svg+xml</dc:format>
        <dc:type
           rdf:resource="http://purl.org/dc/dcmitype/StillImage" />
        <dc:title></dc:title>
      </cc:Work>
    </rdf:RDF>
  </metadata>
  <g
     inkscape:label="Layer 1"
     inkscape:groupmode="layer"
     id="layer1"
     transform="translate(-3354.4739,1483.4484)">
    <g
       id="g5796"
       transform="matrix(8.9824562,0,0,8.9824562,3354.4739,-1503.4074)">
      <g
         id="g5752">
        <path
           id="path5754"
           d="m 56.707,53.071 -6.797,-6.797 6.484,-3.242 -17.638,-6.498 6.498,17.637 3.241,-6.483 6.798,6.797 c 0.195,0.195 0.451,0.293 0.707,0.293 0.256,0 0.512,-0.098 0.707,-0.293 0.391,-0.39 0.391,-1.023 0,-1.414 z m -14.576,-13.162 9.233,3.402 -3.888,1.943 -1.943,3.887 -3.402,-9.232 z"
           inkscape:connector-curvature="0"
           style="fill:#ffffff" />
        <path
           id="path5756"
           d="m 1,18.222 50,0 c 0.552,0 1,-0.447 1,-1 l 0,-14 c 0,-0.553 -0.448,-1 -1,-1 l -50,0 c -0.552,0 -1,0.447 -1,1 l 0,14 c 0,0.552 0.448,1 1,1 z m 25,-12 c 2.206,0 4,1.794 4,4 0,2.206 -1.794,4 -4,4 -2.206,0 -4,-1.794 -4,-4 0,-2.206 1.794,-4 4,-4 z m -9,0 c 2.206,0 4,1.794 4,4 0,2.206 -1.794,4 -4,4 -2.206,0 -4,-1.794 -4,-4 0,-2.206 1.794,-4 4,-4 z m -9,0 c 2.206,0 4,1.794 4,4 0,2.206 -1.794,4 -4,4 -2.206,0 -4,-1.794 -4,-4 0,-2.206 1.794,-4 4,-4 z"
           inkscape:connector-curvature="0"
           style="fill:#ffffff" />
        <path
           id="path5758"
           d="m 52,38.216 0,-8.183 0,-8.812 c 0,-0.553 -0.448,-1 -1,-1 l -50,0 c -0.552,0 -1,0.447 -1,1 l 0,31 c 0,0.553 0.448,1 1,1 l 40.707,0 L 33.694,31.471 52,38.216 Z"
           inkscape:connector-curvature="0"
           style="fill:#ffffff" />
      </g>
      <g
         id="g5760" />
      <g
         id="g5762" />
      <g
         id="g5764" />
      <g
         id="g5766" />
      <g
         id="g5768" />
      <g
         id="g5770" />
      <g
         id="g5772" />
      <g
         id="g5774" />
      <g
         id="g5776" />
      <g
         id="g5778" />
      <g
         id="g5780" />
      <g
         id="g5782" />
      <g
         id="g5784" />
      <g
         id="g5786" />
      <g
         id="g5788" />
    </g>
  </g>
</svg>
