<?xml version="1.0" encoding="UTF-8" standalone="no"?>
<!-- Created with Inkscape (http://www.inkscape.org/) -->

<svg
   xmlns:dc="http://purl.org/dc/elements/1.1/"
   xmlns:cc="http://creativecommons.org/ns#"
   xmlns:rdf="http://www.w3.org/1999/02/22-rdf-syntax-ns#"
   xmlns:svg="http://www.w3.org/2000/svg"
   xmlns="http://www.w3.org/2000/svg"
   xmlns:sodipodi="http://sodipodi.sourceforge.net/DTD/sodipodi-0.dtd"
   xmlns:inkscape="http://www.inkscape.org/namespaces/inkscape"
   width="513.65588"
   height="76.373009"
   viewBox="0 0 513.65593 76.373008"
   id="svg4193"
   version="1.1"
   inkscape:version="0.91 r13725"
   sodipodi:docname="sandmound1.svg">
  <defs
     id="defs4195">
    <inkscape:path-effect
       effect="envelope"
       id="path-effect4863"
       is_visible="true"
       yy="true"
       xx="true"
       bendpath1="m -111.11678,882.6568 c -166.04156,-209.666 680.72847,208.4773 1549.57398,0"
       bendpath2="m 1438.4572,882.6568 0,292.9442"
       bendpath3="m -111.11678,1175.601 1549.57398,0"
       bendpath4="m -111.11678,882.6568 0,292.9442"
       bendpath1-nodetypes="cc" />
  </defs>
  <sodipodi:namedview
     id="base"
     pagecolor="#ffffff"
     bordercolor="#666666"
     borderopacity="1.0"
     inkscape:pageopacity="0.0"
     inkscape:pageshadow="2"
     inkscape:zoom="1.4"
     inkscape:cx="161.85229"
     inkscape:cy="54.640285"
     inkscape:document-units="px"
     inkscape:current-layer="layer1"
     showgrid="false"
     units="px"
     showguides="false"
     inkscape:window-width="1920"
     inkscape:window-height="1017"
     inkscape:window-x="1358"
     inkscape:window-y="-8"
     inkscape:window-maximized="1"
     fit-margin-top="0"
     fit-margin-left="0"
     fit-margin-right="0"
     fit-margin-bottom="0" />
  <metadata
     id="metadata4198">
    <rdf:RDF>
      <cc:Work
         rdf:about="">
        <dc:format>image/svg+xml</dc:format>
        <dc:type
           rdf:resource="http://purl.org/dc/dcmitype/StillImage" />
        <dc:title />
      </cc:Work>
    </rdf:RDF>
  </metadata>
  <g
     inkscape:label="Layer 1"
     inkscape:groupmode="layer"
     id="layer1"
     transform="translate(-796.68454,-847.36429)">
    <path
       style="opacity:1;fill:#f8d637;fill-opacity:1;stroke:none;stroke-width:2;stroke-linecap:butt;stroke-linejoin:round;stroke-miterlimit:4;stroke-dasharray:none;stroke-dashoffset:0;stroke-opacity:1"
       d="m 1089.8975,850.03477 c -69.0913,15.56757 -181.83242,63.40745 -181.83242,63.40745 l 375.40502,0 c -18.8357,-7.65936 -25.6518,-19.07312 -47.7059,-26.06937 -22.0541,-6.99626 -59.3462,-9.575 -73.4195,-16.7072 -28.1467,-14.26441 -29.1327,-29.59977 -72.4472,-20.63088 z"
       id="rect4927-7"
       inkscape:connector-curvature="0"
       sodipodi:nodetypes="cccssc" />
    <path
       style="opacity:1;fill:#fdec59;fill-opacity:1;stroke:none;stroke-width:2;stroke-linecap:butt;stroke-linejoin:round;stroke-miterlimit:4;stroke-dasharray:none;stroke-dashoffset:0;stroke-opacity:1"
       d="m 1078.4027,858.35966 c -70.3165,15.09921 -185.0568,61.49979 -185.0568,61.49979 l 427.0961,9.59645 c -19.1697,-7.42893 -38.5561,-28.17096 -64.1496,-34.903 -25.5934,-6.73204 -67.4954,-9.05054 -86.1848,-15.96816 -37.379,-13.83524 -47.6223,-28.92413 -91.7049,-20.22508 z"
       id="rect4927-2-5"
       inkscape:connector-curvature="0"
       sodipodi:nodetypes="cccssc" />
    <path
       style="opacity:1;fill:#f8d637;fill-opacity:1;stroke:none;stroke-width:2;stroke-linecap:butt;stroke-linejoin:round;stroke-miterlimit:4;stroke-dasharray:none;stroke-dashoffset:0;stroke-opacity:1"
       d="m 923.95533,872.61369 c -42.24174,11.01707 -111.17035,44.87309 -111.17035,44.87309 l 237.31692,-1.10051 c -23.0318,-10.84097 -60.70244,-20.85059 -78.52136,-31.20602 -17.8189,-10.35542 -21.14322,-18.91379 -47.62521,-12.56656 z"
       id="rect4927-7-9"
       inkscape:connector-curvature="0"
       sodipodi:nodetypes="cccsc" />
    <path
       style="opacity:1;fill:#fdec59;fill-opacity:1;stroke:none;stroke-width:2;stroke-linecap:butt;stroke-linejoin:round;stroke-miterlimit:4;stroke-dasharray:none;stroke-dashoffset:0;stroke-opacity:1"
       d="m 911.66066,878.50703 c -43.68777,11.01708 -117.37523,47.14594 -117.37523,47.14594 l 304.48377,2.37745 C 1074.9489,917.18945 994.25504,900.64727 971.03141,890.55243 947.80779,880.45759 939.04924,872.1598 911.66066,878.50703 Z"
       id="rect4927-2-5-2"
       inkscape:connector-curvature="0"
       sodipodi:nodetypes="cccsc" />
    <path
       style="opacity:1;fill:#fdec59;fill-opacity:1;stroke:none;stroke-width:2;stroke-linecap:butt;stroke-linejoin:round;stroke-miterlimit:4;stroke-dasharray:none;stroke-dashoffset:0;stroke-opacity:1"
       id="path4991"
       d="m 1097.5843,879.12337 c -0.047,1.81874 -0.08,3.63816 0.022,5.45498 0,0 -9.3276,4.83688 -9.3276,4.83688 l 0,0 c -0.1568,-1.82233 -0.091,-3.64715 -0.1488,-5.47469 0,0 9.4543,-4.81717 9.4543,-4.81717 z"
       inkscape:connector-curvature="0" />
    <path
       style="opacity:1;fill:#f8d637;fill-opacity:1;stroke:none;stroke-width:2;stroke-linecap:butt;stroke-linejoin:round;stroke-miterlimit:4;stroke-dasharray:none;stroke-dashoffset:0;stroke-opacity:1"
       id="path4993"
       d="m 1034.9281,877.24375 c -0.4401,-0.01 -0.8922,-0.0172 -1.3262,0.0731 -0.843,0.17553 -2.7671,1.43307 1.2949,-0.8535 -0.6437,0.48465 -0.2224,0.74785 0.4026,0.96446 0.3241,0.11232 0.6584,0.19241 0.9876,0.28861 0,0 -2.057,1.41042 -2.057,1.41042 l 0,0 c -0.525,-0.14096 -2.5255,-0.45878 -1.9535,-1.51091 0.042,-0.0769 0.1146,-0.13224 0.1719,-0.19836 2.3161,-1.3424 2.3685,-1.72499 4.6108,-1.72219 0,0 -2.1311,1.54834 -2.1311,1.54834 z"
       inkscape:connector-curvature="0" />
    <path
       style="opacity:1;fill:#f8d637;fill-opacity:1;stroke:none;stroke-width:2;stroke-linecap:butt;stroke-linejoin:round;stroke-miterlimit:4;stroke-dasharray:none;stroke-dashoffset:0;stroke-opacity:1"
       id="path4995"
       d="m 1054.5054,871.79396 c -0.3207,0.46624 -0.6627,1.10297 -0.5865,1.69561 0.014,0.11114 0.075,0.21116 0.1126,0.31675 0.101,0.0807 0.1897,0.17993 0.3031,0.24218 0.7784,0.42747 1.9282,0.46158 2.7915,0.51126 0,0 -2.0611,1.47669 -2.0611,1.47669 l 0,0 c -0.9215,-0.0691 -2.1319,-0.0966 -2.9379,-0.61348 -0.1446,-0.0927 -0.2527,-0.23265 -0.379,-0.34898 -0.052,-0.13574 -0.1298,-0.26425 -0.1562,-0.4072 -0.1159,-0.62621 0.221,-1.29051 0.4748,-1.83669 0,0 2.4387,-1.03614 2.4387,-1.03614 z"
       inkscape:connector-curvature="0" />
    <path
       style="opacity:1;fill:#f8d637;fill-opacity:1;stroke:none;stroke-width:2;stroke-linecap:butt;stroke-linejoin:round;stroke-miterlimit:4;stroke-dasharray:none;stroke-dashoffset:0;stroke-opacity:1"
       id="path4997"
       d="m 1052.4187,883.89099 c -0.062,0.49645 0.043,0.73092 0.4647,0.98929 0,0 -2.2151,1.41375 -2.2151,1.41375 l 0,0 c -0.47,-0.35295 -0.6362,-0.63247 -0.6297,-1.23252 0,0 2.3801,-1.17052 2.3801,-1.17052 z"
       inkscape:connector-curvature="0" />
    <path
       style="opacity:1;fill:#f8d637;fill-opacity:1;stroke:none;stroke-width:2;stroke-linecap:butt;stroke-linejoin:round;stroke-miterlimit:4;stroke-dasharray:none;stroke-dashoffset:0;stroke-opacity:1"
       id="path4999"
       d="m 1085.9399,862.85458 c -0.3214,0.36582 -0.6661,0.85927 -0.6288,1.36787 0.1902,0.22292 0.478,0.28777 0.7439,0.37752 0,0 -2.1686,1.46137 -2.1686,1.46137 l 0,0 c -0.3581,-0.14256 -0.6953,-0.26171 -0.9096,-0.60737 -0.017,-0.0903 -0.052,-0.17898 -0.051,-0.27087 0,-0.44175 0.3491,-0.946 0.5639,-1.31348 0,0 2.4505,-1.01504 2.4505,-1.01504 z"
       inkscape:connector-curvature="0" />
    <path
       style="opacity:1;fill:#f8d637;fill-opacity:1;stroke:none;stroke-width:2;stroke-linecap:butt;stroke-linejoin:round;stroke-miterlimit:4;stroke-dasharray:none;stroke-dashoffset:0;stroke-opacity:1"
       id="path5001"
       d="m 1110.158,861.64167 c 0.1759,0.24254 0.4262,0.40016 0.6708,0.56344 0,0 -2.2086,1.41001 -2.2086,1.41001 l 0,0 c -0.2685,-0.18893 -0.54,-0.37602 -0.7502,-0.63273 0,0 2.288,-1.34072 2.288,-1.34072 z"
       inkscape:connector-curvature="0" />
    <path
       style="opacity:1;fill:#f8d637;fill-opacity:1;stroke:none;stroke-width:2;stroke-linecap:butt;stroke-linejoin:round;stroke-miterlimit:4;stroke-dasharray:none;stroke-dashoffset:0;stroke-opacity:1"
       id="path5003"
       d="m 907.65005,885.25783 c -0.38339,0.49977 -0.955,1.1159 -0.88176,1.80416 0.0115,0.10797 0.0633,0.20773 0.0949,0.31159 0.24952,0.33108 0.58795,0.44563 0.96582,0.5649 0,0 -2.15881,1.45689 -2.15881,1.45689 l 0,0 c -0.43946,-0.17726 -0.82306,-0.35132 -1.09808,-0.76225 -0.0446,-0.13082 -0.1113,-0.25609 -0.13391,-0.39246 -0.12195,-0.73562 0.39826,-1.39468 0.78428,-1.96055 0,0 2.42757,-1.02228 2.42757,-1.02228 z"
       inkscape:connector-curvature="0" />
    <path
       style="opacity:1;fill:#f8d637;fill-opacity:1;stroke:none;stroke-width:2;stroke-linecap:butt;stroke-linejoin:round;stroke-miterlimit:4;stroke-dasharray:none;stroke-dashoffset:0;stroke-opacity:1"
       id="path5005"
       d="m 921.71585,883.00344 c 0.0139,0.0775 0.0122,0.15957 0.0419,0.2325 0.35082,0.86095 1.86915,1.23703 2.64783,1.50561 0,0 -2.0877,1.41338 -2.0877,1.41338 l 0,0 c -0.55387,-0.19076 -1.13527,-0.37332 -1.66715,-0.62402 -0.59877,-0.28223 -1.13091,-0.65192 -1.29511,-1.32485 0,0 2.36026,-1.20262 2.36026,-1.20262 z"
       inkscape:connector-curvature="0" />
    <path
       style="opacity:1;fill:#f8d637;fill-opacity:1;stroke:none;stroke-width:2;stroke-linecap:butt;stroke-linejoin:round;stroke-miterlimit:4;stroke-dasharray:none;stroke-dashoffset:0;stroke-opacity:1"
       id="path5007"
       d="m 915.70911,892.80432 c 0.75327,0.23338 1.5402,0.31776 2.3199,0.40973 0,0 -2.0817,1.47489 -2.0817,1.47489 l 0,0 c -0.82992,-0.10071 -1.6783,-0.17477 -2.47152,-0.45464 0,0 2.23332,-1.42998 2.23332,-1.42998 z"
       inkscape:connector-curvature="0" />
    <path
       style="opacity:1;fill:#f8d637;fill-opacity:1;stroke:none;stroke-width:2;stroke-linecap:butt;stroke-linejoin:round;stroke-miterlimit:4;stroke-dasharray:none;stroke-dashoffset:0;stroke-opacity:1"
       id="path5009"
       d="m 889.85038,886.08051 c -0.40179,0.37841 -1.02949,0.55153 -1.35112,1.01903 -0.0236,0.0343 -0.0158,0.0817 -0.0237,0.12251 0.0539,0.0293 0.10789,0.0585 0.16183,0.0878 0,0 -2.22753,1.39653 -2.22753,1.39653 l 0,0 c -0.0938,-0.091 -0.18753,-0.18196 -0.2813,-0.27294 -0.0154,-0.10296 -0.0721,-0.20802 -0.0463,-0.30888 0.097,-0.37894 1.00418,-0.81717 1.31104,-1.05226 0,0 2.45708,-0.99175 2.45708,-0.99175 z"
       inkscape:connector-curvature="0" />
  </g>
</svg>
