<?xml version="1.0" encoding="UTF-8" standalone="no"?>
<!-- Created with Inkscape (http://www.inkscape.org/) -->

<svg
   xmlns:dc="http://purl.org/dc/elements/1.1/"
   xmlns:cc="http://creativecommons.org/ns#"
   xmlns:rdf="http://www.w3.org/1999/02/22-rdf-syntax-ns#"
   xmlns:svg="http://www.w3.org/2000/svg"
   xmlns="http://www.w3.org/2000/svg"
   xmlns:sodipodi="http://sodipodi.sourceforge.net/DTD/sodipodi-0.dtd"
   xmlns:inkscape="http://www.inkscape.org/namespaces/inkscape"
   width="515.48438"
   height="63.16486"
   viewBox="0 0 515.48442 63.164859"
   id="svg4193"
   version="1.1"
   inkscape:version="0.91 r13725"
   sodipodi:docname="sandmound2.svg">
  <defs
     id="defs4195">
    <inkscape:path-effect
       effect="envelope"
       id="path-effect4863"
       is_visible="true"
       yy="true"
       xx="true"
       bendpath1="m -111.11678,882.6568 c -166.04156,-209.666 680.72847,208.4773 1549.57398,0"
       bendpath2="m 1438.4572,882.6568 0,292.9442"
       bendpath3="m -111.11678,1175.601 1549.57398,0"
       bendpath4="m -111.11678,882.6568 0,292.9442"
       bendpath1-nodetypes="cc" />
  </defs>
  <sodipodi:namedview
     id="base"
     pagecolor="#ffffff"
     bordercolor="#666666"
     borderopacity="1.0"
     inkscape:pageopacity="0.0"
     inkscape:pageshadow="2"
     inkscape:zoom="0.24748738"
     inkscape:cx="-785.2473"
     inkscape:cy="-36.154716"
     inkscape:document-units="px"
     inkscape:current-layer="layer1"
     showgrid="false"
     units="px"
     showguides="false"
     inkscape:window-width="1920"
     inkscape:window-height="1017"
     inkscape:window-x="1358"
     inkscape:window-y="-8"
     inkscape:window-maximized="1"
     fit-margin-top="0"
     fit-margin-left="0"
     fit-margin-right="0"
     fit-margin-bottom="0" />
  <metadata
     id="metadata4198">
    <rdf:RDF>
      <cc:Work
         rdf:about="">
        <dc:format>image/svg+xml</dc:format>
        <dc:type
           rdf:resource="http://purl.org/dc/dcmitype/StillImage" />
        <dc:title />
      </cc:Work>
    </rdf:RDF>
  </metadata>
  <g
     inkscape:label="Layer 1"
     inkscape:groupmode="layer"
     id="layer1"
     transform="translate(151.85583,-829.4595)">
    <path
       style="opacity:1;fill:#f8d637;fill-opacity:1;stroke:none;stroke-width:2;stroke-linecap:butt;stroke-linejoin:round;stroke-miterlimit:4;stroke-dasharray:none;stroke-dashoffset:0;stroke-opacity:1"
       d="m 29.092326,832.65768 c -69.250853,-15.10947 -100.049744,26.97345 -160.106986,49.90743 -11.33065,3.9341 -20.86296,12.13621 -20.86296,12.13621 L 358.4283,891.51241 C 321.78651,878.76652 210.55555,883.9676 174.83166,872.09896 139.10777,860.23032 71.223024,825.19514 29.092326,832.65768 Z"
       id="rect4927-2-6"
       inkscape:connector-curvature="0"
       sodipodi:nodetypes="ccccsc" />
    <path
       style="opacity:1;fill:#fdec59;fill-opacity:1;stroke:none;stroke-width:2;stroke-linecap:butt;stroke-linejoin:round;stroke-miterlimit:4;stroke-dasharray:none;stroke-dashoffset:0;stroke-opacity:1"
       d="m 29.922425,841.18869 c -69.396212,-18.51828 -102.226996,23.29591 -163.235355,43.39143 -11.55404,3.38087 -21.22147,11.23312 -21.22147,11.23312 l 518.16301,-3.18891 C 326.26441,881.67084 214.35622,889.25141 177.92802,879.0518 141.49983,868.85219 72.883733,834.77559 29.922425,841.18869 Z"
       id="rect4927-2"
       inkscape:connector-curvature="0"
       sodipodi:nodetypes="ccccsc" />
    <path
       style="opacity:1;fill:#f8d637;fill-opacity:1;stroke:none;stroke-width:2;stroke-linecap:butt;stroke-linejoin:round;stroke-miterlimit:4;stroke-dasharray:none;stroke-dashoffset:0;stroke-opacity:1"
       id="path5011"
       d="m 71.41822,851.81763 c 0.765073,0.5866 1.339622,1.32215 1.416449,2.30032 -0.08907,0.69974 -0.65402,1.0496 -1.179268,1.42962 l -4.933965,1.9224 0,0 c 0.486028,-0.27848 0.961555,-0.59031 1.385504,-0.95715 0.14567,-0.81364 -0.540523,-1.41681 -1.155372,-1.83524 z"
       inkscape:connector-curvature="0"
       sodipodi:nodetypes="cccccccc" />
    <path
       style="opacity:1;fill:#f8d637;fill-opacity:1;stroke:none;stroke-width:2;stroke-linecap:butt;stroke-linejoin:round;stroke-miterlimit:4;stroke-dasharray:none;stroke-dashoffset:0;stroke-opacity:1"
       id="path5013"
       d="m 93.66379,860.25725 c 10.59466,-5.93632 2.106928,-2.15924 3.138932,-0.50645 0.07636,0.1223 0.213154,0.19421 0.31973,0.29131 0.699495,0.35131 0.325573,0.19672 1.126945,0.45104 l -4.340232,2.93136 0,0 c -0.898376,-0.35344 -0.473822,-0.13858 -1.276068,-0.6398 -0.349759,-0.38813 -0.614967,-0.54768 -0.658963,-1.10825 -0.01531,-0.19507 0.05024,-0.39034 0.110356,-0.57655 0.718517,-2.22579 4.622554,-3.35853 5.71105,-4.14766 z"
       inkscape:connector-curvature="0"
       sodipodi:nodetypes="cccccccsccc" />
    <path
       style="opacity:1;fill:#f8d637;fill-opacity:1;stroke:none;stroke-width:2;stroke-linecap:butt;stroke-linejoin:round;stroke-miterlimit:4;stroke-dasharray:none;stroke-dashoffset:0;stroke-opacity:1"
       id="path5015"
       d="m 120.01342,869.09275 c 0.58306,0.50293 1.22505,0.91288 1.87947,1.31381 l -4.36524,2.81987 0,0 c -0.69877,-0.42444 -1.38556,-0.85986 -2.02842,-1.36737 z"
       inkscape:connector-curvature="0"
       sodipodi:nodetypes="cccccc" />
    <path
       style="opacity:1;fill:#f8d637;fill-opacity:1;stroke:none;stroke-width:2;stroke-linecap:butt;stroke-linejoin:round;stroke-miterlimit:4;stroke-dasharray:none;stroke-dashoffset:0;stroke-opacity:1"
       id="path5017"
       d="m 159.73691,880.13243 c -0.38405,0.46517 -1.12961,1.22177 -0.67443,1.87797 0.3836,0.55302 0.91675,0.72364 1.49479,1.03018 l -4.31966,2.81907 0,0 c -0.8289,-0.4668 -1.91003,-0.94563 -2.0517,-2.03989 -0.0815,-0.62951 0.39283,-1.14122 0.64997,-1.65725 z"
       inkscape:connector-curvature="0"
       sodipodi:nodetypes="cscccscc" />
    <path
       style="opacity:1;fill:#f8d637;fill-opacity:1;stroke:none;stroke-width:2;stroke-linecap:butt;stroke-linejoin:round;stroke-miterlimit:4;stroke-dasharray:none;stroke-dashoffset:0;stroke-opacity:1"
       id="path5019"
       d="m 81.510807,881.22548 c -0.247773,0.30087 -1.180675,1.48043 -0.826995,1.88692 0.06808,0.0783 0.179034,0.10477 0.268551,0.15715 0.713992,0.20751 0.319009,0.11398 1.190545,0.25579 l -4.28557,2.99088 0,0 c -0.994201,-0.2179 -0.538435,-0.062 -1.376867,-0.43891 -0.141229,-0.13292 -0.312822,-0.23963 -0.423687,-0.39876 -0.533267,-0.76542 0.161821,-1.74343 0.576633,-2.38079 z"
       inkscape:connector-curvature="0"
       sodipodi:nodetypes="cccccccscc" />
    <path
       style="opacity:1;fill:#f8d637;fill-opacity:1;stroke:none;stroke-width:2;stroke-linecap:butt;stroke-linejoin:round;stroke-miterlimit:4;stroke-dasharray:none;stroke-dashoffset:0;stroke-opacity:1"
       id="path5021"
       d="m 31.593439,848.97732 c 1.071832,0.49731 2.228098,0.76255 3.351367,1.1139 l -4.304292,2.93029 0,0 c -1.14904,-0.36686 -2.320152,-0.67118 -3.436961,-1.13246 z"
       inkscape:connector-curvature="0"
       sodipodi:nodetypes="cccccc" />
    <path
       style="opacity:1;fill:#f8d637;fill-opacity:1;stroke:none;stroke-width:2;stroke-linecap:butt;stroke-linejoin:round;stroke-miterlimit:4;stroke-dasharray:none;stroke-dashoffset:0;stroke-opacity:1"
       id="path5027"
       d="m -2.3842117,880.84148 c -0.02834,0.0765 -0.1195072,0.15561 -0.085019,0.22957 0.044003,0.0944 0.1729985,0.1175 0.267374,0.16147 0.2434249,0.11342 0.4958468,0.20643 0.7437701,0.30964 l -4.333537,2.87897 0,0 c -0.6888183,-0.32397 -1.4815395,-0.55289 -1.4516426,-1.45365 z"
       inkscape:connector-curvature="0"
       sodipodi:nodetypes="cccccccc" />
    <path
       style="opacity:1;fill:#f8d637;fill-opacity:1;stroke:none;stroke-width:2;stroke-linecap:butt;stroke-linejoin:round;stroke-miterlimit:4;stroke-dasharray:none;stroke-dashoffset:0;stroke-opacity:1"
       id="path5029"
       d="m 197.33745,884.70525 c -0.32253,1.78203 0.48171,2.28871 1.99727,2.91722 l 1.00386,0.26427 -4.26522,2.92432 0,0 -1.06152,-0.31422 c -0.30405,-0.14139 -0.62316,-0.25412 -0.91215,-0.42418 -1.10392,-0.64958 -1.68683,-1.75083 -1.52258,-3.02637 z"
       inkscape:connector-curvature="0"
       sodipodi:nodetypes="ccccccccc" />
  </g>
</svg>
